M48
; DRILL file {KiCad (5.1.4)-1} date 11/24/2019 11:22:18 PM
; FORMAT={-:-/ absolute / inch / decimal}
; #@! TF.CreationDate,2019-11-24T23:22:18+05:30
; #@! TF.GenerationSoftware,Kicad,Pcbnew,(5.1.4)-1
; #@! TF.FileFunction,Plated,1,2,PTH
FMAT,2
INCH
T1C0.0118
T2C0.0157
T3C0.0394
%
G90
G05
T1
X1.555Y-4.195
X1.65Y-4.2646
X1.755Y-4.145
X1.84Y-4.145
X1.84Y-4.24
X2.015Y-4.145
X2.045Y-4.635
X2.055Y-4.32
X2.105Y-4.325
X2.145Y-4.3256
X2.215Y-4.4944
X2.22Y-4.305
X2.2475Y-4.2525
X2.27Y-4.31
X2.275Y-4.64
X2.3323Y-4.0573
X2.375Y-4.06
X2.55Y-4.2294
X2.625Y-4.4944
X2.645Y-4.255
X2.655Y-4.635
X2.655Y-4.665
X2.7Y-4.04
X2.71Y-4.495
X2.725Y-4.26
X2.765Y-4.23
X2.795Y-4.315
X2.805Y-4.5
X2.88Y-3.98
X3.095Y-4.115
X3.23Y-4.47
T2
X1.76Y-4.61
X1.76Y-4.655
X1.76Y-4.7
X1.76Y-4.74
X1.76Y-4.785
X2.365Y-4.6
X2.365Y-4.645
X2.365Y-4.69
X2.365Y-4.73
X2.365Y-4.775
X2.97Y-4.6
X2.97Y-4.645
X2.97Y-4.69
X2.97Y-4.73
X2.97Y-4.775
T3
X2.475Y-3.45
X2.62Y-3.45
X2.33Y-3.595
X2.62Y-3.595
X2.04Y-3.455
X2.185Y-3.455
X2.765Y-3.595
X2.765Y-3.455
X2.475Y-3.595
X2.04Y-3.595
X2.185Y-3.595
T0
M30
