G04 #@! TF.GenerationSoftware,KiCad,Pcbnew,(5.1.4)-1*
G04 #@! TF.CreationDate,2019-11-24T23:21:18+05:30*
G04 #@! TF.ProjectId,half_bridge_fd6288_v3.0,68616c66-5f62-4726-9964-67655f666436,rev?*
G04 #@! TF.SameCoordinates,Original*
G04 #@! TF.FileFunction,Copper,L1,Top*
G04 #@! TF.FilePolarity,Positive*
%FSLAX46Y46*%
G04 Gerber Fmt 4.6, Leading zero omitted, Abs format (unit mm)*
G04 Created by KiCad (PCBNEW (5.1.4)-1) date 2019-11-24 23:21:18*
%MOMM*%
%LPD*%
G04 APERTURE LIST*
%ADD10C,0.150000*%
%ADD11C,1.150000*%
%ADD12R,0.750000X1.000000*%
%ADD13C,1.524000*%
%ADD14R,1.700000X1.700000*%
%ADD15R,0.400000X1.000000*%
%ADD16C,0.600000*%
%ADD17C,0.800000*%
%ADD18C,3.290000*%
%ADD19C,0.250000*%
%ADD20C,0.500000*%
G04 APERTURE END LIST*
D10*
G36*
X41488505Y-100266204D02*
G01*
X41512773Y-100269804D01*
X41536572Y-100275765D01*
X41559671Y-100284030D01*
X41581850Y-100294520D01*
X41602893Y-100307132D01*
X41622599Y-100321747D01*
X41640777Y-100338223D01*
X41657253Y-100356401D01*
X41671868Y-100376107D01*
X41684480Y-100397150D01*
X41694970Y-100419329D01*
X41703235Y-100442428D01*
X41709196Y-100466227D01*
X41712796Y-100490495D01*
X41714000Y-100514999D01*
X41714000Y-101415001D01*
X41712796Y-101439505D01*
X41709196Y-101463773D01*
X41703235Y-101487572D01*
X41694970Y-101510671D01*
X41684480Y-101532850D01*
X41671868Y-101553893D01*
X41657253Y-101573599D01*
X41640777Y-101591777D01*
X41622599Y-101608253D01*
X41602893Y-101622868D01*
X41581850Y-101635480D01*
X41559671Y-101645970D01*
X41536572Y-101654235D01*
X41512773Y-101660196D01*
X41488505Y-101663796D01*
X41464001Y-101665000D01*
X40813999Y-101665000D01*
X40789495Y-101663796D01*
X40765227Y-101660196D01*
X40741428Y-101654235D01*
X40718329Y-101645970D01*
X40696150Y-101635480D01*
X40675107Y-101622868D01*
X40655401Y-101608253D01*
X40637223Y-101591777D01*
X40620747Y-101573599D01*
X40606132Y-101553893D01*
X40593520Y-101532850D01*
X40583030Y-101510671D01*
X40574765Y-101487572D01*
X40568804Y-101463773D01*
X40565204Y-101439505D01*
X40564000Y-101415001D01*
X40564000Y-100514999D01*
X40565204Y-100490495D01*
X40568804Y-100466227D01*
X40574765Y-100442428D01*
X40583030Y-100419329D01*
X40593520Y-100397150D01*
X40606132Y-100376107D01*
X40620747Y-100356401D01*
X40637223Y-100338223D01*
X40655401Y-100321747D01*
X40675107Y-100307132D01*
X40696150Y-100294520D01*
X40718329Y-100284030D01*
X40741428Y-100275765D01*
X40765227Y-100269804D01*
X40789495Y-100266204D01*
X40813999Y-100265000D01*
X41464001Y-100265000D01*
X41488505Y-100266204D01*
X41488505Y-100266204D01*
G37*
D11*
X41139000Y-100965000D03*
D10*
G36*
X43538505Y-100266204D02*
G01*
X43562773Y-100269804D01*
X43586572Y-100275765D01*
X43609671Y-100284030D01*
X43631850Y-100294520D01*
X43652893Y-100307132D01*
X43672599Y-100321747D01*
X43690777Y-100338223D01*
X43707253Y-100356401D01*
X43721868Y-100376107D01*
X43734480Y-100397150D01*
X43744970Y-100419329D01*
X43753235Y-100442428D01*
X43759196Y-100466227D01*
X43762796Y-100490495D01*
X43764000Y-100514999D01*
X43764000Y-101415001D01*
X43762796Y-101439505D01*
X43759196Y-101463773D01*
X43753235Y-101487572D01*
X43744970Y-101510671D01*
X43734480Y-101532850D01*
X43721868Y-101553893D01*
X43707253Y-101573599D01*
X43690777Y-101591777D01*
X43672599Y-101608253D01*
X43652893Y-101622868D01*
X43631850Y-101635480D01*
X43609671Y-101645970D01*
X43586572Y-101654235D01*
X43562773Y-101660196D01*
X43538505Y-101663796D01*
X43514001Y-101665000D01*
X42863999Y-101665000D01*
X42839495Y-101663796D01*
X42815227Y-101660196D01*
X42791428Y-101654235D01*
X42768329Y-101645970D01*
X42746150Y-101635480D01*
X42725107Y-101622868D01*
X42705401Y-101608253D01*
X42687223Y-101591777D01*
X42670747Y-101573599D01*
X42656132Y-101553893D01*
X42643520Y-101532850D01*
X42633030Y-101510671D01*
X42624765Y-101487572D01*
X42618804Y-101463773D01*
X42615204Y-101439505D01*
X42614000Y-101415001D01*
X42614000Y-100514999D01*
X42615204Y-100490495D01*
X42618804Y-100466227D01*
X42624765Y-100442428D01*
X42633030Y-100419329D01*
X42643520Y-100397150D01*
X42656132Y-100376107D01*
X42670747Y-100356401D01*
X42687223Y-100338223D01*
X42705401Y-100321747D01*
X42725107Y-100307132D01*
X42746150Y-100294520D01*
X42768329Y-100284030D01*
X42791428Y-100275765D01*
X42815227Y-100269804D01*
X42839495Y-100266204D01*
X42863999Y-100265000D01*
X43514001Y-100265000D01*
X43538505Y-100266204D01*
X43538505Y-100266204D01*
G37*
D11*
X43189000Y-100965000D03*
D10*
G36*
X43547505Y-95186204D02*
G01*
X43571773Y-95189804D01*
X43595572Y-95195765D01*
X43618671Y-95204030D01*
X43640850Y-95214520D01*
X43661893Y-95227132D01*
X43681599Y-95241747D01*
X43699777Y-95258223D01*
X43716253Y-95276401D01*
X43730868Y-95296107D01*
X43743480Y-95317150D01*
X43753970Y-95339329D01*
X43762235Y-95362428D01*
X43768196Y-95386227D01*
X43771796Y-95410495D01*
X43773000Y-95434999D01*
X43773000Y-96335001D01*
X43771796Y-96359505D01*
X43768196Y-96383773D01*
X43762235Y-96407572D01*
X43753970Y-96430671D01*
X43743480Y-96452850D01*
X43730868Y-96473893D01*
X43716253Y-96493599D01*
X43699777Y-96511777D01*
X43681599Y-96528253D01*
X43661893Y-96542868D01*
X43640850Y-96555480D01*
X43618671Y-96565970D01*
X43595572Y-96574235D01*
X43571773Y-96580196D01*
X43547505Y-96583796D01*
X43523001Y-96585000D01*
X42872999Y-96585000D01*
X42848495Y-96583796D01*
X42824227Y-96580196D01*
X42800428Y-96574235D01*
X42777329Y-96565970D01*
X42755150Y-96555480D01*
X42734107Y-96542868D01*
X42714401Y-96528253D01*
X42696223Y-96511777D01*
X42679747Y-96493599D01*
X42665132Y-96473893D01*
X42652520Y-96452850D01*
X42642030Y-96430671D01*
X42633765Y-96407572D01*
X42627804Y-96383773D01*
X42624204Y-96359505D01*
X42623000Y-96335001D01*
X42623000Y-95434999D01*
X42624204Y-95410495D01*
X42627804Y-95386227D01*
X42633765Y-95362428D01*
X42642030Y-95339329D01*
X42652520Y-95317150D01*
X42665132Y-95296107D01*
X42679747Y-95276401D01*
X42696223Y-95258223D01*
X42714401Y-95241747D01*
X42734107Y-95227132D01*
X42755150Y-95214520D01*
X42777329Y-95204030D01*
X42800428Y-95195765D01*
X42824227Y-95189804D01*
X42848495Y-95186204D01*
X42872999Y-95185000D01*
X43523001Y-95185000D01*
X43547505Y-95186204D01*
X43547505Y-95186204D01*
G37*
D11*
X43198000Y-95885000D03*
D10*
G36*
X41497505Y-95186204D02*
G01*
X41521773Y-95189804D01*
X41545572Y-95195765D01*
X41568671Y-95204030D01*
X41590850Y-95214520D01*
X41611893Y-95227132D01*
X41631599Y-95241747D01*
X41649777Y-95258223D01*
X41666253Y-95276401D01*
X41680868Y-95296107D01*
X41693480Y-95317150D01*
X41703970Y-95339329D01*
X41712235Y-95362428D01*
X41718196Y-95386227D01*
X41721796Y-95410495D01*
X41723000Y-95434999D01*
X41723000Y-96335001D01*
X41721796Y-96359505D01*
X41718196Y-96383773D01*
X41712235Y-96407572D01*
X41703970Y-96430671D01*
X41693480Y-96452850D01*
X41680868Y-96473893D01*
X41666253Y-96493599D01*
X41649777Y-96511777D01*
X41631599Y-96528253D01*
X41611893Y-96542868D01*
X41590850Y-96555480D01*
X41568671Y-96565970D01*
X41545572Y-96574235D01*
X41521773Y-96580196D01*
X41497505Y-96583796D01*
X41473001Y-96585000D01*
X40822999Y-96585000D01*
X40798495Y-96583796D01*
X40774227Y-96580196D01*
X40750428Y-96574235D01*
X40727329Y-96565970D01*
X40705150Y-96555480D01*
X40684107Y-96542868D01*
X40664401Y-96528253D01*
X40646223Y-96511777D01*
X40629747Y-96493599D01*
X40615132Y-96473893D01*
X40602520Y-96452850D01*
X40592030Y-96430671D01*
X40583765Y-96407572D01*
X40577804Y-96383773D01*
X40574204Y-96359505D01*
X40573000Y-96335001D01*
X40573000Y-95434999D01*
X40574204Y-95410495D01*
X40577804Y-95386227D01*
X40583765Y-95362428D01*
X40592030Y-95339329D01*
X40602520Y-95317150D01*
X40615132Y-95296107D01*
X40629747Y-95276401D01*
X40646223Y-95258223D01*
X40664401Y-95241747D01*
X40684107Y-95227132D01*
X40705150Y-95214520D01*
X40727329Y-95204030D01*
X40750428Y-95195765D01*
X40774227Y-95189804D01*
X40798495Y-95186204D01*
X40822999Y-95185000D01*
X41473001Y-95185000D01*
X41497505Y-95186204D01*
X41497505Y-95186204D01*
G37*
D11*
X41148000Y-95885000D03*
D10*
G36*
X41479505Y-105219204D02*
G01*
X41503773Y-105222804D01*
X41527572Y-105228765D01*
X41550671Y-105237030D01*
X41572850Y-105247520D01*
X41593893Y-105260132D01*
X41613599Y-105274747D01*
X41631777Y-105291223D01*
X41648253Y-105309401D01*
X41662868Y-105329107D01*
X41675480Y-105350150D01*
X41685970Y-105372329D01*
X41694235Y-105395428D01*
X41700196Y-105419227D01*
X41703796Y-105443495D01*
X41705000Y-105467999D01*
X41705000Y-106368001D01*
X41703796Y-106392505D01*
X41700196Y-106416773D01*
X41694235Y-106440572D01*
X41685970Y-106463671D01*
X41675480Y-106485850D01*
X41662868Y-106506893D01*
X41648253Y-106526599D01*
X41631777Y-106544777D01*
X41613599Y-106561253D01*
X41593893Y-106575868D01*
X41572850Y-106588480D01*
X41550671Y-106598970D01*
X41527572Y-106607235D01*
X41503773Y-106613196D01*
X41479505Y-106616796D01*
X41455001Y-106618000D01*
X40804999Y-106618000D01*
X40780495Y-106616796D01*
X40756227Y-106613196D01*
X40732428Y-106607235D01*
X40709329Y-106598970D01*
X40687150Y-106588480D01*
X40666107Y-106575868D01*
X40646401Y-106561253D01*
X40628223Y-106544777D01*
X40611747Y-106526599D01*
X40597132Y-106506893D01*
X40584520Y-106485850D01*
X40574030Y-106463671D01*
X40565765Y-106440572D01*
X40559804Y-106416773D01*
X40556204Y-106392505D01*
X40555000Y-106368001D01*
X40555000Y-105467999D01*
X40556204Y-105443495D01*
X40559804Y-105419227D01*
X40565765Y-105395428D01*
X40574030Y-105372329D01*
X40584520Y-105350150D01*
X40597132Y-105329107D01*
X40611747Y-105309401D01*
X40628223Y-105291223D01*
X40646401Y-105274747D01*
X40666107Y-105260132D01*
X40687150Y-105247520D01*
X40709329Y-105237030D01*
X40732428Y-105228765D01*
X40756227Y-105222804D01*
X40780495Y-105219204D01*
X40804999Y-105218000D01*
X41455001Y-105218000D01*
X41479505Y-105219204D01*
X41479505Y-105219204D01*
G37*
D11*
X41130000Y-105918000D03*
D10*
G36*
X43529505Y-105219204D02*
G01*
X43553773Y-105222804D01*
X43577572Y-105228765D01*
X43600671Y-105237030D01*
X43622850Y-105247520D01*
X43643893Y-105260132D01*
X43663599Y-105274747D01*
X43681777Y-105291223D01*
X43698253Y-105309401D01*
X43712868Y-105329107D01*
X43725480Y-105350150D01*
X43735970Y-105372329D01*
X43744235Y-105395428D01*
X43750196Y-105419227D01*
X43753796Y-105443495D01*
X43755000Y-105467999D01*
X43755000Y-106368001D01*
X43753796Y-106392505D01*
X43750196Y-106416773D01*
X43744235Y-106440572D01*
X43735970Y-106463671D01*
X43725480Y-106485850D01*
X43712868Y-106506893D01*
X43698253Y-106526599D01*
X43681777Y-106544777D01*
X43663599Y-106561253D01*
X43643893Y-106575868D01*
X43622850Y-106588480D01*
X43600671Y-106598970D01*
X43577572Y-106607235D01*
X43553773Y-106613196D01*
X43529505Y-106616796D01*
X43505001Y-106618000D01*
X42854999Y-106618000D01*
X42830495Y-106616796D01*
X42806227Y-106613196D01*
X42782428Y-106607235D01*
X42759329Y-106598970D01*
X42737150Y-106588480D01*
X42716107Y-106575868D01*
X42696401Y-106561253D01*
X42678223Y-106544777D01*
X42661747Y-106526599D01*
X42647132Y-106506893D01*
X42634520Y-106485850D01*
X42624030Y-106463671D01*
X42615765Y-106440572D01*
X42609804Y-106416773D01*
X42606204Y-106392505D01*
X42605000Y-106368001D01*
X42605000Y-105467999D01*
X42606204Y-105443495D01*
X42609804Y-105419227D01*
X42615765Y-105395428D01*
X42624030Y-105372329D01*
X42634520Y-105350150D01*
X42647132Y-105329107D01*
X42661747Y-105309401D01*
X42678223Y-105291223D01*
X42696401Y-105274747D01*
X42716107Y-105260132D01*
X42737150Y-105247520D01*
X42759329Y-105237030D01*
X42782428Y-105228765D01*
X42806227Y-105222804D01*
X42830495Y-105219204D01*
X42854999Y-105218000D01*
X43505001Y-105218000D01*
X43529505Y-105219204D01*
X43529505Y-105219204D01*
G37*
D11*
X43180000Y-105918000D03*
D10*
G36*
X47738505Y-95186204D02*
G01*
X47762773Y-95189804D01*
X47786572Y-95195765D01*
X47809671Y-95204030D01*
X47831850Y-95214520D01*
X47852893Y-95227132D01*
X47872599Y-95241747D01*
X47890777Y-95258223D01*
X47907253Y-95276401D01*
X47921868Y-95296107D01*
X47934480Y-95317150D01*
X47944970Y-95339329D01*
X47953235Y-95362428D01*
X47959196Y-95386227D01*
X47962796Y-95410495D01*
X47964000Y-95434999D01*
X47964000Y-96335001D01*
X47962796Y-96359505D01*
X47959196Y-96383773D01*
X47953235Y-96407572D01*
X47944970Y-96430671D01*
X47934480Y-96452850D01*
X47921868Y-96473893D01*
X47907253Y-96493599D01*
X47890777Y-96511777D01*
X47872599Y-96528253D01*
X47852893Y-96542868D01*
X47831850Y-96555480D01*
X47809671Y-96565970D01*
X47786572Y-96574235D01*
X47762773Y-96580196D01*
X47738505Y-96583796D01*
X47714001Y-96585000D01*
X47063999Y-96585000D01*
X47039495Y-96583796D01*
X47015227Y-96580196D01*
X46991428Y-96574235D01*
X46968329Y-96565970D01*
X46946150Y-96555480D01*
X46925107Y-96542868D01*
X46905401Y-96528253D01*
X46887223Y-96511777D01*
X46870747Y-96493599D01*
X46856132Y-96473893D01*
X46843520Y-96452850D01*
X46833030Y-96430671D01*
X46824765Y-96407572D01*
X46818804Y-96383773D01*
X46815204Y-96359505D01*
X46814000Y-96335001D01*
X46814000Y-95434999D01*
X46815204Y-95410495D01*
X46818804Y-95386227D01*
X46824765Y-95362428D01*
X46833030Y-95339329D01*
X46843520Y-95317150D01*
X46856132Y-95296107D01*
X46870747Y-95276401D01*
X46887223Y-95258223D01*
X46905401Y-95241747D01*
X46925107Y-95227132D01*
X46946150Y-95214520D01*
X46968329Y-95204030D01*
X46991428Y-95195765D01*
X47015227Y-95189804D01*
X47039495Y-95186204D01*
X47063999Y-95185000D01*
X47714001Y-95185000D01*
X47738505Y-95186204D01*
X47738505Y-95186204D01*
G37*
D11*
X47389000Y-95885000D03*
D10*
G36*
X45688505Y-95186204D02*
G01*
X45712773Y-95189804D01*
X45736572Y-95195765D01*
X45759671Y-95204030D01*
X45781850Y-95214520D01*
X45802893Y-95227132D01*
X45822599Y-95241747D01*
X45840777Y-95258223D01*
X45857253Y-95276401D01*
X45871868Y-95296107D01*
X45884480Y-95317150D01*
X45894970Y-95339329D01*
X45903235Y-95362428D01*
X45909196Y-95386227D01*
X45912796Y-95410495D01*
X45914000Y-95434999D01*
X45914000Y-96335001D01*
X45912796Y-96359505D01*
X45909196Y-96383773D01*
X45903235Y-96407572D01*
X45894970Y-96430671D01*
X45884480Y-96452850D01*
X45871868Y-96473893D01*
X45857253Y-96493599D01*
X45840777Y-96511777D01*
X45822599Y-96528253D01*
X45802893Y-96542868D01*
X45781850Y-96555480D01*
X45759671Y-96565970D01*
X45736572Y-96574235D01*
X45712773Y-96580196D01*
X45688505Y-96583796D01*
X45664001Y-96585000D01*
X45013999Y-96585000D01*
X44989495Y-96583796D01*
X44965227Y-96580196D01*
X44941428Y-96574235D01*
X44918329Y-96565970D01*
X44896150Y-96555480D01*
X44875107Y-96542868D01*
X44855401Y-96528253D01*
X44837223Y-96511777D01*
X44820747Y-96493599D01*
X44806132Y-96473893D01*
X44793520Y-96452850D01*
X44783030Y-96430671D01*
X44774765Y-96407572D01*
X44768804Y-96383773D01*
X44765204Y-96359505D01*
X44764000Y-96335001D01*
X44764000Y-95434999D01*
X44765204Y-95410495D01*
X44768804Y-95386227D01*
X44774765Y-95362428D01*
X44783030Y-95339329D01*
X44793520Y-95317150D01*
X44806132Y-95296107D01*
X44820747Y-95276401D01*
X44837223Y-95258223D01*
X44855401Y-95241747D01*
X44875107Y-95227132D01*
X44896150Y-95214520D01*
X44918329Y-95204030D01*
X44941428Y-95195765D01*
X44965227Y-95189804D01*
X44989495Y-95186204D01*
X45013999Y-95185000D01*
X45664001Y-95185000D01*
X45688505Y-95186204D01*
X45688505Y-95186204D01*
G37*
D11*
X45339000Y-95885000D03*
D10*
G36*
X41488505Y-102679204D02*
G01*
X41512773Y-102682804D01*
X41536572Y-102688765D01*
X41559671Y-102697030D01*
X41581850Y-102707520D01*
X41602893Y-102720132D01*
X41622599Y-102734747D01*
X41640777Y-102751223D01*
X41657253Y-102769401D01*
X41671868Y-102789107D01*
X41684480Y-102810150D01*
X41694970Y-102832329D01*
X41703235Y-102855428D01*
X41709196Y-102879227D01*
X41712796Y-102903495D01*
X41714000Y-102927999D01*
X41714000Y-103828001D01*
X41712796Y-103852505D01*
X41709196Y-103876773D01*
X41703235Y-103900572D01*
X41694970Y-103923671D01*
X41684480Y-103945850D01*
X41671868Y-103966893D01*
X41657253Y-103986599D01*
X41640777Y-104004777D01*
X41622599Y-104021253D01*
X41602893Y-104035868D01*
X41581850Y-104048480D01*
X41559671Y-104058970D01*
X41536572Y-104067235D01*
X41512773Y-104073196D01*
X41488505Y-104076796D01*
X41464001Y-104078000D01*
X40813999Y-104078000D01*
X40789495Y-104076796D01*
X40765227Y-104073196D01*
X40741428Y-104067235D01*
X40718329Y-104058970D01*
X40696150Y-104048480D01*
X40675107Y-104035868D01*
X40655401Y-104021253D01*
X40637223Y-104004777D01*
X40620747Y-103986599D01*
X40606132Y-103966893D01*
X40593520Y-103945850D01*
X40583030Y-103923671D01*
X40574765Y-103900572D01*
X40568804Y-103876773D01*
X40565204Y-103852505D01*
X40564000Y-103828001D01*
X40564000Y-102927999D01*
X40565204Y-102903495D01*
X40568804Y-102879227D01*
X40574765Y-102855428D01*
X40583030Y-102832329D01*
X40593520Y-102810150D01*
X40606132Y-102789107D01*
X40620747Y-102769401D01*
X40637223Y-102751223D01*
X40655401Y-102734747D01*
X40675107Y-102720132D01*
X40696150Y-102707520D01*
X40718329Y-102697030D01*
X40741428Y-102688765D01*
X40765227Y-102682804D01*
X40789495Y-102679204D01*
X40813999Y-102678000D01*
X41464001Y-102678000D01*
X41488505Y-102679204D01*
X41488505Y-102679204D01*
G37*
D11*
X41139000Y-103378000D03*
D10*
G36*
X43538505Y-102679204D02*
G01*
X43562773Y-102682804D01*
X43586572Y-102688765D01*
X43609671Y-102697030D01*
X43631850Y-102707520D01*
X43652893Y-102720132D01*
X43672599Y-102734747D01*
X43690777Y-102751223D01*
X43707253Y-102769401D01*
X43721868Y-102789107D01*
X43734480Y-102810150D01*
X43744970Y-102832329D01*
X43753235Y-102855428D01*
X43759196Y-102879227D01*
X43762796Y-102903495D01*
X43764000Y-102927999D01*
X43764000Y-103828001D01*
X43762796Y-103852505D01*
X43759196Y-103876773D01*
X43753235Y-103900572D01*
X43744970Y-103923671D01*
X43734480Y-103945850D01*
X43721868Y-103966893D01*
X43707253Y-103986599D01*
X43690777Y-104004777D01*
X43672599Y-104021253D01*
X43652893Y-104035868D01*
X43631850Y-104048480D01*
X43609671Y-104058970D01*
X43586572Y-104067235D01*
X43562773Y-104073196D01*
X43538505Y-104076796D01*
X43514001Y-104078000D01*
X42863999Y-104078000D01*
X42839495Y-104076796D01*
X42815227Y-104073196D01*
X42791428Y-104067235D01*
X42768329Y-104058970D01*
X42746150Y-104048480D01*
X42725107Y-104035868D01*
X42705401Y-104021253D01*
X42687223Y-104004777D01*
X42670747Y-103986599D01*
X42656132Y-103966893D01*
X42643520Y-103945850D01*
X42633030Y-103923671D01*
X42624765Y-103900572D01*
X42618804Y-103876773D01*
X42615204Y-103852505D01*
X42614000Y-103828001D01*
X42614000Y-102927999D01*
X42615204Y-102903495D01*
X42618804Y-102879227D01*
X42624765Y-102855428D01*
X42633030Y-102832329D01*
X42643520Y-102810150D01*
X42656132Y-102789107D01*
X42670747Y-102769401D01*
X42687223Y-102751223D01*
X42705401Y-102734747D01*
X42725107Y-102720132D01*
X42746150Y-102707520D01*
X42768329Y-102697030D01*
X42791428Y-102688765D01*
X42815227Y-102682804D01*
X42839495Y-102679204D01*
X42863999Y-102678000D01*
X43514001Y-102678000D01*
X43538505Y-102679204D01*
X43538505Y-102679204D01*
G37*
D11*
X43189000Y-103378000D03*
D10*
G36*
X43538505Y-97726204D02*
G01*
X43562773Y-97729804D01*
X43586572Y-97735765D01*
X43609671Y-97744030D01*
X43631850Y-97754520D01*
X43652893Y-97767132D01*
X43672599Y-97781747D01*
X43690777Y-97798223D01*
X43707253Y-97816401D01*
X43721868Y-97836107D01*
X43734480Y-97857150D01*
X43744970Y-97879329D01*
X43753235Y-97902428D01*
X43759196Y-97926227D01*
X43762796Y-97950495D01*
X43764000Y-97974999D01*
X43764000Y-98875001D01*
X43762796Y-98899505D01*
X43759196Y-98923773D01*
X43753235Y-98947572D01*
X43744970Y-98970671D01*
X43734480Y-98992850D01*
X43721868Y-99013893D01*
X43707253Y-99033599D01*
X43690777Y-99051777D01*
X43672599Y-99068253D01*
X43652893Y-99082868D01*
X43631850Y-99095480D01*
X43609671Y-99105970D01*
X43586572Y-99114235D01*
X43562773Y-99120196D01*
X43538505Y-99123796D01*
X43514001Y-99125000D01*
X42863999Y-99125000D01*
X42839495Y-99123796D01*
X42815227Y-99120196D01*
X42791428Y-99114235D01*
X42768329Y-99105970D01*
X42746150Y-99095480D01*
X42725107Y-99082868D01*
X42705401Y-99068253D01*
X42687223Y-99051777D01*
X42670747Y-99033599D01*
X42656132Y-99013893D01*
X42643520Y-98992850D01*
X42633030Y-98970671D01*
X42624765Y-98947572D01*
X42618804Y-98923773D01*
X42615204Y-98899505D01*
X42614000Y-98875001D01*
X42614000Y-97974999D01*
X42615204Y-97950495D01*
X42618804Y-97926227D01*
X42624765Y-97902428D01*
X42633030Y-97879329D01*
X42643520Y-97857150D01*
X42656132Y-97836107D01*
X42670747Y-97816401D01*
X42687223Y-97798223D01*
X42705401Y-97781747D01*
X42725107Y-97767132D01*
X42746150Y-97754520D01*
X42768329Y-97744030D01*
X42791428Y-97735765D01*
X42815227Y-97729804D01*
X42839495Y-97726204D01*
X42863999Y-97725000D01*
X43514001Y-97725000D01*
X43538505Y-97726204D01*
X43538505Y-97726204D01*
G37*
D11*
X43189000Y-98425000D03*
D10*
G36*
X41488505Y-97726204D02*
G01*
X41512773Y-97729804D01*
X41536572Y-97735765D01*
X41559671Y-97744030D01*
X41581850Y-97754520D01*
X41602893Y-97767132D01*
X41622599Y-97781747D01*
X41640777Y-97798223D01*
X41657253Y-97816401D01*
X41671868Y-97836107D01*
X41684480Y-97857150D01*
X41694970Y-97879329D01*
X41703235Y-97902428D01*
X41709196Y-97926227D01*
X41712796Y-97950495D01*
X41714000Y-97974999D01*
X41714000Y-98875001D01*
X41712796Y-98899505D01*
X41709196Y-98923773D01*
X41703235Y-98947572D01*
X41694970Y-98970671D01*
X41684480Y-98992850D01*
X41671868Y-99013893D01*
X41657253Y-99033599D01*
X41640777Y-99051777D01*
X41622599Y-99068253D01*
X41602893Y-99082868D01*
X41581850Y-99095480D01*
X41559671Y-99105970D01*
X41536572Y-99114235D01*
X41512773Y-99120196D01*
X41488505Y-99123796D01*
X41464001Y-99125000D01*
X40813999Y-99125000D01*
X40789495Y-99123796D01*
X40765227Y-99120196D01*
X40741428Y-99114235D01*
X40718329Y-99105970D01*
X40696150Y-99095480D01*
X40675107Y-99082868D01*
X40655401Y-99068253D01*
X40637223Y-99051777D01*
X40620747Y-99033599D01*
X40606132Y-99013893D01*
X40593520Y-98992850D01*
X40583030Y-98970671D01*
X40574765Y-98947572D01*
X40568804Y-98923773D01*
X40565204Y-98899505D01*
X40564000Y-98875001D01*
X40564000Y-97974999D01*
X40565204Y-97950495D01*
X40568804Y-97926227D01*
X40574765Y-97902428D01*
X40583030Y-97879329D01*
X40593520Y-97857150D01*
X40606132Y-97836107D01*
X40620747Y-97816401D01*
X40637223Y-97798223D01*
X40655401Y-97781747D01*
X40675107Y-97767132D01*
X40696150Y-97754520D01*
X40718329Y-97744030D01*
X40741428Y-97735765D01*
X40765227Y-97729804D01*
X40789495Y-97726204D01*
X40813999Y-97725000D01*
X41464001Y-97725000D01*
X41488505Y-97726204D01*
X41488505Y-97726204D01*
G37*
D11*
X41139000Y-98425000D03*
D10*
G36*
X47738505Y-97472204D02*
G01*
X47762773Y-97475804D01*
X47786572Y-97481765D01*
X47809671Y-97490030D01*
X47831850Y-97500520D01*
X47852893Y-97513132D01*
X47872599Y-97527747D01*
X47890777Y-97544223D01*
X47907253Y-97562401D01*
X47921868Y-97582107D01*
X47934480Y-97603150D01*
X47944970Y-97625329D01*
X47953235Y-97648428D01*
X47959196Y-97672227D01*
X47962796Y-97696495D01*
X47964000Y-97720999D01*
X47964000Y-98621001D01*
X47962796Y-98645505D01*
X47959196Y-98669773D01*
X47953235Y-98693572D01*
X47944970Y-98716671D01*
X47934480Y-98738850D01*
X47921868Y-98759893D01*
X47907253Y-98779599D01*
X47890777Y-98797777D01*
X47872599Y-98814253D01*
X47852893Y-98828868D01*
X47831850Y-98841480D01*
X47809671Y-98851970D01*
X47786572Y-98860235D01*
X47762773Y-98866196D01*
X47738505Y-98869796D01*
X47714001Y-98871000D01*
X47063999Y-98871000D01*
X47039495Y-98869796D01*
X47015227Y-98866196D01*
X46991428Y-98860235D01*
X46968329Y-98851970D01*
X46946150Y-98841480D01*
X46925107Y-98828868D01*
X46905401Y-98814253D01*
X46887223Y-98797777D01*
X46870747Y-98779599D01*
X46856132Y-98759893D01*
X46843520Y-98738850D01*
X46833030Y-98716671D01*
X46824765Y-98693572D01*
X46818804Y-98669773D01*
X46815204Y-98645505D01*
X46814000Y-98621001D01*
X46814000Y-97720999D01*
X46815204Y-97696495D01*
X46818804Y-97672227D01*
X46824765Y-97648428D01*
X46833030Y-97625329D01*
X46843520Y-97603150D01*
X46856132Y-97582107D01*
X46870747Y-97562401D01*
X46887223Y-97544223D01*
X46905401Y-97527747D01*
X46925107Y-97513132D01*
X46946150Y-97500520D01*
X46968329Y-97490030D01*
X46991428Y-97481765D01*
X47015227Y-97475804D01*
X47039495Y-97472204D01*
X47063999Y-97471000D01*
X47714001Y-97471000D01*
X47738505Y-97472204D01*
X47738505Y-97472204D01*
G37*
D11*
X47389000Y-98171000D03*
D10*
G36*
X45688505Y-97472204D02*
G01*
X45712773Y-97475804D01*
X45736572Y-97481765D01*
X45759671Y-97490030D01*
X45781850Y-97500520D01*
X45802893Y-97513132D01*
X45822599Y-97527747D01*
X45840777Y-97544223D01*
X45857253Y-97562401D01*
X45871868Y-97582107D01*
X45884480Y-97603150D01*
X45894970Y-97625329D01*
X45903235Y-97648428D01*
X45909196Y-97672227D01*
X45912796Y-97696495D01*
X45914000Y-97720999D01*
X45914000Y-98621001D01*
X45912796Y-98645505D01*
X45909196Y-98669773D01*
X45903235Y-98693572D01*
X45894970Y-98716671D01*
X45884480Y-98738850D01*
X45871868Y-98759893D01*
X45857253Y-98779599D01*
X45840777Y-98797777D01*
X45822599Y-98814253D01*
X45802893Y-98828868D01*
X45781850Y-98841480D01*
X45759671Y-98851970D01*
X45736572Y-98860235D01*
X45712773Y-98866196D01*
X45688505Y-98869796D01*
X45664001Y-98871000D01*
X45013999Y-98871000D01*
X44989495Y-98869796D01*
X44965227Y-98866196D01*
X44941428Y-98860235D01*
X44918329Y-98851970D01*
X44896150Y-98841480D01*
X44875107Y-98828868D01*
X44855401Y-98814253D01*
X44837223Y-98797777D01*
X44820747Y-98779599D01*
X44806132Y-98759893D01*
X44793520Y-98738850D01*
X44783030Y-98716671D01*
X44774765Y-98693572D01*
X44768804Y-98669773D01*
X44765204Y-98645505D01*
X44764000Y-98621001D01*
X44764000Y-97720999D01*
X44765204Y-97696495D01*
X44768804Y-97672227D01*
X44774765Y-97648428D01*
X44783030Y-97625329D01*
X44793520Y-97603150D01*
X44806132Y-97582107D01*
X44820747Y-97562401D01*
X44837223Y-97544223D01*
X44855401Y-97527747D01*
X44875107Y-97513132D01*
X44896150Y-97500520D01*
X44918329Y-97490030D01*
X44941428Y-97481765D01*
X44965227Y-97475804D01*
X44989495Y-97472204D01*
X45013999Y-97471000D01*
X45664001Y-97471000D01*
X45688505Y-97472204D01*
X45688505Y-97472204D01*
G37*
D11*
X45339000Y-98171000D03*
D10*
G36*
X45679505Y-99885204D02*
G01*
X45703773Y-99888804D01*
X45727572Y-99894765D01*
X45750671Y-99903030D01*
X45772850Y-99913520D01*
X45793893Y-99926132D01*
X45813599Y-99940747D01*
X45831777Y-99957223D01*
X45848253Y-99975401D01*
X45862868Y-99995107D01*
X45875480Y-100016150D01*
X45885970Y-100038329D01*
X45894235Y-100061428D01*
X45900196Y-100085227D01*
X45903796Y-100109495D01*
X45905000Y-100133999D01*
X45905000Y-101034001D01*
X45903796Y-101058505D01*
X45900196Y-101082773D01*
X45894235Y-101106572D01*
X45885970Y-101129671D01*
X45875480Y-101151850D01*
X45862868Y-101172893D01*
X45848253Y-101192599D01*
X45831777Y-101210777D01*
X45813599Y-101227253D01*
X45793893Y-101241868D01*
X45772850Y-101254480D01*
X45750671Y-101264970D01*
X45727572Y-101273235D01*
X45703773Y-101279196D01*
X45679505Y-101282796D01*
X45655001Y-101284000D01*
X45004999Y-101284000D01*
X44980495Y-101282796D01*
X44956227Y-101279196D01*
X44932428Y-101273235D01*
X44909329Y-101264970D01*
X44887150Y-101254480D01*
X44866107Y-101241868D01*
X44846401Y-101227253D01*
X44828223Y-101210777D01*
X44811747Y-101192599D01*
X44797132Y-101172893D01*
X44784520Y-101151850D01*
X44774030Y-101129671D01*
X44765765Y-101106572D01*
X44759804Y-101082773D01*
X44756204Y-101058505D01*
X44755000Y-101034001D01*
X44755000Y-100133999D01*
X44756204Y-100109495D01*
X44759804Y-100085227D01*
X44765765Y-100061428D01*
X44774030Y-100038329D01*
X44784520Y-100016150D01*
X44797132Y-99995107D01*
X44811747Y-99975401D01*
X44828223Y-99957223D01*
X44846401Y-99940747D01*
X44866107Y-99926132D01*
X44887150Y-99913520D01*
X44909329Y-99903030D01*
X44932428Y-99894765D01*
X44956227Y-99888804D01*
X44980495Y-99885204D01*
X45004999Y-99884000D01*
X45655001Y-99884000D01*
X45679505Y-99885204D01*
X45679505Y-99885204D01*
G37*
D11*
X45330000Y-100584000D03*
D10*
G36*
X47729505Y-99885204D02*
G01*
X47753773Y-99888804D01*
X47777572Y-99894765D01*
X47800671Y-99903030D01*
X47822850Y-99913520D01*
X47843893Y-99926132D01*
X47863599Y-99940747D01*
X47881777Y-99957223D01*
X47898253Y-99975401D01*
X47912868Y-99995107D01*
X47925480Y-100016150D01*
X47935970Y-100038329D01*
X47944235Y-100061428D01*
X47950196Y-100085227D01*
X47953796Y-100109495D01*
X47955000Y-100133999D01*
X47955000Y-101034001D01*
X47953796Y-101058505D01*
X47950196Y-101082773D01*
X47944235Y-101106572D01*
X47935970Y-101129671D01*
X47925480Y-101151850D01*
X47912868Y-101172893D01*
X47898253Y-101192599D01*
X47881777Y-101210777D01*
X47863599Y-101227253D01*
X47843893Y-101241868D01*
X47822850Y-101254480D01*
X47800671Y-101264970D01*
X47777572Y-101273235D01*
X47753773Y-101279196D01*
X47729505Y-101282796D01*
X47705001Y-101284000D01*
X47054999Y-101284000D01*
X47030495Y-101282796D01*
X47006227Y-101279196D01*
X46982428Y-101273235D01*
X46959329Y-101264970D01*
X46937150Y-101254480D01*
X46916107Y-101241868D01*
X46896401Y-101227253D01*
X46878223Y-101210777D01*
X46861747Y-101192599D01*
X46847132Y-101172893D01*
X46834520Y-101151850D01*
X46824030Y-101129671D01*
X46815765Y-101106572D01*
X46809804Y-101082773D01*
X46806204Y-101058505D01*
X46805000Y-101034001D01*
X46805000Y-100133999D01*
X46806204Y-100109495D01*
X46809804Y-100085227D01*
X46815765Y-100061428D01*
X46824030Y-100038329D01*
X46834520Y-100016150D01*
X46847132Y-99995107D01*
X46861747Y-99975401D01*
X46878223Y-99957223D01*
X46896401Y-99940747D01*
X46916107Y-99926132D01*
X46937150Y-99913520D01*
X46959329Y-99903030D01*
X46982428Y-99894765D01*
X47006227Y-99888804D01*
X47030495Y-99885204D01*
X47054999Y-99884000D01*
X47705001Y-99884000D01*
X47729505Y-99885204D01*
X47729505Y-99885204D01*
G37*
D11*
X47380000Y-100584000D03*
D10*
G36*
X47856505Y-102298204D02*
G01*
X47880773Y-102301804D01*
X47904572Y-102307765D01*
X47927671Y-102316030D01*
X47949850Y-102326520D01*
X47970893Y-102339132D01*
X47990599Y-102353747D01*
X48008777Y-102370223D01*
X48025253Y-102388401D01*
X48039868Y-102408107D01*
X48052480Y-102429150D01*
X48062970Y-102451329D01*
X48071235Y-102474428D01*
X48077196Y-102498227D01*
X48080796Y-102522495D01*
X48082000Y-102546999D01*
X48082000Y-103447001D01*
X48080796Y-103471505D01*
X48077196Y-103495773D01*
X48071235Y-103519572D01*
X48062970Y-103542671D01*
X48052480Y-103564850D01*
X48039868Y-103585893D01*
X48025253Y-103605599D01*
X48008777Y-103623777D01*
X47990599Y-103640253D01*
X47970893Y-103654868D01*
X47949850Y-103667480D01*
X47927671Y-103677970D01*
X47904572Y-103686235D01*
X47880773Y-103692196D01*
X47856505Y-103695796D01*
X47832001Y-103697000D01*
X47181999Y-103697000D01*
X47157495Y-103695796D01*
X47133227Y-103692196D01*
X47109428Y-103686235D01*
X47086329Y-103677970D01*
X47064150Y-103667480D01*
X47043107Y-103654868D01*
X47023401Y-103640253D01*
X47005223Y-103623777D01*
X46988747Y-103605599D01*
X46974132Y-103585893D01*
X46961520Y-103564850D01*
X46951030Y-103542671D01*
X46942765Y-103519572D01*
X46936804Y-103495773D01*
X46933204Y-103471505D01*
X46932000Y-103447001D01*
X46932000Y-102546999D01*
X46933204Y-102522495D01*
X46936804Y-102498227D01*
X46942765Y-102474428D01*
X46951030Y-102451329D01*
X46961520Y-102429150D01*
X46974132Y-102408107D01*
X46988747Y-102388401D01*
X47005223Y-102370223D01*
X47023401Y-102353747D01*
X47043107Y-102339132D01*
X47064150Y-102326520D01*
X47086329Y-102316030D01*
X47109428Y-102307765D01*
X47133227Y-102301804D01*
X47157495Y-102298204D01*
X47181999Y-102297000D01*
X47832001Y-102297000D01*
X47856505Y-102298204D01*
X47856505Y-102298204D01*
G37*
D11*
X47507000Y-102997000D03*
D10*
G36*
X45806505Y-102298204D02*
G01*
X45830773Y-102301804D01*
X45854572Y-102307765D01*
X45877671Y-102316030D01*
X45899850Y-102326520D01*
X45920893Y-102339132D01*
X45940599Y-102353747D01*
X45958777Y-102370223D01*
X45975253Y-102388401D01*
X45989868Y-102408107D01*
X46002480Y-102429150D01*
X46012970Y-102451329D01*
X46021235Y-102474428D01*
X46027196Y-102498227D01*
X46030796Y-102522495D01*
X46032000Y-102546999D01*
X46032000Y-103447001D01*
X46030796Y-103471505D01*
X46027196Y-103495773D01*
X46021235Y-103519572D01*
X46012970Y-103542671D01*
X46002480Y-103564850D01*
X45989868Y-103585893D01*
X45975253Y-103605599D01*
X45958777Y-103623777D01*
X45940599Y-103640253D01*
X45920893Y-103654868D01*
X45899850Y-103667480D01*
X45877671Y-103677970D01*
X45854572Y-103686235D01*
X45830773Y-103692196D01*
X45806505Y-103695796D01*
X45782001Y-103697000D01*
X45131999Y-103697000D01*
X45107495Y-103695796D01*
X45083227Y-103692196D01*
X45059428Y-103686235D01*
X45036329Y-103677970D01*
X45014150Y-103667480D01*
X44993107Y-103654868D01*
X44973401Y-103640253D01*
X44955223Y-103623777D01*
X44938747Y-103605599D01*
X44924132Y-103585893D01*
X44911520Y-103564850D01*
X44901030Y-103542671D01*
X44892765Y-103519572D01*
X44886804Y-103495773D01*
X44883204Y-103471505D01*
X44882000Y-103447001D01*
X44882000Y-102546999D01*
X44883204Y-102522495D01*
X44886804Y-102498227D01*
X44892765Y-102474428D01*
X44901030Y-102451329D01*
X44911520Y-102429150D01*
X44924132Y-102408107D01*
X44938747Y-102388401D01*
X44955223Y-102370223D01*
X44973401Y-102353747D01*
X44993107Y-102339132D01*
X45014150Y-102326520D01*
X45036329Y-102316030D01*
X45059428Y-102307765D01*
X45083227Y-102301804D01*
X45107495Y-102298204D01*
X45131999Y-102297000D01*
X45782001Y-102297000D01*
X45806505Y-102298204D01*
X45806505Y-102298204D01*
G37*
D11*
X45457000Y-102997000D03*
D10*
G36*
X41114505Y-112964204D02*
G01*
X41138773Y-112967804D01*
X41162572Y-112973765D01*
X41185671Y-112982030D01*
X41207850Y-112992520D01*
X41228893Y-113005132D01*
X41248599Y-113019747D01*
X41266777Y-113036223D01*
X41283253Y-113054401D01*
X41297868Y-113074107D01*
X41310480Y-113095150D01*
X41320970Y-113117329D01*
X41329235Y-113140428D01*
X41335196Y-113164227D01*
X41338796Y-113188495D01*
X41340000Y-113212999D01*
X41340000Y-113863001D01*
X41338796Y-113887505D01*
X41335196Y-113911773D01*
X41329235Y-113935572D01*
X41320970Y-113958671D01*
X41310480Y-113980850D01*
X41297868Y-114001893D01*
X41283253Y-114021599D01*
X41266777Y-114039777D01*
X41248599Y-114056253D01*
X41228893Y-114070868D01*
X41207850Y-114083480D01*
X41185671Y-114093970D01*
X41162572Y-114102235D01*
X41138773Y-114108196D01*
X41114505Y-114111796D01*
X41090001Y-114113000D01*
X40189999Y-114113000D01*
X40165495Y-114111796D01*
X40141227Y-114108196D01*
X40117428Y-114102235D01*
X40094329Y-114093970D01*
X40072150Y-114083480D01*
X40051107Y-114070868D01*
X40031401Y-114056253D01*
X40013223Y-114039777D01*
X39996747Y-114021599D01*
X39982132Y-114001893D01*
X39969520Y-113980850D01*
X39959030Y-113958671D01*
X39950765Y-113935572D01*
X39944804Y-113911773D01*
X39941204Y-113887505D01*
X39940000Y-113863001D01*
X39940000Y-113212999D01*
X39941204Y-113188495D01*
X39944804Y-113164227D01*
X39950765Y-113140428D01*
X39959030Y-113117329D01*
X39969520Y-113095150D01*
X39982132Y-113074107D01*
X39996747Y-113054401D01*
X40013223Y-113036223D01*
X40031401Y-113019747D01*
X40051107Y-113005132D01*
X40072150Y-112992520D01*
X40094329Y-112982030D01*
X40117428Y-112973765D01*
X40141227Y-112967804D01*
X40165495Y-112964204D01*
X40189999Y-112963000D01*
X41090001Y-112963000D01*
X41114505Y-112964204D01*
X41114505Y-112964204D01*
G37*
D11*
X40640000Y-113538000D03*
D10*
G36*
X41114505Y-115014204D02*
G01*
X41138773Y-115017804D01*
X41162572Y-115023765D01*
X41185671Y-115032030D01*
X41207850Y-115042520D01*
X41228893Y-115055132D01*
X41248599Y-115069747D01*
X41266777Y-115086223D01*
X41283253Y-115104401D01*
X41297868Y-115124107D01*
X41310480Y-115145150D01*
X41320970Y-115167329D01*
X41329235Y-115190428D01*
X41335196Y-115214227D01*
X41338796Y-115238495D01*
X41340000Y-115262999D01*
X41340000Y-115913001D01*
X41338796Y-115937505D01*
X41335196Y-115961773D01*
X41329235Y-115985572D01*
X41320970Y-116008671D01*
X41310480Y-116030850D01*
X41297868Y-116051893D01*
X41283253Y-116071599D01*
X41266777Y-116089777D01*
X41248599Y-116106253D01*
X41228893Y-116120868D01*
X41207850Y-116133480D01*
X41185671Y-116143970D01*
X41162572Y-116152235D01*
X41138773Y-116158196D01*
X41114505Y-116161796D01*
X41090001Y-116163000D01*
X40189999Y-116163000D01*
X40165495Y-116161796D01*
X40141227Y-116158196D01*
X40117428Y-116152235D01*
X40094329Y-116143970D01*
X40072150Y-116133480D01*
X40051107Y-116120868D01*
X40031401Y-116106253D01*
X40013223Y-116089777D01*
X39996747Y-116071599D01*
X39982132Y-116051893D01*
X39969520Y-116030850D01*
X39959030Y-116008671D01*
X39950765Y-115985572D01*
X39944804Y-115961773D01*
X39941204Y-115937505D01*
X39940000Y-115913001D01*
X39940000Y-115262999D01*
X39941204Y-115238495D01*
X39944804Y-115214227D01*
X39950765Y-115190428D01*
X39959030Y-115167329D01*
X39969520Y-115145150D01*
X39982132Y-115124107D01*
X39996747Y-115104401D01*
X40013223Y-115086223D01*
X40031401Y-115069747D01*
X40051107Y-115055132D01*
X40072150Y-115042520D01*
X40094329Y-115032030D01*
X40117428Y-115023765D01*
X40141227Y-115017804D01*
X40165495Y-115014204D01*
X40189999Y-115013000D01*
X41090001Y-115013000D01*
X41114505Y-115014204D01*
X41114505Y-115014204D01*
G37*
D11*
X40640000Y-115588000D03*
D10*
G36*
X56608505Y-114996204D02*
G01*
X56632773Y-114999804D01*
X56656572Y-115005765D01*
X56679671Y-115014030D01*
X56701850Y-115024520D01*
X56722893Y-115037132D01*
X56742599Y-115051747D01*
X56760777Y-115068223D01*
X56777253Y-115086401D01*
X56791868Y-115106107D01*
X56804480Y-115127150D01*
X56814970Y-115149329D01*
X56823235Y-115172428D01*
X56829196Y-115196227D01*
X56832796Y-115220495D01*
X56834000Y-115244999D01*
X56834000Y-115895001D01*
X56832796Y-115919505D01*
X56829196Y-115943773D01*
X56823235Y-115967572D01*
X56814970Y-115990671D01*
X56804480Y-116012850D01*
X56791868Y-116033893D01*
X56777253Y-116053599D01*
X56760777Y-116071777D01*
X56742599Y-116088253D01*
X56722893Y-116102868D01*
X56701850Y-116115480D01*
X56679671Y-116125970D01*
X56656572Y-116134235D01*
X56632773Y-116140196D01*
X56608505Y-116143796D01*
X56584001Y-116145000D01*
X55683999Y-116145000D01*
X55659495Y-116143796D01*
X55635227Y-116140196D01*
X55611428Y-116134235D01*
X55588329Y-116125970D01*
X55566150Y-116115480D01*
X55545107Y-116102868D01*
X55525401Y-116088253D01*
X55507223Y-116071777D01*
X55490747Y-116053599D01*
X55476132Y-116033893D01*
X55463520Y-116012850D01*
X55453030Y-115990671D01*
X55444765Y-115967572D01*
X55438804Y-115943773D01*
X55435204Y-115919505D01*
X55434000Y-115895001D01*
X55434000Y-115244999D01*
X55435204Y-115220495D01*
X55438804Y-115196227D01*
X55444765Y-115172428D01*
X55453030Y-115149329D01*
X55463520Y-115127150D01*
X55476132Y-115106107D01*
X55490747Y-115086401D01*
X55507223Y-115068223D01*
X55525401Y-115051747D01*
X55545107Y-115037132D01*
X55566150Y-115024520D01*
X55588329Y-115014030D01*
X55611428Y-115005765D01*
X55635227Y-114999804D01*
X55659495Y-114996204D01*
X55683999Y-114995000D01*
X56584001Y-114995000D01*
X56608505Y-114996204D01*
X56608505Y-114996204D01*
G37*
D11*
X56134000Y-115570000D03*
D10*
G36*
X56608505Y-117046204D02*
G01*
X56632773Y-117049804D01*
X56656572Y-117055765D01*
X56679671Y-117064030D01*
X56701850Y-117074520D01*
X56722893Y-117087132D01*
X56742599Y-117101747D01*
X56760777Y-117118223D01*
X56777253Y-117136401D01*
X56791868Y-117156107D01*
X56804480Y-117177150D01*
X56814970Y-117199329D01*
X56823235Y-117222428D01*
X56829196Y-117246227D01*
X56832796Y-117270495D01*
X56834000Y-117294999D01*
X56834000Y-117945001D01*
X56832796Y-117969505D01*
X56829196Y-117993773D01*
X56823235Y-118017572D01*
X56814970Y-118040671D01*
X56804480Y-118062850D01*
X56791868Y-118083893D01*
X56777253Y-118103599D01*
X56760777Y-118121777D01*
X56742599Y-118138253D01*
X56722893Y-118152868D01*
X56701850Y-118165480D01*
X56679671Y-118175970D01*
X56656572Y-118184235D01*
X56632773Y-118190196D01*
X56608505Y-118193796D01*
X56584001Y-118195000D01*
X55683999Y-118195000D01*
X55659495Y-118193796D01*
X55635227Y-118190196D01*
X55611428Y-118184235D01*
X55588329Y-118175970D01*
X55566150Y-118165480D01*
X55545107Y-118152868D01*
X55525401Y-118138253D01*
X55507223Y-118121777D01*
X55490747Y-118103599D01*
X55476132Y-118083893D01*
X55463520Y-118062850D01*
X55453030Y-118040671D01*
X55444765Y-118017572D01*
X55438804Y-117993773D01*
X55435204Y-117969505D01*
X55434000Y-117945001D01*
X55434000Y-117294999D01*
X55435204Y-117270495D01*
X55438804Y-117246227D01*
X55444765Y-117222428D01*
X55453030Y-117199329D01*
X55463520Y-117177150D01*
X55476132Y-117156107D01*
X55490747Y-117136401D01*
X55507223Y-117118223D01*
X55525401Y-117101747D01*
X55545107Y-117087132D01*
X55566150Y-117074520D01*
X55588329Y-117064030D01*
X55611428Y-117055765D01*
X55635227Y-117049804D01*
X55659495Y-117046204D01*
X55683999Y-117045000D01*
X56584001Y-117045000D01*
X56608505Y-117046204D01*
X56608505Y-117046204D01*
G37*
D11*
X56134000Y-117620000D03*
D10*
G36*
X71848505Y-117037204D02*
G01*
X71872773Y-117040804D01*
X71896572Y-117046765D01*
X71919671Y-117055030D01*
X71941850Y-117065520D01*
X71962893Y-117078132D01*
X71982599Y-117092747D01*
X72000777Y-117109223D01*
X72017253Y-117127401D01*
X72031868Y-117147107D01*
X72044480Y-117168150D01*
X72054970Y-117190329D01*
X72063235Y-117213428D01*
X72069196Y-117237227D01*
X72072796Y-117261495D01*
X72074000Y-117285999D01*
X72074000Y-117936001D01*
X72072796Y-117960505D01*
X72069196Y-117984773D01*
X72063235Y-118008572D01*
X72054970Y-118031671D01*
X72044480Y-118053850D01*
X72031868Y-118074893D01*
X72017253Y-118094599D01*
X72000777Y-118112777D01*
X71982599Y-118129253D01*
X71962893Y-118143868D01*
X71941850Y-118156480D01*
X71919671Y-118166970D01*
X71896572Y-118175235D01*
X71872773Y-118181196D01*
X71848505Y-118184796D01*
X71824001Y-118186000D01*
X70923999Y-118186000D01*
X70899495Y-118184796D01*
X70875227Y-118181196D01*
X70851428Y-118175235D01*
X70828329Y-118166970D01*
X70806150Y-118156480D01*
X70785107Y-118143868D01*
X70765401Y-118129253D01*
X70747223Y-118112777D01*
X70730747Y-118094599D01*
X70716132Y-118074893D01*
X70703520Y-118053850D01*
X70693030Y-118031671D01*
X70684765Y-118008572D01*
X70678804Y-117984773D01*
X70675204Y-117960505D01*
X70674000Y-117936001D01*
X70674000Y-117285999D01*
X70675204Y-117261495D01*
X70678804Y-117237227D01*
X70684765Y-117213428D01*
X70693030Y-117190329D01*
X70703520Y-117168150D01*
X70716132Y-117147107D01*
X70730747Y-117127401D01*
X70747223Y-117109223D01*
X70765401Y-117092747D01*
X70785107Y-117078132D01*
X70806150Y-117065520D01*
X70828329Y-117055030D01*
X70851428Y-117046765D01*
X70875227Y-117040804D01*
X70899495Y-117037204D01*
X70923999Y-117036000D01*
X71824001Y-117036000D01*
X71848505Y-117037204D01*
X71848505Y-117037204D01*
G37*
D11*
X71374000Y-117611000D03*
D10*
G36*
X71848505Y-114987204D02*
G01*
X71872773Y-114990804D01*
X71896572Y-114996765D01*
X71919671Y-115005030D01*
X71941850Y-115015520D01*
X71962893Y-115028132D01*
X71982599Y-115042747D01*
X72000777Y-115059223D01*
X72017253Y-115077401D01*
X72031868Y-115097107D01*
X72044480Y-115118150D01*
X72054970Y-115140329D01*
X72063235Y-115163428D01*
X72069196Y-115187227D01*
X72072796Y-115211495D01*
X72074000Y-115235999D01*
X72074000Y-115886001D01*
X72072796Y-115910505D01*
X72069196Y-115934773D01*
X72063235Y-115958572D01*
X72054970Y-115981671D01*
X72044480Y-116003850D01*
X72031868Y-116024893D01*
X72017253Y-116044599D01*
X72000777Y-116062777D01*
X71982599Y-116079253D01*
X71962893Y-116093868D01*
X71941850Y-116106480D01*
X71919671Y-116116970D01*
X71896572Y-116125235D01*
X71872773Y-116131196D01*
X71848505Y-116134796D01*
X71824001Y-116136000D01*
X70923999Y-116136000D01*
X70899495Y-116134796D01*
X70875227Y-116131196D01*
X70851428Y-116125235D01*
X70828329Y-116116970D01*
X70806150Y-116106480D01*
X70785107Y-116093868D01*
X70765401Y-116079253D01*
X70747223Y-116062777D01*
X70730747Y-116044599D01*
X70716132Y-116024893D01*
X70703520Y-116003850D01*
X70693030Y-115981671D01*
X70684765Y-115958572D01*
X70678804Y-115934773D01*
X70675204Y-115910505D01*
X70674000Y-115886001D01*
X70674000Y-115235999D01*
X70675204Y-115211495D01*
X70678804Y-115187227D01*
X70684765Y-115163428D01*
X70693030Y-115140329D01*
X70703520Y-115118150D01*
X70716132Y-115097107D01*
X70730747Y-115077401D01*
X70747223Y-115059223D01*
X70765401Y-115042747D01*
X70785107Y-115028132D01*
X70806150Y-115015520D01*
X70828329Y-115005030D01*
X70851428Y-114996765D01*
X70875227Y-114990804D01*
X70899495Y-114987204D01*
X70923999Y-114986000D01*
X71824001Y-114986000D01*
X71848505Y-114987204D01*
X71848505Y-114987204D01*
G37*
D11*
X71374000Y-115561000D03*
D12*
X43307000Y-115571000D03*
X44577000Y-115571000D03*
X45847000Y-115571000D03*
X47117000Y-115571000D03*
D13*
X45212000Y-112776000D03*
D10*
G36*
X43682000Y-110071000D02*
G01*
X46742000Y-110071000D01*
X46742000Y-109576000D01*
X47492000Y-109576000D01*
X47492000Y-112776000D01*
X47987000Y-112776000D01*
X47987000Y-113726000D01*
X47492000Y-113726000D01*
X47492000Y-114106000D01*
X42932000Y-114106000D01*
X42932000Y-113681000D01*
X42437000Y-113681000D01*
X42437000Y-112776000D01*
X42932000Y-112776000D01*
X42932000Y-109576000D01*
X43682000Y-109576000D01*
X43682000Y-110071000D01*
X43682000Y-110071000D01*
G37*
D12*
X58801000Y-115571000D03*
X60071000Y-115571000D03*
X61341000Y-115571000D03*
X62611000Y-115571000D03*
D13*
X60706000Y-112776000D03*
D10*
G36*
X59176000Y-110071000D02*
G01*
X62236000Y-110071000D01*
X62236000Y-109576000D01*
X62986000Y-109576000D01*
X62986000Y-112776000D01*
X63481000Y-112776000D01*
X63481000Y-113726000D01*
X62986000Y-113726000D01*
X62986000Y-114106000D01*
X58426000Y-114106000D01*
X58426000Y-113681000D01*
X57931000Y-113681000D01*
X57931000Y-112776000D01*
X58426000Y-112776000D01*
X58426000Y-109576000D01*
X59176000Y-109576000D01*
X59176000Y-110071000D01*
X59176000Y-110071000D01*
G37*
D12*
X74041000Y-115571000D03*
X75311000Y-115571000D03*
X76581000Y-115571000D03*
X77851000Y-115571000D03*
D13*
X75946000Y-112776000D03*
D10*
G36*
X74416000Y-110071000D02*
G01*
X77476000Y-110071000D01*
X77476000Y-109576000D01*
X78226000Y-109576000D01*
X78226000Y-112776000D01*
X78721000Y-112776000D01*
X78721000Y-113726000D01*
X78226000Y-113726000D01*
X78226000Y-114106000D01*
X73666000Y-114106000D01*
X73666000Y-113681000D01*
X73171000Y-113681000D01*
X73171000Y-112776000D01*
X73666000Y-112776000D01*
X73666000Y-109576000D01*
X74416000Y-109576000D01*
X74416000Y-110071000D01*
X74416000Y-110071000D01*
G37*
G36*
X50258505Y-114978204D02*
G01*
X50282773Y-114981804D01*
X50306572Y-114987765D01*
X50329671Y-114996030D01*
X50351850Y-115006520D01*
X50372893Y-115019132D01*
X50392599Y-115033747D01*
X50410777Y-115050223D01*
X50427253Y-115068401D01*
X50441868Y-115088107D01*
X50454480Y-115109150D01*
X50464970Y-115131329D01*
X50473235Y-115154428D01*
X50479196Y-115178227D01*
X50482796Y-115202495D01*
X50484000Y-115226999D01*
X50484000Y-115877001D01*
X50482796Y-115901505D01*
X50479196Y-115925773D01*
X50473235Y-115949572D01*
X50464970Y-115972671D01*
X50454480Y-115994850D01*
X50441868Y-116015893D01*
X50427253Y-116035599D01*
X50410777Y-116053777D01*
X50392599Y-116070253D01*
X50372893Y-116084868D01*
X50351850Y-116097480D01*
X50329671Y-116107970D01*
X50306572Y-116116235D01*
X50282773Y-116122196D01*
X50258505Y-116125796D01*
X50234001Y-116127000D01*
X49333999Y-116127000D01*
X49309495Y-116125796D01*
X49285227Y-116122196D01*
X49261428Y-116116235D01*
X49238329Y-116107970D01*
X49216150Y-116097480D01*
X49195107Y-116084868D01*
X49175401Y-116070253D01*
X49157223Y-116053777D01*
X49140747Y-116035599D01*
X49126132Y-116015893D01*
X49113520Y-115994850D01*
X49103030Y-115972671D01*
X49094765Y-115949572D01*
X49088804Y-115925773D01*
X49085204Y-115901505D01*
X49084000Y-115877001D01*
X49084000Y-115226999D01*
X49085204Y-115202495D01*
X49088804Y-115178227D01*
X49094765Y-115154428D01*
X49103030Y-115131329D01*
X49113520Y-115109150D01*
X49126132Y-115088107D01*
X49140747Y-115068401D01*
X49157223Y-115050223D01*
X49175401Y-115033747D01*
X49195107Y-115019132D01*
X49216150Y-115006520D01*
X49238329Y-114996030D01*
X49261428Y-114987765D01*
X49285227Y-114981804D01*
X49309495Y-114978204D01*
X49333999Y-114977000D01*
X50234001Y-114977000D01*
X50258505Y-114978204D01*
X50258505Y-114978204D01*
G37*
D11*
X49784000Y-115552000D03*
D10*
G36*
X50258505Y-117028204D02*
G01*
X50282773Y-117031804D01*
X50306572Y-117037765D01*
X50329671Y-117046030D01*
X50351850Y-117056520D01*
X50372893Y-117069132D01*
X50392599Y-117083747D01*
X50410777Y-117100223D01*
X50427253Y-117118401D01*
X50441868Y-117138107D01*
X50454480Y-117159150D01*
X50464970Y-117181329D01*
X50473235Y-117204428D01*
X50479196Y-117228227D01*
X50482796Y-117252495D01*
X50484000Y-117276999D01*
X50484000Y-117927001D01*
X50482796Y-117951505D01*
X50479196Y-117975773D01*
X50473235Y-117999572D01*
X50464970Y-118022671D01*
X50454480Y-118044850D01*
X50441868Y-118065893D01*
X50427253Y-118085599D01*
X50410777Y-118103777D01*
X50392599Y-118120253D01*
X50372893Y-118134868D01*
X50351850Y-118147480D01*
X50329671Y-118157970D01*
X50306572Y-118166235D01*
X50282773Y-118172196D01*
X50258505Y-118175796D01*
X50234001Y-118177000D01*
X49333999Y-118177000D01*
X49309495Y-118175796D01*
X49285227Y-118172196D01*
X49261428Y-118166235D01*
X49238329Y-118157970D01*
X49216150Y-118147480D01*
X49195107Y-118134868D01*
X49175401Y-118120253D01*
X49157223Y-118103777D01*
X49140747Y-118085599D01*
X49126132Y-118065893D01*
X49113520Y-118044850D01*
X49103030Y-118022671D01*
X49094765Y-117999572D01*
X49088804Y-117975773D01*
X49085204Y-117951505D01*
X49084000Y-117927001D01*
X49084000Y-117276999D01*
X49085204Y-117252495D01*
X49088804Y-117228227D01*
X49094765Y-117204428D01*
X49103030Y-117181329D01*
X49113520Y-117159150D01*
X49126132Y-117138107D01*
X49140747Y-117118401D01*
X49157223Y-117100223D01*
X49175401Y-117083747D01*
X49195107Y-117069132D01*
X49216150Y-117056520D01*
X49238329Y-117046030D01*
X49261428Y-117037765D01*
X49285227Y-117031804D01*
X49309495Y-117028204D01*
X49333999Y-117027000D01*
X50234001Y-117027000D01*
X50258505Y-117028204D01*
X50258505Y-117028204D01*
G37*
D11*
X49784000Y-117602000D03*
D10*
G36*
X65752505Y-114987204D02*
G01*
X65776773Y-114990804D01*
X65800572Y-114996765D01*
X65823671Y-115005030D01*
X65845850Y-115015520D01*
X65866893Y-115028132D01*
X65886599Y-115042747D01*
X65904777Y-115059223D01*
X65921253Y-115077401D01*
X65935868Y-115097107D01*
X65948480Y-115118150D01*
X65958970Y-115140329D01*
X65967235Y-115163428D01*
X65973196Y-115187227D01*
X65976796Y-115211495D01*
X65978000Y-115235999D01*
X65978000Y-115886001D01*
X65976796Y-115910505D01*
X65973196Y-115934773D01*
X65967235Y-115958572D01*
X65958970Y-115981671D01*
X65948480Y-116003850D01*
X65935868Y-116024893D01*
X65921253Y-116044599D01*
X65904777Y-116062777D01*
X65886599Y-116079253D01*
X65866893Y-116093868D01*
X65845850Y-116106480D01*
X65823671Y-116116970D01*
X65800572Y-116125235D01*
X65776773Y-116131196D01*
X65752505Y-116134796D01*
X65728001Y-116136000D01*
X64827999Y-116136000D01*
X64803495Y-116134796D01*
X64779227Y-116131196D01*
X64755428Y-116125235D01*
X64732329Y-116116970D01*
X64710150Y-116106480D01*
X64689107Y-116093868D01*
X64669401Y-116079253D01*
X64651223Y-116062777D01*
X64634747Y-116044599D01*
X64620132Y-116024893D01*
X64607520Y-116003850D01*
X64597030Y-115981671D01*
X64588765Y-115958572D01*
X64582804Y-115934773D01*
X64579204Y-115910505D01*
X64578000Y-115886001D01*
X64578000Y-115235999D01*
X64579204Y-115211495D01*
X64582804Y-115187227D01*
X64588765Y-115163428D01*
X64597030Y-115140329D01*
X64607520Y-115118150D01*
X64620132Y-115097107D01*
X64634747Y-115077401D01*
X64651223Y-115059223D01*
X64669401Y-115042747D01*
X64689107Y-115028132D01*
X64710150Y-115015520D01*
X64732329Y-115005030D01*
X64755428Y-114996765D01*
X64779227Y-114990804D01*
X64803495Y-114987204D01*
X64827999Y-114986000D01*
X65728001Y-114986000D01*
X65752505Y-114987204D01*
X65752505Y-114987204D01*
G37*
D11*
X65278000Y-115561000D03*
D10*
G36*
X65752505Y-117037204D02*
G01*
X65776773Y-117040804D01*
X65800572Y-117046765D01*
X65823671Y-117055030D01*
X65845850Y-117065520D01*
X65866893Y-117078132D01*
X65886599Y-117092747D01*
X65904777Y-117109223D01*
X65921253Y-117127401D01*
X65935868Y-117147107D01*
X65948480Y-117168150D01*
X65958970Y-117190329D01*
X65967235Y-117213428D01*
X65973196Y-117237227D01*
X65976796Y-117261495D01*
X65978000Y-117285999D01*
X65978000Y-117936001D01*
X65976796Y-117960505D01*
X65973196Y-117984773D01*
X65967235Y-118008572D01*
X65958970Y-118031671D01*
X65948480Y-118053850D01*
X65935868Y-118074893D01*
X65921253Y-118094599D01*
X65904777Y-118112777D01*
X65886599Y-118129253D01*
X65866893Y-118143868D01*
X65845850Y-118156480D01*
X65823671Y-118166970D01*
X65800572Y-118175235D01*
X65776773Y-118181196D01*
X65752505Y-118184796D01*
X65728001Y-118186000D01*
X64827999Y-118186000D01*
X64803495Y-118184796D01*
X64779227Y-118181196D01*
X64755428Y-118175235D01*
X64732329Y-118166970D01*
X64710150Y-118156480D01*
X64689107Y-118143868D01*
X64669401Y-118129253D01*
X64651223Y-118112777D01*
X64634747Y-118094599D01*
X64620132Y-118074893D01*
X64607520Y-118053850D01*
X64597030Y-118031671D01*
X64588765Y-118008572D01*
X64582804Y-117984773D01*
X64579204Y-117960505D01*
X64578000Y-117936001D01*
X64578000Y-117285999D01*
X64579204Y-117261495D01*
X64582804Y-117237227D01*
X64588765Y-117213428D01*
X64597030Y-117190329D01*
X64607520Y-117168150D01*
X64620132Y-117147107D01*
X64634747Y-117127401D01*
X64651223Y-117109223D01*
X64669401Y-117092747D01*
X64689107Y-117078132D01*
X64710150Y-117065520D01*
X64732329Y-117055030D01*
X64755428Y-117046765D01*
X64779227Y-117040804D01*
X64803495Y-117037204D01*
X64827999Y-117036000D01*
X65728001Y-117036000D01*
X65752505Y-117037204D01*
X65752505Y-117037204D01*
G37*
D11*
X65278000Y-117611000D03*
D10*
G36*
X80992505Y-115014204D02*
G01*
X81016773Y-115017804D01*
X81040572Y-115023765D01*
X81063671Y-115032030D01*
X81085850Y-115042520D01*
X81106893Y-115055132D01*
X81126599Y-115069747D01*
X81144777Y-115086223D01*
X81161253Y-115104401D01*
X81175868Y-115124107D01*
X81188480Y-115145150D01*
X81198970Y-115167329D01*
X81207235Y-115190428D01*
X81213196Y-115214227D01*
X81216796Y-115238495D01*
X81218000Y-115262999D01*
X81218000Y-115913001D01*
X81216796Y-115937505D01*
X81213196Y-115961773D01*
X81207235Y-115985572D01*
X81198970Y-116008671D01*
X81188480Y-116030850D01*
X81175868Y-116051893D01*
X81161253Y-116071599D01*
X81144777Y-116089777D01*
X81126599Y-116106253D01*
X81106893Y-116120868D01*
X81085850Y-116133480D01*
X81063671Y-116143970D01*
X81040572Y-116152235D01*
X81016773Y-116158196D01*
X80992505Y-116161796D01*
X80968001Y-116163000D01*
X80067999Y-116163000D01*
X80043495Y-116161796D01*
X80019227Y-116158196D01*
X79995428Y-116152235D01*
X79972329Y-116143970D01*
X79950150Y-116133480D01*
X79929107Y-116120868D01*
X79909401Y-116106253D01*
X79891223Y-116089777D01*
X79874747Y-116071599D01*
X79860132Y-116051893D01*
X79847520Y-116030850D01*
X79837030Y-116008671D01*
X79828765Y-115985572D01*
X79822804Y-115961773D01*
X79819204Y-115937505D01*
X79818000Y-115913001D01*
X79818000Y-115262999D01*
X79819204Y-115238495D01*
X79822804Y-115214227D01*
X79828765Y-115190428D01*
X79837030Y-115167329D01*
X79847520Y-115145150D01*
X79860132Y-115124107D01*
X79874747Y-115104401D01*
X79891223Y-115086223D01*
X79909401Y-115069747D01*
X79929107Y-115055132D01*
X79950150Y-115042520D01*
X79972329Y-115032030D01*
X79995428Y-115023765D01*
X80019227Y-115017804D01*
X80043495Y-115014204D01*
X80067999Y-115013000D01*
X80968001Y-115013000D01*
X80992505Y-115014204D01*
X80992505Y-115014204D01*
G37*
D11*
X80518000Y-115588000D03*
D10*
G36*
X80992505Y-112964204D02*
G01*
X81016773Y-112967804D01*
X81040572Y-112973765D01*
X81063671Y-112982030D01*
X81085850Y-112992520D01*
X81106893Y-113005132D01*
X81126599Y-113019747D01*
X81144777Y-113036223D01*
X81161253Y-113054401D01*
X81175868Y-113074107D01*
X81188480Y-113095150D01*
X81198970Y-113117329D01*
X81207235Y-113140428D01*
X81213196Y-113164227D01*
X81216796Y-113188495D01*
X81218000Y-113212999D01*
X81218000Y-113863001D01*
X81216796Y-113887505D01*
X81213196Y-113911773D01*
X81207235Y-113935572D01*
X81198970Y-113958671D01*
X81188480Y-113980850D01*
X81175868Y-114001893D01*
X81161253Y-114021599D01*
X81144777Y-114039777D01*
X81126599Y-114056253D01*
X81106893Y-114070868D01*
X81085850Y-114083480D01*
X81063671Y-114093970D01*
X81040572Y-114102235D01*
X81016773Y-114108196D01*
X80992505Y-114111796D01*
X80968001Y-114113000D01*
X80067999Y-114113000D01*
X80043495Y-114111796D01*
X80019227Y-114108196D01*
X79995428Y-114102235D01*
X79972329Y-114093970D01*
X79950150Y-114083480D01*
X79929107Y-114070868D01*
X79909401Y-114056253D01*
X79891223Y-114039777D01*
X79874747Y-114021599D01*
X79860132Y-114001893D01*
X79847520Y-113980850D01*
X79837030Y-113958671D01*
X79828765Y-113935572D01*
X79822804Y-113911773D01*
X79819204Y-113887505D01*
X79818000Y-113863001D01*
X79818000Y-113212999D01*
X79819204Y-113188495D01*
X79822804Y-113164227D01*
X79828765Y-113140428D01*
X79837030Y-113117329D01*
X79847520Y-113095150D01*
X79860132Y-113074107D01*
X79874747Y-113054401D01*
X79891223Y-113036223D01*
X79909401Y-113019747D01*
X79929107Y-113005132D01*
X79950150Y-112992520D01*
X79972329Y-112982030D01*
X79995428Y-112973765D01*
X80019227Y-112967804D01*
X80043495Y-112964204D01*
X80067999Y-112963000D01*
X80968001Y-112963000D01*
X80992505Y-112964204D01*
X80992505Y-112964204D01*
G37*
D11*
X80518000Y-113538000D03*
D14*
X62865000Y-91313000D03*
X66548000Y-91313000D03*
X70231000Y-91313000D03*
X51816000Y-91313000D03*
X55499000Y-91313000D03*
X59182000Y-91313000D03*
X51816000Y-87757000D03*
X62865000Y-87630000D03*
X70231000Y-87757000D03*
X66548000Y-87630000D03*
X55499000Y-87757000D03*
D15*
X62890000Y-99324000D03*
X62240000Y-99324000D03*
X61590000Y-99324000D03*
X60940000Y-99324000D03*
X60290000Y-99324000D03*
X59640000Y-99324000D03*
X58990000Y-99324000D03*
X58340000Y-99324000D03*
X57690000Y-99324000D03*
X57040000Y-99324000D03*
X57040000Y-105124000D03*
X57690000Y-105124000D03*
X58340000Y-105124000D03*
X58990000Y-105124000D03*
X59640000Y-105124000D03*
X60290000Y-105124000D03*
X60940000Y-105124000D03*
X61590000Y-105124000D03*
X62240000Y-105124000D03*
X62890000Y-105124000D03*
D10*
G36*
X41114505Y-110950204D02*
G01*
X41138773Y-110953804D01*
X41162572Y-110959765D01*
X41185671Y-110968030D01*
X41207850Y-110978520D01*
X41228893Y-110991132D01*
X41248599Y-111005747D01*
X41266777Y-111022223D01*
X41283253Y-111040401D01*
X41297868Y-111060107D01*
X41310480Y-111081150D01*
X41320970Y-111103329D01*
X41329235Y-111126428D01*
X41335196Y-111150227D01*
X41338796Y-111174495D01*
X41340000Y-111198999D01*
X41340000Y-111849001D01*
X41338796Y-111873505D01*
X41335196Y-111897773D01*
X41329235Y-111921572D01*
X41320970Y-111944671D01*
X41310480Y-111966850D01*
X41297868Y-111987893D01*
X41283253Y-112007599D01*
X41266777Y-112025777D01*
X41248599Y-112042253D01*
X41228893Y-112056868D01*
X41207850Y-112069480D01*
X41185671Y-112079970D01*
X41162572Y-112088235D01*
X41138773Y-112094196D01*
X41114505Y-112097796D01*
X41090001Y-112099000D01*
X40189999Y-112099000D01*
X40165495Y-112097796D01*
X40141227Y-112094196D01*
X40117428Y-112088235D01*
X40094329Y-112079970D01*
X40072150Y-112069480D01*
X40051107Y-112056868D01*
X40031401Y-112042253D01*
X40013223Y-112025777D01*
X39996747Y-112007599D01*
X39982132Y-111987893D01*
X39969520Y-111966850D01*
X39959030Y-111944671D01*
X39950765Y-111921572D01*
X39944804Y-111897773D01*
X39941204Y-111873505D01*
X39940000Y-111849001D01*
X39940000Y-111198999D01*
X39941204Y-111174495D01*
X39944804Y-111150227D01*
X39950765Y-111126428D01*
X39959030Y-111103329D01*
X39969520Y-111081150D01*
X39982132Y-111060107D01*
X39996747Y-111040401D01*
X40013223Y-111022223D01*
X40031401Y-111005747D01*
X40051107Y-110991132D01*
X40072150Y-110978520D01*
X40094329Y-110968030D01*
X40117428Y-110959765D01*
X40141227Y-110953804D01*
X40165495Y-110950204D01*
X40189999Y-110949000D01*
X41090001Y-110949000D01*
X41114505Y-110950204D01*
X41114505Y-110950204D01*
G37*
D11*
X40640000Y-111524000D03*
D10*
G36*
X41114505Y-108900204D02*
G01*
X41138773Y-108903804D01*
X41162572Y-108909765D01*
X41185671Y-108918030D01*
X41207850Y-108928520D01*
X41228893Y-108941132D01*
X41248599Y-108955747D01*
X41266777Y-108972223D01*
X41283253Y-108990401D01*
X41297868Y-109010107D01*
X41310480Y-109031150D01*
X41320970Y-109053329D01*
X41329235Y-109076428D01*
X41335196Y-109100227D01*
X41338796Y-109124495D01*
X41340000Y-109148999D01*
X41340000Y-109799001D01*
X41338796Y-109823505D01*
X41335196Y-109847773D01*
X41329235Y-109871572D01*
X41320970Y-109894671D01*
X41310480Y-109916850D01*
X41297868Y-109937893D01*
X41283253Y-109957599D01*
X41266777Y-109975777D01*
X41248599Y-109992253D01*
X41228893Y-110006868D01*
X41207850Y-110019480D01*
X41185671Y-110029970D01*
X41162572Y-110038235D01*
X41138773Y-110044196D01*
X41114505Y-110047796D01*
X41090001Y-110049000D01*
X40189999Y-110049000D01*
X40165495Y-110047796D01*
X40141227Y-110044196D01*
X40117428Y-110038235D01*
X40094329Y-110029970D01*
X40072150Y-110019480D01*
X40051107Y-110006868D01*
X40031401Y-109992253D01*
X40013223Y-109975777D01*
X39996747Y-109957599D01*
X39982132Y-109937893D01*
X39969520Y-109916850D01*
X39959030Y-109894671D01*
X39950765Y-109871572D01*
X39944804Y-109847773D01*
X39941204Y-109823505D01*
X39940000Y-109799001D01*
X39940000Y-109148999D01*
X39941204Y-109124495D01*
X39944804Y-109100227D01*
X39950765Y-109076428D01*
X39959030Y-109053329D01*
X39969520Y-109031150D01*
X39982132Y-109010107D01*
X39996747Y-108990401D01*
X40013223Y-108972223D01*
X40031401Y-108955747D01*
X40051107Y-108941132D01*
X40072150Y-108928520D01*
X40094329Y-108918030D01*
X40117428Y-108909765D01*
X40141227Y-108903804D01*
X40165495Y-108900204D01*
X40189999Y-108899000D01*
X41090001Y-108899000D01*
X41114505Y-108900204D01*
X41114505Y-108900204D01*
G37*
D11*
X40640000Y-109474000D03*
D10*
G36*
X54322505Y-117046204D02*
G01*
X54346773Y-117049804D01*
X54370572Y-117055765D01*
X54393671Y-117064030D01*
X54415850Y-117074520D01*
X54436893Y-117087132D01*
X54456599Y-117101747D01*
X54474777Y-117118223D01*
X54491253Y-117136401D01*
X54505868Y-117156107D01*
X54518480Y-117177150D01*
X54528970Y-117199329D01*
X54537235Y-117222428D01*
X54543196Y-117246227D01*
X54546796Y-117270495D01*
X54548000Y-117294999D01*
X54548000Y-117945001D01*
X54546796Y-117969505D01*
X54543196Y-117993773D01*
X54537235Y-118017572D01*
X54528970Y-118040671D01*
X54518480Y-118062850D01*
X54505868Y-118083893D01*
X54491253Y-118103599D01*
X54474777Y-118121777D01*
X54456599Y-118138253D01*
X54436893Y-118152868D01*
X54415850Y-118165480D01*
X54393671Y-118175970D01*
X54370572Y-118184235D01*
X54346773Y-118190196D01*
X54322505Y-118193796D01*
X54298001Y-118195000D01*
X53397999Y-118195000D01*
X53373495Y-118193796D01*
X53349227Y-118190196D01*
X53325428Y-118184235D01*
X53302329Y-118175970D01*
X53280150Y-118165480D01*
X53259107Y-118152868D01*
X53239401Y-118138253D01*
X53221223Y-118121777D01*
X53204747Y-118103599D01*
X53190132Y-118083893D01*
X53177520Y-118062850D01*
X53167030Y-118040671D01*
X53158765Y-118017572D01*
X53152804Y-117993773D01*
X53149204Y-117969505D01*
X53148000Y-117945001D01*
X53148000Y-117294999D01*
X53149204Y-117270495D01*
X53152804Y-117246227D01*
X53158765Y-117222428D01*
X53167030Y-117199329D01*
X53177520Y-117177150D01*
X53190132Y-117156107D01*
X53204747Y-117136401D01*
X53221223Y-117118223D01*
X53239401Y-117101747D01*
X53259107Y-117087132D01*
X53280150Y-117074520D01*
X53302329Y-117064030D01*
X53325428Y-117055765D01*
X53349227Y-117049804D01*
X53373495Y-117046204D01*
X53397999Y-117045000D01*
X54298001Y-117045000D01*
X54322505Y-117046204D01*
X54322505Y-117046204D01*
G37*
D11*
X53848000Y-117620000D03*
D10*
G36*
X54322505Y-114996204D02*
G01*
X54346773Y-114999804D01*
X54370572Y-115005765D01*
X54393671Y-115014030D01*
X54415850Y-115024520D01*
X54436893Y-115037132D01*
X54456599Y-115051747D01*
X54474777Y-115068223D01*
X54491253Y-115086401D01*
X54505868Y-115106107D01*
X54518480Y-115127150D01*
X54528970Y-115149329D01*
X54537235Y-115172428D01*
X54543196Y-115196227D01*
X54546796Y-115220495D01*
X54548000Y-115244999D01*
X54548000Y-115895001D01*
X54546796Y-115919505D01*
X54543196Y-115943773D01*
X54537235Y-115967572D01*
X54528970Y-115990671D01*
X54518480Y-116012850D01*
X54505868Y-116033893D01*
X54491253Y-116053599D01*
X54474777Y-116071777D01*
X54456599Y-116088253D01*
X54436893Y-116102868D01*
X54415850Y-116115480D01*
X54393671Y-116125970D01*
X54370572Y-116134235D01*
X54346773Y-116140196D01*
X54322505Y-116143796D01*
X54298001Y-116145000D01*
X53397999Y-116145000D01*
X53373495Y-116143796D01*
X53349227Y-116140196D01*
X53325428Y-116134235D01*
X53302329Y-116125970D01*
X53280150Y-116115480D01*
X53259107Y-116102868D01*
X53239401Y-116088253D01*
X53221223Y-116071777D01*
X53204747Y-116053599D01*
X53190132Y-116033893D01*
X53177520Y-116012850D01*
X53167030Y-115990671D01*
X53158765Y-115967572D01*
X53152804Y-115943773D01*
X53149204Y-115919505D01*
X53148000Y-115895001D01*
X53148000Y-115244999D01*
X53149204Y-115220495D01*
X53152804Y-115196227D01*
X53158765Y-115172428D01*
X53167030Y-115149329D01*
X53177520Y-115127150D01*
X53190132Y-115106107D01*
X53204747Y-115086401D01*
X53221223Y-115068223D01*
X53239401Y-115051747D01*
X53259107Y-115037132D01*
X53280150Y-115024520D01*
X53302329Y-115014030D01*
X53325428Y-115005765D01*
X53349227Y-114999804D01*
X53373495Y-114996204D01*
X53397999Y-114995000D01*
X54298001Y-114995000D01*
X54322505Y-114996204D01*
X54322505Y-114996204D01*
G37*
D11*
X53848000Y-115570000D03*
D10*
G36*
X69562505Y-114996204D02*
G01*
X69586773Y-114999804D01*
X69610572Y-115005765D01*
X69633671Y-115014030D01*
X69655850Y-115024520D01*
X69676893Y-115037132D01*
X69696599Y-115051747D01*
X69714777Y-115068223D01*
X69731253Y-115086401D01*
X69745868Y-115106107D01*
X69758480Y-115127150D01*
X69768970Y-115149329D01*
X69777235Y-115172428D01*
X69783196Y-115196227D01*
X69786796Y-115220495D01*
X69788000Y-115244999D01*
X69788000Y-115895001D01*
X69786796Y-115919505D01*
X69783196Y-115943773D01*
X69777235Y-115967572D01*
X69768970Y-115990671D01*
X69758480Y-116012850D01*
X69745868Y-116033893D01*
X69731253Y-116053599D01*
X69714777Y-116071777D01*
X69696599Y-116088253D01*
X69676893Y-116102868D01*
X69655850Y-116115480D01*
X69633671Y-116125970D01*
X69610572Y-116134235D01*
X69586773Y-116140196D01*
X69562505Y-116143796D01*
X69538001Y-116145000D01*
X68637999Y-116145000D01*
X68613495Y-116143796D01*
X68589227Y-116140196D01*
X68565428Y-116134235D01*
X68542329Y-116125970D01*
X68520150Y-116115480D01*
X68499107Y-116102868D01*
X68479401Y-116088253D01*
X68461223Y-116071777D01*
X68444747Y-116053599D01*
X68430132Y-116033893D01*
X68417520Y-116012850D01*
X68407030Y-115990671D01*
X68398765Y-115967572D01*
X68392804Y-115943773D01*
X68389204Y-115919505D01*
X68388000Y-115895001D01*
X68388000Y-115244999D01*
X68389204Y-115220495D01*
X68392804Y-115196227D01*
X68398765Y-115172428D01*
X68407030Y-115149329D01*
X68417520Y-115127150D01*
X68430132Y-115106107D01*
X68444747Y-115086401D01*
X68461223Y-115068223D01*
X68479401Y-115051747D01*
X68499107Y-115037132D01*
X68520150Y-115024520D01*
X68542329Y-115014030D01*
X68565428Y-115005765D01*
X68589227Y-114999804D01*
X68613495Y-114996204D01*
X68637999Y-114995000D01*
X69538001Y-114995000D01*
X69562505Y-114996204D01*
X69562505Y-114996204D01*
G37*
D11*
X69088000Y-115570000D03*
D10*
G36*
X69562505Y-117046204D02*
G01*
X69586773Y-117049804D01*
X69610572Y-117055765D01*
X69633671Y-117064030D01*
X69655850Y-117074520D01*
X69676893Y-117087132D01*
X69696599Y-117101747D01*
X69714777Y-117118223D01*
X69731253Y-117136401D01*
X69745868Y-117156107D01*
X69758480Y-117177150D01*
X69768970Y-117199329D01*
X69777235Y-117222428D01*
X69783196Y-117246227D01*
X69786796Y-117270495D01*
X69788000Y-117294999D01*
X69788000Y-117945001D01*
X69786796Y-117969505D01*
X69783196Y-117993773D01*
X69777235Y-118017572D01*
X69768970Y-118040671D01*
X69758480Y-118062850D01*
X69745868Y-118083893D01*
X69731253Y-118103599D01*
X69714777Y-118121777D01*
X69696599Y-118138253D01*
X69676893Y-118152868D01*
X69655850Y-118165480D01*
X69633671Y-118175970D01*
X69610572Y-118184235D01*
X69586773Y-118190196D01*
X69562505Y-118193796D01*
X69538001Y-118195000D01*
X68637999Y-118195000D01*
X68613495Y-118193796D01*
X68589227Y-118190196D01*
X68565428Y-118184235D01*
X68542329Y-118175970D01*
X68520150Y-118165480D01*
X68499107Y-118152868D01*
X68479401Y-118138253D01*
X68461223Y-118121777D01*
X68444747Y-118103599D01*
X68430132Y-118083893D01*
X68417520Y-118062850D01*
X68407030Y-118040671D01*
X68398765Y-118017572D01*
X68392804Y-117993773D01*
X68389204Y-117969505D01*
X68388000Y-117945001D01*
X68388000Y-117294999D01*
X68389204Y-117270495D01*
X68392804Y-117246227D01*
X68398765Y-117222428D01*
X68407030Y-117199329D01*
X68417520Y-117177150D01*
X68430132Y-117156107D01*
X68444747Y-117136401D01*
X68461223Y-117118223D01*
X68479401Y-117101747D01*
X68499107Y-117087132D01*
X68520150Y-117074520D01*
X68542329Y-117064030D01*
X68565428Y-117055765D01*
X68589227Y-117049804D01*
X68613495Y-117046204D01*
X68637999Y-117045000D01*
X69538001Y-117045000D01*
X69562505Y-117046204D01*
X69562505Y-117046204D01*
G37*
D11*
X69088000Y-117620000D03*
D16*
X51181000Y-105283000D03*
X44577000Y-105283000D03*
X46736000Y-105283000D03*
X39497000Y-106553000D03*
X41910000Y-108321000D03*
X53467000Y-109855000D03*
X57085442Y-108012442D03*
X46736000Y-107696000D03*
X57658000Y-109474000D03*
X57785000Y-117856000D03*
X56388000Y-109347000D03*
X56261000Y-114159000D03*
X60325000Y-103124000D03*
X70993000Y-109601000D03*
X71247000Y-114300000D03*
X70231000Y-107442000D03*
X68580000Y-102616000D03*
X64770000Y-107428000D03*
X67437000Y-117729000D03*
X52197000Y-109728000D03*
X54483000Y-109869000D03*
X51943000Y-117729000D03*
X69215000Y-108204000D03*
X68834000Y-114173000D03*
X66675000Y-114159000D03*
X67183000Y-108077000D03*
X67437000Y-118491000D03*
X59241442Y-103056442D03*
D17*
X44704000Y-117094000D03*
X44704000Y-118237000D03*
X44704000Y-119380000D03*
X44704000Y-120396000D03*
X44704000Y-121539000D03*
X60071000Y-120142000D03*
X60071000Y-119126000D03*
X60071000Y-117983000D03*
X60071000Y-116840000D03*
X60071000Y-121285000D03*
X75438000Y-120142000D03*
X75438000Y-119126000D03*
X75438000Y-117983000D03*
X75438000Y-116840000D03*
X75438000Y-121285000D03*
D16*
X73152000Y-101092000D03*
X78613000Y-104521000D03*
X82042000Y-113538000D03*
D18*
X75311000Y-116586000D02*
X75311000Y-117348000D01*
X60071000Y-116586000D02*
X60071000Y-117602000D01*
X44577000Y-116713000D02*
X44577000Y-117602000D01*
D19*
X51181000Y-103261588D02*
X51181000Y-105283000D01*
X56393598Y-98048990D02*
X51181000Y-103261588D01*
X58340000Y-98574000D02*
X57814990Y-98048990D01*
X57814990Y-98048990D02*
X56393598Y-98048990D01*
X58340000Y-99324000D02*
X58340000Y-98574000D01*
D20*
X43198000Y-98416000D02*
X43189000Y-98425000D01*
X43198000Y-95885000D02*
X43198000Y-98416000D01*
X43189000Y-98425000D02*
X43189000Y-100965000D01*
X43189000Y-100965000D02*
X43189000Y-103378000D01*
X43189000Y-105909000D02*
X43180000Y-105918000D01*
X43189000Y-103378000D02*
X43189000Y-105909000D01*
X43180000Y-105918000D02*
X43942000Y-105918000D01*
X43942000Y-105918000D02*
X44577000Y-105283000D01*
X47507000Y-100711000D02*
X47380000Y-100584000D01*
X47507000Y-102997000D02*
X47507000Y-100711000D01*
X47389000Y-100575000D02*
X47380000Y-100584000D01*
X47389000Y-98171000D02*
X47389000Y-100575000D01*
X47389000Y-95885000D02*
X47389000Y-98171000D01*
X47507000Y-104512000D02*
X46736000Y-105283000D01*
X47507000Y-102997000D02*
X47507000Y-104512000D01*
X45212000Y-112776000D02*
X47592000Y-112776000D01*
X60706000Y-112776000D02*
X63086000Y-112776000D01*
X56729000Y-112014000D02*
X57277000Y-112014000D01*
X53848000Y-114895000D02*
X56729000Y-112014000D01*
X53848000Y-115570000D02*
X53848000Y-114895000D01*
D18*
X47498000Y-112014000D02*
X57277000Y-112014000D01*
X57277000Y-112014000D02*
X60612000Y-112014000D01*
D20*
X41910000Y-109474000D02*
X40640000Y-109474000D01*
X45212000Y-112776000D02*
X41910000Y-109474000D01*
D19*
X47498000Y-106308178D02*
X47498000Y-112014000D01*
X56207197Y-97598981D02*
X47498000Y-106308178D01*
X58001390Y-97598980D02*
X56207197Y-97598981D01*
X58990000Y-98587590D02*
X58001390Y-97598980D01*
X58990000Y-99324000D02*
X58990000Y-98587590D01*
D20*
X41130000Y-105918000D02*
X40132000Y-105918000D01*
X40132000Y-105918000D02*
X39497000Y-106553000D01*
X41793000Y-108321000D02*
X40640000Y-109474000D01*
X41910000Y-108321000D02*
X41793000Y-108321000D01*
X41130000Y-103387000D02*
X41139000Y-103378000D01*
X41130000Y-105918000D02*
X41130000Y-103387000D01*
X41139000Y-103378000D02*
X41139000Y-100965000D01*
X41139000Y-100965000D02*
X41139000Y-98425000D01*
X41139000Y-95894000D02*
X41148000Y-95885000D01*
X41139000Y-98425000D02*
X41139000Y-95894000D01*
X41148000Y-95085000D02*
X41910000Y-94323000D01*
X41148000Y-95885000D02*
X41148000Y-95085000D01*
X41910000Y-94323000D02*
X44539000Y-94323000D01*
X44539000Y-94323000D02*
X44704000Y-94488000D01*
X44577000Y-94323000D02*
X44539000Y-94323000D01*
X45339000Y-95085000D02*
X44577000Y-94323000D01*
X45339000Y-95885000D02*
X45339000Y-95085000D01*
X45339000Y-95885000D02*
X45339000Y-98171000D01*
X45339000Y-100575000D02*
X45330000Y-100584000D01*
X45339000Y-98171000D02*
X45339000Y-100575000D01*
X45330000Y-102870000D02*
X45457000Y-102997000D01*
X45330000Y-100584000D02*
X45330000Y-102870000D01*
X69711372Y-112637372D02*
X69088000Y-112014000D01*
X69711372Y-114946628D02*
X69711372Y-112637372D01*
X69088000Y-115570000D02*
X69711372Y-114946628D01*
D18*
X63086000Y-112014000D02*
X69088000Y-112014000D01*
X69088000Y-112014000D02*
X75946000Y-112014000D01*
X75946000Y-112776000D02*
X81060990Y-107661010D01*
X81060990Y-107661010D02*
X81060990Y-101346000D01*
D20*
X43307000Y-115571000D02*
X44577000Y-115571000D01*
X44577000Y-115571000D02*
X45847000Y-115571000D01*
X43290000Y-115588000D02*
X43307000Y-115571000D01*
X40640000Y-115588000D02*
X43290000Y-115588000D01*
D19*
X53594002Y-109855000D02*
X53467000Y-109855000D01*
X57690000Y-105124000D02*
X57690000Y-105759002D01*
X57690000Y-105759002D02*
X53594002Y-109855000D01*
D20*
X40640000Y-111524000D02*
X40640000Y-113538000D01*
D19*
X58990000Y-105124000D02*
X58990000Y-106107884D01*
X58990000Y-106107884D02*
X57085442Y-108012442D01*
X46736000Y-107696000D02*
X39878000Y-107696000D01*
X39878000Y-107696000D02*
X38735000Y-108839000D01*
X38735000Y-109619000D02*
X40640000Y-111524000D01*
X38735000Y-108839000D02*
X38735000Y-109619000D01*
D20*
X56134000Y-117620000D02*
X53848000Y-117620000D01*
D19*
X60940000Y-105124000D02*
X60940000Y-106192000D01*
X60940000Y-106192000D02*
X57658000Y-109474000D01*
X56370000Y-117856000D02*
X56134000Y-117620000D01*
X57785000Y-117856000D02*
X56370000Y-117856000D01*
D20*
X58801000Y-115571000D02*
X60071000Y-115571000D01*
X60071000Y-115571000D02*
X61341000Y-115571000D01*
X58784000Y-115588000D02*
X58801000Y-115571000D01*
X56135000Y-115571000D02*
X56134000Y-115570000D01*
X58801000Y-115571000D02*
X56135000Y-115571000D01*
D19*
X56675886Y-109347000D02*
X56388000Y-109347000D01*
X59640000Y-105124000D02*
X59640000Y-106382886D01*
X59640000Y-106382886D02*
X56675886Y-109347000D01*
X56261000Y-115443000D02*
X56134000Y-115570000D01*
X56261000Y-114159000D02*
X56261000Y-115443000D01*
X59640000Y-104374000D02*
X59640000Y-105124000D01*
X59640000Y-104233264D02*
X59640000Y-104374000D01*
X60325000Y-103548264D02*
X59640000Y-104233264D01*
X60325000Y-103124000D02*
X60325000Y-103548264D01*
D20*
X74041000Y-115571000D02*
X75311000Y-115571000D01*
X75311000Y-115571000D02*
X76581000Y-115571000D01*
X74033000Y-115579000D02*
X74041000Y-115571000D01*
X71374000Y-115579000D02*
X74033000Y-115579000D01*
D19*
X65317000Y-109601000D02*
X70993000Y-109601000D01*
X61590000Y-105124000D02*
X61590000Y-105874000D01*
X61590000Y-105874000D02*
X65317000Y-109601000D01*
X71247000Y-115434000D02*
X71374000Y-115561000D01*
X71247000Y-114300000D02*
X71247000Y-115434000D01*
X70231000Y-107442000D02*
X68580000Y-105791000D01*
X68580000Y-105791000D02*
X68580000Y-102616000D01*
D20*
X69097000Y-117611000D02*
X69088000Y-117620000D01*
X71374000Y-117611000D02*
X69097000Y-117611000D01*
D19*
X64770000Y-107304000D02*
X64770000Y-107428000D01*
X62890000Y-105124000D02*
X62890000Y-105424000D01*
X62890000Y-105424000D02*
X64770000Y-107304000D01*
X68979000Y-117729000D02*
X69088000Y-117620000D01*
X67437000Y-117729000D02*
X68979000Y-117729000D01*
X52197000Y-102881998D02*
X52197000Y-109728000D01*
X56579999Y-98498999D02*
X52197000Y-102881998D01*
X57614999Y-98498999D02*
X56579999Y-98498999D01*
X57690000Y-99324000D02*
X57690000Y-98574000D01*
X57690000Y-98574000D02*
X57614999Y-98498999D01*
X54483000Y-109731000D02*
X54483000Y-109869000D01*
X58340000Y-105124000D02*
X58340000Y-105874000D01*
X58340000Y-105874000D02*
X54483000Y-109731000D01*
X49911000Y-117729000D02*
X49784000Y-117602000D01*
X51943000Y-117729000D02*
X49911000Y-117729000D01*
X68834000Y-114173000D02*
X66689000Y-114173000D01*
X66689000Y-114173000D02*
X66675000Y-114159000D01*
X63404999Y-104298999D02*
X67183000Y-108077000D01*
X60365001Y-104298999D02*
X63404999Y-104298999D01*
X60290000Y-105124000D02*
X60290000Y-104374000D01*
X60290000Y-104374000D02*
X60365001Y-104298999D01*
X57690000Y-104607884D02*
X57690000Y-105124000D01*
X59241442Y-103056442D02*
X57690000Y-104607884D01*
D18*
X44577000Y-121000000D02*
X44577000Y-121000000D01*
X44577000Y-119761000D02*
X44577000Y-119888000D01*
X44577000Y-118618000D02*
X44577000Y-118745000D01*
X44577000Y-117602000D02*
X44577000Y-117602000D01*
X44577000Y-117602000D02*
X44577000Y-118618000D01*
X44577000Y-118745000D02*
X44577000Y-119761000D01*
X44577000Y-119888000D02*
X44577000Y-121000000D01*
X60071000Y-120873000D02*
X60071000Y-120873000D01*
X60071000Y-119761000D02*
X60071000Y-120873000D01*
X60071000Y-118618000D02*
X60071000Y-119761000D01*
X60071000Y-117602000D02*
X60071000Y-118618000D01*
X75311000Y-120873000D02*
X75311000Y-120873000D01*
X75311000Y-119761000D02*
X75311000Y-120873000D01*
X75311000Y-118491000D02*
X75311000Y-119761000D01*
X75311000Y-117348000D02*
X75311000Y-118491000D01*
D19*
X70394002Y-108204000D02*
X69639264Y-108204000D01*
X73777001Y-100791999D02*
X73777001Y-104821001D01*
X73777001Y-104821001D02*
X70394002Y-108204000D01*
X73452001Y-100466999D02*
X73777001Y-100791999D01*
X69639264Y-108204000D02*
X69215000Y-108204000D01*
X57432999Y-100466999D02*
X73452001Y-100466999D01*
X57040000Y-100074000D02*
X57432999Y-100466999D01*
X57040000Y-99324000D02*
X57040000Y-100074000D01*
X66158000Y-118491000D02*
X67437000Y-118491000D01*
X65278000Y-117611000D02*
X66158000Y-118491000D01*
X57040000Y-105124000D02*
X57040000Y-104374000D01*
X57040000Y-104374000D02*
X60322000Y-101092000D01*
X73152000Y-101092000D02*
X72136000Y-101092000D01*
X60322000Y-101092000D02*
X72136000Y-101092000D01*
X72136000Y-101092000D02*
X72263000Y-101092000D01*
X74304999Y-108829001D02*
X78613000Y-104521000D01*
X65195001Y-108829001D02*
X74304999Y-108829001D01*
X62240000Y-105124000D02*
X62240000Y-105874000D01*
X62240000Y-105874000D02*
X65195001Y-108829001D01*
X82042000Y-113538000D02*
X80518000Y-113538000D01*
X61590000Y-99324000D02*
X61590000Y-97668000D01*
X62865000Y-96393000D02*
X62865000Y-91313000D01*
X61590000Y-97668000D02*
X62865000Y-96393000D01*
X62240000Y-97654410D02*
X66675000Y-93219410D01*
X62240000Y-99324000D02*
X62240000Y-97654410D01*
X66548000Y-93092410D02*
X66548000Y-91313000D01*
X66675000Y-93219410D02*
X66548000Y-93092410D01*
X70231000Y-91683000D02*
X70231000Y-91313000D01*
X62890000Y-99024000D02*
X70231000Y-91683000D01*
X62890000Y-99324000D02*
X62890000Y-99024000D01*
X52916000Y-91313000D02*
X51816000Y-91313000D01*
X59640000Y-98037000D02*
X52916000Y-91313000D01*
X59640000Y-99324000D02*
X59640000Y-98037000D01*
X60290000Y-98050590D02*
X55499000Y-93259590D01*
X60290000Y-99324000D02*
X60290000Y-98050590D01*
X55499000Y-93259590D02*
X55499000Y-91313000D01*
X60940000Y-99324000D02*
X60940000Y-97643000D01*
X59182000Y-95885000D02*
X59182000Y-91313000D01*
X60940000Y-97643000D02*
X59182000Y-95885000D01*
D20*
X47118000Y-115570000D02*
X47117000Y-115571000D01*
X47136000Y-115552000D02*
X47117000Y-115571000D01*
X49784000Y-115552000D02*
X47136000Y-115552000D01*
X62612000Y-115570000D02*
X62611000Y-115571000D01*
X65278000Y-115570000D02*
X62612000Y-115570000D01*
X77868000Y-115588000D02*
X77851000Y-115571000D01*
X80518000Y-115588000D02*
X77868000Y-115588000D01*
M02*
