G04 #@! TF.GenerationSoftware,KiCad,Pcbnew,(5.1.4)-1*
G04 #@! TF.CreationDate,2019-11-24T23:21:18+05:30*
G04 #@! TF.ProjectId,half_bridge_fd6288_v3.0,68616c66-5f62-4726-9964-67655f666436,rev?*
G04 #@! TF.SameCoordinates,Original*
G04 #@! TF.FileFunction,Soldermask,Top*
G04 #@! TF.FilePolarity,Negative*
%FSLAX46Y46*%
G04 Gerber Fmt 4.6, Leading zero omitted, Abs format (unit mm)*
G04 Created by KiCad (PCBNEW (5.1.4)-1) date 2019-11-24 23:21:18*
%MOMM*%
%LPD*%
G04 APERTURE LIST*
%ADD10C,0.100000*%
%ADD11C,0.150000*%
G04 APERTURE END LIST*
D10*
G36*
X81788000Y-99822000D02*
G01*
X82423000Y-100330000D01*
X82677000Y-100838000D01*
X82677000Y-101346000D01*
X79375000Y-101346000D01*
X79502000Y-100711000D01*
X79883000Y-100203000D01*
X80391000Y-99822000D01*
X81026000Y-99695000D01*
X81788000Y-99822000D01*
G37*
X81788000Y-99822000D02*
X82423000Y-100330000D01*
X82677000Y-100838000D01*
X82677000Y-101346000D01*
X79375000Y-101346000D01*
X79502000Y-100711000D01*
X79883000Y-100203000D01*
X80391000Y-99822000D01*
X81026000Y-99695000D01*
X81788000Y-99822000D01*
G36*
X82677000Y-103632000D02*
G01*
X79375000Y-103632000D01*
X79375000Y-101346000D01*
X82677000Y-101346000D01*
X82677000Y-103632000D01*
G37*
X82677000Y-103632000D02*
X79375000Y-103632000D01*
X79375000Y-101346000D01*
X82677000Y-101346000D01*
X82677000Y-103632000D01*
G36*
X76962000Y-121031000D02*
G01*
X76581000Y-121920000D01*
X75819000Y-122428000D01*
X74803000Y-122428000D01*
X73914000Y-121856500D01*
X73660000Y-121031000D01*
X73660000Y-118872000D01*
X76962000Y-118872000D01*
X76962000Y-121031000D01*
G37*
X76962000Y-121031000D02*
X76581000Y-121920000D01*
X75819000Y-122428000D01*
X74803000Y-122428000D01*
X73914000Y-121856500D01*
X73660000Y-121031000D01*
X73660000Y-118872000D01*
X76962000Y-118872000D01*
X76962000Y-121031000D01*
G36*
X61722000Y-121031000D02*
G01*
X61341000Y-121920000D01*
X60579000Y-122428000D01*
X59563000Y-122428000D01*
X58674000Y-121856500D01*
X58420000Y-121031000D01*
X58420000Y-118872000D01*
X61722000Y-118872000D01*
X61722000Y-121031000D01*
G37*
X61722000Y-121031000D02*
X61341000Y-121920000D01*
X60579000Y-122428000D01*
X59563000Y-122428000D01*
X58674000Y-121856500D01*
X58420000Y-121031000D01*
X58420000Y-118872000D01*
X61722000Y-118872000D01*
X61722000Y-121031000D01*
G36*
X46228000Y-121285000D02*
G01*
X45847000Y-122174000D01*
X45085000Y-122682000D01*
X44069000Y-122682000D01*
X43180000Y-122110500D01*
X42926000Y-121285000D01*
X42926000Y-119126000D01*
X46228000Y-119126000D01*
X46228000Y-121285000D01*
G37*
X46228000Y-121285000D02*
X45847000Y-122174000D01*
X45085000Y-122682000D01*
X44069000Y-122682000D01*
X43180000Y-122110500D01*
X42926000Y-121285000D01*
X42926000Y-119126000D01*
X46228000Y-119126000D01*
X46228000Y-121285000D01*
D11*
G36*
X69676674Y-116998465D02*
G01*
X69714367Y-117009899D01*
X69749103Y-117028466D01*
X69779548Y-117053452D01*
X69804534Y-117083897D01*
X69823101Y-117118633D01*
X69834535Y-117156326D01*
X69839000Y-117201661D01*
X69839000Y-118038339D01*
X69834535Y-118083674D01*
X69823101Y-118121367D01*
X69804534Y-118156103D01*
X69779548Y-118186548D01*
X69749103Y-118211534D01*
X69714367Y-118230101D01*
X69676674Y-118241535D01*
X69631339Y-118246000D01*
X68544661Y-118246000D01*
X68499326Y-118241535D01*
X68461633Y-118230101D01*
X68426897Y-118211534D01*
X68396452Y-118186548D01*
X68371466Y-118156103D01*
X68352899Y-118121367D01*
X68341465Y-118083674D01*
X68337000Y-118038339D01*
X68337000Y-117201661D01*
X68341465Y-117156326D01*
X68352899Y-117118633D01*
X68371466Y-117083897D01*
X68396452Y-117053452D01*
X68426897Y-117028466D01*
X68461633Y-117009899D01*
X68499326Y-116998465D01*
X68544661Y-116994000D01*
X69631339Y-116994000D01*
X69676674Y-116998465D01*
X69676674Y-116998465D01*
G37*
G36*
X54436674Y-116998465D02*
G01*
X54474367Y-117009899D01*
X54509103Y-117028466D01*
X54539548Y-117053452D01*
X54564534Y-117083897D01*
X54583101Y-117118633D01*
X54594535Y-117156326D01*
X54599000Y-117201661D01*
X54599000Y-118038339D01*
X54594535Y-118083674D01*
X54583101Y-118121367D01*
X54564534Y-118156103D01*
X54539548Y-118186548D01*
X54509103Y-118211534D01*
X54474367Y-118230101D01*
X54436674Y-118241535D01*
X54391339Y-118246000D01*
X53304661Y-118246000D01*
X53259326Y-118241535D01*
X53221633Y-118230101D01*
X53186897Y-118211534D01*
X53156452Y-118186548D01*
X53131466Y-118156103D01*
X53112899Y-118121367D01*
X53101465Y-118083674D01*
X53097000Y-118038339D01*
X53097000Y-117201661D01*
X53101465Y-117156326D01*
X53112899Y-117118633D01*
X53131466Y-117083897D01*
X53156452Y-117053452D01*
X53186897Y-117028466D01*
X53221633Y-117009899D01*
X53259326Y-116998465D01*
X53304661Y-116994000D01*
X54391339Y-116994000D01*
X54436674Y-116998465D01*
X54436674Y-116998465D01*
G37*
G36*
X56722674Y-116998465D02*
G01*
X56760367Y-117009899D01*
X56795103Y-117028466D01*
X56825548Y-117053452D01*
X56850534Y-117083897D01*
X56869101Y-117118633D01*
X56880535Y-117156326D01*
X56885000Y-117201661D01*
X56885000Y-118038339D01*
X56880535Y-118083674D01*
X56869101Y-118121367D01*
X56850534Y-118156103D01*
X56825548Y-118186548D01*
X56795103Y-118211534D01*
X56760367Y-118230101D01*
X56722674Y-118241535D01*
X56677339Y-118246000D01*
X55590661Y-118246000D01*
X55545326Y-118241535D01*
X55507633Y-118230101D01*
X55472897Y-118211534D01*
X55442452Y-118186548D01*
X55417466Y-118156103D01*
X55398899Y-118121367D01*
X55387465Y-118083674D01*
X55383000Y-118038339D01*
X55383000Y-117201661D01*
X55387465Y-117156326D01*
X55398899Y-117118633D01*
X55417466Y-117083897D01*
X55442452Y-117053452D01*
X55472897Y-117028466D01*
X55507633Y-117009899D01*
X55545326Y-116998465D01*
X55590661Y-116994000D01*
X56677339Y-116994000D01*
X56722674Y-116998465D01*
X56722674Y-116998465D01*
G37*
G36*
X65866674Y-116989465D02*
G01*
X65904367Y-117000899D01*
X65939103Y-117019466D01*
X65969548Y-117044452D01*
X65994534Y-117074897D01*
X66013101Y-117109633D01*
X66024535Y-117147326D01*
X66029000Y-117192661D01*
X66029000Y-118029339D01*
X66024535Y-118074674D01*
X66013101Y-118112367D01*
X65994534Y-118147103D01*
X65969548Y-118177548D01*
X65939103Y-118202534D01*
X65904367Y-118221101D01*
X65866674Y-118232535D01*
X65821339Y-118237000D01*
X64734661Y-118237000D01*
X64689326Y-118232535D01*
X64651633Y-118221101D01*
X64616897Y-118202534D01*
X64586452Y-118177548D01*
X64561466Y-118147103D01*
X64542899Y-118112367D01*
X64531465Y-118074674D01*
X64527000Y-118029339D01*
X64527000Y-117192661D01*
X64531465Y-117147326D01*
X64542899Y-117109633D01*
X64561466Y-117074897D01*
X64586452Y-117044452D01*
X64616897Y-117019466D01*
X64651633Y-117000899D01*
X64689326Y-116989465D01*
X64734661Y-116985000D01*
X65821339Y-116985000D01*
X65866674Y-116989465D01*
X65866674Y-116989465D01*
G37*
G36*
X71962674Y-116989465D02*
G01*
X72000367Y-117000899D01*
X72035103Y-117019466D01*
X72065548Y-117044452D01*
X72090534Y-117074897D01*
X72109101Y-117109633D01*
X72120535Y-117147326D01*
X72125000Y-117192661D01*
X72125000Y-118029339D01*
X72120535Y-118074674D01*
X72109101Y-118112367D01*
X72090534Y-118147103D01*
X72065548Y-118177548D01*
X72035103Y-118202534D01*
X72000367Y-118221101D01*
X71962674Y-118232535D01*
X71917339Y-118237000D01*
X70830661Y-118237000D01*
X70785326Y-118232535D01*
X70747633Y-118221101D01*
X70712897Y-118202534D01*
X70682452Y-118177548D01*
X70657466Y-118147103D01*
X70638899Y-118112367D01*
X70627465Y-118074674D01*
X70623000Y-118029339D01*
X70623000Y-117192661D01*
X70627465Y-117147326D01*
X70638899Y-117109633D01*
X70657466Y-117074897D01*
X70682452Y-117044452D01*
X70712897Y-117019466D01*
X70747633Y-117000899D01*
X70785326Y-116989465D01*
X70830661Y-116985000D01*
X71917339Y-116985000D01*
X71962674Y-116989465D01*
X71962674Y-116989465D01*
G37*
G36*
X50372674Y-116980465D02*
G01*
X50410367Y-116991899D01*
X50445103Y-117010466D01*
X50475548Y-117035452D01*
X50500534Y-117065897D01*
X50519101Y-117100633D01*
X50530535Y-117138326D01*
X50535000Y-117183661D01*
X50535000Y-118020339D01*
X50530535Y-118065674D01*
X50519101Y-118103367D01*
X50500534Y-118138103D01*
X50475548Y-118168548D01*
X50445103Y-118193534D01*
X50410367Y-118212101D01*
X50372674Y-118223535D01*
X50327339Y-118228000D01*
X49240661Y-118228000D01*
X49195326Y-118223535D01*
X49157633Y-118212101D01*
X49122897Y-118193534D01*
X49092452Y-118168548D01*
X49067466Y-118138103D01*
X49048899Y-118103367D01*
X49037465Y-118065674D01*
X49033000Y-118020339D01*
X49033000Y-117183661D01*
X49037465Y-117138326D01*
X49048899Y-117100633D01*
X49067466Y-117065897D01*
X49092452Y-117035452D01*
X49122897Y-117010466D01*
X49157633Y-116991899D01*
X49195326Y-116980465D01*
X49240661Y-116976000D01*
X50327339Y-116976000D01*
X50372674Y-116980465D01*
X50372674Y-116980465D01*
G37*
G36*
X81106674Y-114966465D02*
G01*
X81144367Y-114977899D01*
X81179103Y-114996466D01*
X81209548Y-115021452D01*
X81234534Y-115051897D01*
X81253101Y-115086633D01*
X81264535Y-115124326D01*
X81269000Y-115169661D01*
X81269000Y-116006339D01*
X81264535Y-116051674D01*
X81253101Y-116089367D01*
X81234534Y-116124103D01*
X81209548Y-116154548D01*
X81179103Y-116179534D01*
X81144367Y-116198101D01*
X81106674Y-116209535D01*
X81061339Y-116214000D01*
X79974661Y-116214000D01*
X79929326Y-116209535D01*
X79891633Y-116198101D01*
X79856897Y-116179534D01*
X79826452Y-116154548D01*
X79801466Y-116124103D01*
X79782899Y-116089367D01*
X79771465Y-116051674D01*
X79767000Y-116006339D01*
X79767000Y-115169661D01*
X79771465Y-115124326D01*
X79782899Y-115086633D01*
X79801466Y-115051897D01*
X79826452Y-115021452D01*
X79856897Y-114996466D01*
X79891633Y-114977899D01*
X79929326Y-114966465D01*
X79974661Y-114962000D01*
X81061339Y-114962000D01*
X81106674Y-114966465D01*
X81106674Y-114966465D01*
G37*
G36*
X41228674Y-114966465D02*
G01*
X41266367Y-114977899D01*
X41301103Y-114996466D01*
X41331548Y-115021452D01*
X41356534Y-115051897D01*
X41375101Y-115086633D01*
X41386535Y-115124326D01*
X41391000Y-115169661D01*
X41391000Y-116006339D01*
X41386535Y-116051674D01*
X41375101Y-116089367D01*
X41356534Y-116124103D01*
X41331548Y-116154548D01*
X41301103Y-116179534D01*
X41266367Y-116198101D01*
X41228674Y-116209535D01*
X41183339Y-116214000D01*
X40096661Y-116214000D01*
X40051326Y-116209535D01*
X40013633Y-116198101D01*
X39978897Y-116179534D01*
X39948452Y-116154548D01*
X39923466Y-116124103D01*
X39904899Y-116089367D01*
X39893465Y-116051674D01*
X39889000Y-116006339D01*
X39889000Y-115169661D01*
X39893465Y-115124326D01*
X39904899Y-115086633D01*
X39923466Y-115051897D01*
X39948452Y-115021452D01*
X39978897Y-114996466D01*
X40013633Y-114977899D01*
X40051326Y-114966465D01*
X40096661Y-114962000D01*
X41183339Y-114962000D01*
X41228674Y-114966465D01*
X41228674Y-114966465D01*
G37*
G36*
X56722674Y-114948465D02*
G01*
X56760367Y-114959899D01*
X56795103Y-114978466D01*
X56825548Y-115003452D01*
X56850534Y-115033897D01*
X56869101Y-115068633D01*
X56880535Y-115106326D01*
X56885000Y-115151661D01*
X56885000Y-115988339D01*
X56880535Y-116033674D01*
X56869101Y-116071367D01*
X56850534Y-116106103D01*
X56825548Y-116136548D01*
X56795103Y-116161534D01*
X56760367Y-116180101D01*
X56722674Y-116191535D01*
X56677339Y-116196000D01*
X55590661Y-116196000D01*
X55545326Y-116191535D01*
X55507633Y-116180101D01*
X55472897Y-116161534D01*
X55442452Y-116136548D01*
X55417466Y-116106103D01*
X55398899Y-116071367D01*
X55387465Y-116033674D01*
X55383000Y-115988339D01*
X55383000Y-115151661D01*
X55387465Y-115106326D01*
X55398899Y-115068633D01*
X55417466Y-115033897D01*
X55442452Y-115003452D01*
X55472897Y-114978466D01*
X55507633Y-114959899D01*
X55545326Y-114948465D01*
X55590661Y-114944000D01*
X56677339Y-114944000D01*
X56722674Y-114948465D01*
X56722674Y-114948465D01*
G37*
G36*
X54436674Y-114948465D02*
G01*
X54474367Y-114959899D01*
X54509103Y-114978466D01*
X54539548Y-115003452D01*
X54564534Y-115033897D01*
X54583101Y-115068633D01*
X54594535Y-115106326D01*
X54599000Y-115151661D01*
X54599000Y-115988339D01*
X54594535Y-116033674D01*
X54583101Y-116071367D01*
X54564534Y-116106103D01*
X54539548Y-116136548D01*
X54509103Y-116161534D01*
X54474367Y-116180101D01*
X54436674Y-116191535D01*
X54391339Y-116196000D01*
X53304661Y-116196000D01*
X53259326Y-116191535D01*
X53221633Y-116180101D01*
X53186897Y-116161534D01*
X53156452Y-116136548D01*
X53131466Y-116106103D01*
X53112899Y-116071367D01*
X53101465Y-116033674D01*
X53097000Y-115988339D01*
X53097000Y-115151661D01*
X53101465Y-115106326D01*
X53112899Y-115068633D01*
X53131466Y-115033897D01*
X53156452Y-115003452D01*
X53186897Y-114978466D01*
X53221633Y-114959899D01*
X53259326Y-114948465D01*
X53304661Y-114944000D01*
X54391339Y-114944000D01*
X54436674Y-114948465D01*
X54436674Y-114948465D01*
G37*
G36*
X69676674Y-114948465D02*
G01*
X69714367Y-114959899D01*
X69749103Y-114978466D01*
X69779548Y-115003452D01*
X69804534Y-115033897D01*
X69823101Y-115068633D01*
X69834535Y-115106326D01*
X69839000Y-115151661D01*
X69839000Y-115988339D01*
X69834535Y-116033674D01*
X69823101Y-116071367D01*
X69804534Y-116106103D01*
X69779548Y-116136548D01*
X69749103Y-116161534D01*
X69714367Y-116180101D01*
X69676674Y-116191535D01*
X69631339Y-116196000D01*
X68544661Y-116196000D01*
X68499326Y-116191535D01*
X68461633Y-116180101D01*
X68426897Y-116161534D01*
X68396452Y-116136548D01*
X68371466Y-116106103D01*
X68352899Y-116071367D01*
X68341465Y-116033674D01*
X68337000Y-115988339D01*
X68337000Y-115151661D01*
X68341465Y-115106326D01*
X68352899Y-115068633D01*
X68371466Y-115033897D01*
X68396452Y-115003452D01*
X68426897Y-114978466D01*
X68461633Y-114959899D01*
X68499326Y-114948465D01*
X68544661Y-114944000D01*
X69631339Y-114944000D01*
X69676674Y-114948465D01*
X69676674Y-114948465D01*
G37*
G36*
X65866674Y-114939465D02*
G01*
X65904367Y-114950899D01*
X65939103Y-114969466D01*
X65969548Y-114994452D01*
X65994534Y-115024897D01*
X66013101Y-115059633D01*
X66024535Y-115097326D01*
X66029000Y-115142661D01*
X66029000Y-115979339D01*
X66024535Y-116024674D01*
X66013101Y-116062367D01*
X65994534Y-116097103D01*
X65969548Y-116127548D01*
X65939103Y-116152534D01*
X65904367Y-116171101D01*
X65866674Y-116182535D01*
X65821339Y-116187000D01*
X64734661Y-116187000D01*
X64689326Y-116182535D01*
X64651633Y-116171101D01*
X64616897Y-116152534D01*
X64586452Y-116127548D01*
X64561466Y-116097103D01*
X64542899Y-116062367D01*
X64531465Y-116024674D01*
X64527000Y-115979339D01*
X64527000Y-115142661D01*
X64531465Y-115097326D01*
X64542899Y-115059633D01*
X64561466Y-115024897D01*
X64586452Y-114994452D01*
X64616897Y-114969466D01*
X64651633Y-114950899D01*
X64689326Y-114939465D01*
X64734661Y-114935000D01*
X65821339Y-114935000D01*
X65866674Y-114939465D01*
X65866674Y-114939465D01*
G37*
G36*
X71962674Y-114939465D02*
G01*
X72000367Y-114950899D01*
X72035103Y-114969466D01*
X72065548Y-114994452D01*
X72090534Y-115024897D01*
X72109101Y-115059633D01*
X72120535Y-115097326D01*
X72125000Y-115142661D01*
X72125000Y-115979339D01*
X72120535Y-116024674D01*
X72109101Y-116062367D01*
X72090534Y-116097103D01*
X72065548Y-116127548D01*
X72035103Y-116152534D01*
X72000367Y-116171101D01*
X71962674Y-116182535D01*
X71917339Y-116187000D01*
X70830661Y-116187000D01*
X70785326Y-116182535D01*
X70747633Y-116171101D01*
X70712897Y-116152534D01*
X70682452Y-116127548D01*
X70657466Y-116097103D01*
X70638899Y-116062367D01*
X70627465Y-116024674D01*
X70623000Y-115979339D01*
X70623000Y-115142661D01*
X70627465Y-115097326D01*
X70638899Y-115059633D01*
X70657466Y-115024897D01*
X70682452Y-114994452D01*
X70712897Y-114969466D01*
X70747633Y-114950899D01*
X70785326Y-114939465D01*
X70830661Y-114935000D01*
X71917339Y-114935000D01*
X71962674Y-114939465D01*
X71962674Y-114939465D01*
G37*
G36*
X50372674Y-114930465D02*
G01*
X50410367Y-114941899D01*
X50445103Y-114960466D01*
X50475548Y-114985452D01*
X50500534Y-115015897D01*
X50519101Y-115050633D01*
X50530535Y-115088326D01*
X50535000Y-115133661D01*
X50535000Y-115970339D01*
X50530535Y-116015674D01*
X50519101Y-116053367D01*
X50500534Y-116088103D01*
X50475548Y-116118548D01*
X50445103Y-116143534D01*
X50410367Y-116162101D01*
X50372674Y-116173535D01*
X50327339Y-116178000D01*
X49240661Y-116178000D01*
X49195326Y-116173535D01*
X49157633Y-116162101D01*
X49122897Y-116143534D01*
X49092452Y-116118548D01*
X49067466Y-116088103D01*
X49048899Y-116053367D01*
X49037465Y-116015674D01*
X49033000Y-115970339D01*
X49033000Y-115133661D01*
X49037465Y-115088326D01*
X49048899Y-115050633D01*
X49067466Y-115015897D01*
X49092452Y-114985452D01*
X49122897Y-114960466D01*
X49157633Y-114941899D01*
X49195326Y-114930465D01*
X49240661Y-114926000D01*
X50327339Y-114926000D01*
X50372674Y-114930465D01*
X50372674Y-114930465D01*
G37*
G36*
X43733000Y-116122000D02*
G01*
X42881000Y-116122000D01*
X42881000Y-115020000D01*
X43733000Y-115020000D01*
X43733000Y-116122000D01*
X43733000Y-116122000D01*
G37*
G36*
X78277000Y-116122000D02*
G01*
X77425000Y-116122000D01*
X77425000Y-115020000D01*
X78277000Y-115020000D01*
X78277000Y-116122000D01*
X78277000Y-116122000D01*
G37*
G36*
X77007000Y-116122000D02*
G01*
X76155000Y-116122000D01*
X76155000Y-115020000D01*
X77007000Y-115020000D01*
X77007000Y-116122000D01*
X77007000Y-116122000D01*
G37*
G36*
X74467000Y-116122000D02*
G01*
X73615000Y-116122000D01*
X73615000Y-115020000D01*
X74467000Y-115020000D01*
X74467000Y-116122000D01*
X74467000Y-116122000D01*
G37*
G36*
X63037000Y-116122000D02*
G01*
X62185000Y-116122000D01*
X62185000Y-115020000D01*
X63037000Y-115020000D01*
X63037000Y-116122000D01*
X63037000Y-116122000D01*
G37*
G36*
X61767000Y-116122000D02*
G01*
X60915000Y-116122000D01*
X60915000Y-115020000D01*
X61767000Y-115020000D01*
X61767000Y-116122000D01*
X61767000Y-116122000D01*
G37*
G36*
X60497000Y-116122000D02*
G01*
X59645000Y-116122000D01*
X59645000Y-115020000D01*
X60497000Y-115020000D01*
X60497000Y-116122000D01*
X60497000Y-116122000D01*
G37*
G36*
X59227000Y-116122000D02*
G01*
X58375000Y-116122000D01*
X58375000Y-115020000D01*
X59227000Y-115020000D01*
X59227000Y-116122000D01*
X59227000Y-116122000D01*
G37*
G36*
X47543000Y-116122000D02*
G01*
X46691000Y-116122000D01*
X46691000Y-115020000D01*
X47543000Y-115020000D01*
X47543000Y-116122000D01*
X47543000Y-116122000D01*
G37*
G36*
X46273000Y-116122000D02*
G01*
X45421000Y-116122000D01*
X45421000Y-115020000D01*
X46273000Y-115020000D01*
X46273000Y-116122000D01*
X46273000Y-116122000D01*
G37*
G36*
X45003000Y-116122000D02*
G01*
X44151000Y-116122000D01*
X44151000Y-115020000D01*
X45003000Y-115020000D01*
X45003000Y-116122000D01*
X45003000Y-116122000D01*
G37*
G36*
X75737000Y-116122000D02*
G01*
X74885000Y-116122000D01*
X74885000Y-115020000D01*
X75737000Y-115020000D01*
X75737000Y-116122000D01*
X75737000Y-116122000D01*
G37*
G36*
X41228674Y-112916465D02*
G01*
X41266367Y-112927899D01*
X41301103Y-112946466D01*
X41331548Y-112971452D01*
X41356534Y-113001897D01*
X41375101Y-113036633D01*
X41386535Y-113074326D01*
X41391000Y-113119661D01*
X41391000Y-113956339D01*
X41386535Y-114001674D01*
X41375101Y-114039367D01*
X41356534Y-114074103D01*
X41331548Y-114104548D01*
X41301103Y-114129534D01*
X41266367Y-114148101D01*
X41228674Y-114159535D01*
X41183339Y-114164000D01*
X40096661Y-114164000D01*
X40051326Y-114159535D01*
X40013633Y-114148101D01*
X39978897Y-114129534D01*
X39948452Y-114104548D01*
X39923466Y-114074103D01*
X39904899Y-114039367D01*
X39893465Y-114001674D01*
X39889000Y-113956339D01*
X39889000Y-113119661D01*
X39893465Y-113074326D01*
X39904899Y-113036633D01*
X39923466Y-113001897D01*
X39948452Y-112971452D01*
X39978897Y-112946466D01*
X40013633Y-112927899D01*
X40051326Y-112916465D01*
X40096661Y-112912000D01*
X41183339Y-112912000D01*
X41228674Y-112916465D01*
X41228674Y-112916465D01*
G37*
G36*
X81106674Y-112916465D02*
G01*
X81144367Y-112927899D01*
X81179103Y-112946466D01*
X81209548Y-112971452D01*
X81234534Y-113001897D01*
X81253101Y-113036633D01*
X81264535Y-113074326D01*
X81269000Y-113119661D01*
X81269000Y-113956339D01*
X81264535Y-114001674D01*
X81253101Y-114039367D01*
X81234534Y-114074103D01*
X81209548Y-114104548D01*
X81179103Y-114129534D01*
X81144367Y-114148101D01*
X81106674Y-114159535D01*
X81061339Y-114164000D01*
X79974661Y-114164000D01*
X79929326Y-114159535D01*
X79891633Y-114148101D01*
X79856897Y-114129534D01*
X79826452Y-114104548D01*
X79801466Y-114074103D01*
X79782899Y-114039367D01*
X79771465Y-114001674D01*
X79767000Y-113956339D01*
X79767000Y-113119661D01*
X79771465Y-113074326D01*
X79782899Y-113036633D01*
X79801466Y-113001897D01*
X79826452Y-112971452D01*
X79856897Y-112946466D01*
X79891633Y-112927899D01*
X79929326Y-112916465D01*
X79974661Y-112912000D01*
X81061339Y-112912000D01*
X81106674Y-112916465D01*
X81106674Y-112916465D01*
G37*
G36*
X74425999Y-109525737D02*
G01*
X74435608Y-109528652D01*
X74444472Y-109533390D01*
X74452237Y-109539763D01*
X74458610Y-109547528D01*
X74463348Y-109556392D01*
X74466263Y-109566001D01*
X74467852Y-109582140D01*
X74467852Y-109894149D01*
X74470254Y-109918535D01*
X74477367Y-109941984D01*
X74488918Y-109963595D01*
X74504463Y-109982537D01*
X74523405Y-109998082D01*
X74545016Y-110009633D01*
X74568465Y-110016746D01*
X74592851Y-110019148D01*
X77299149Y-110019148D01*
X77323535Y-110016746D01*
X77346984Y-110009633D01*
X77368595Y-109998082D01*
X77387537Y-109982537D01*
X77403082Y-109963595D01*
X77414633Y-109941984D01*
X77421746Y-109918535D01*
X77424148Y-109894149D01*
X77424148Y-109582140D01*
X77425737Y-109566001D01*
X77428652Y-109556392D01*
X77433390Y-109547528D01*
X77439763Y-109539763D01*
X77447528Y-109533390D01*
X77456392Y-109528652D01*
X77466001Y-109525737D01*
X77482140Y-109524148D01*
X78219860Y-109524148D01*
X78235999Y-109525737D01*
X78245608Y-109528652D01*
X78254472Y-109533390D01*
X78262237Y-109539763D01*
X78268610Y-109547528D01*
X78273348Y-109556392D01*
X78276263Y-109566001D01*
X78277852Y-109582140D01*
X78277852Y-112599149D01*
X78280254Y-112623535D01*
X78287367Y-112646984D01*
X78298918Y-112668595D01*
X78314463Y-112687537D01*
X78333405Y-112703082D01*
X78355016Y-112714633D01*
X78378465Y-112721746D01*
X78402851Y-112724148D01*
X78714860Y-112724148D01*
X78730999Y-112725737D01*
X78740608Y-112728652D01*
X78749472Y-112733390D01*
X78757237Y-112739763D01*
X78763610Y-112747528D01*
X78768348Y-112756392D01*
X78771263Y-112766001D01*
X78772852Y-112782140D01*
X78772852Y-113719860D01*
X78771263Y-113735999D01*
X78768348Y-113745608D01*
X78763610Y-113754472D01*
X78757237Y-113762237D01*
X78749472Y-113768610D01*
X78740608Y-113773348D01*
X78730999Y-113776263D01*
X78714860Y-113777852D01*
X78402851Y-113777852D01*
X78378465Y-113780254D01*
X78355016Y-113787367D01*
X78333405Y-113798918D01*
X78314463Y-113814463D01*
X78298918Y-113833405D01*
X78287367Y-113855016D01*
X78280254Y-113878465D01*
X78277852Y-113902851D01*
X78277852Y-114099860D01*
X78276263Y-114115999D01*
X78273348Y-114125608D01*
X78268610Y-114134472D01*
X78262237Y-114142237D01*
X78254472Y-114148610D01*
X78245608Y-114153348D01*
X78235999Y-114156263D01*
X78219860Y-114157852D01*
X73672140Y-114157852D01*
X73656001Y-114156263D01*
X73646392Y-114153348D01*
X73637528Y-114148610D01*
X73629763Y-114142237D01*
X73623390Y-114134472D01*
X73618652Y-114125608D01*
X73615737Y-114115999D01*
X73614148Y-114099860D01*
X73614148Y-113857851D01*
X73611746Y-113833465D01*
X73604633Y-113810016D01*
X73593082Y-113788405D01*
X73577537Y-113769463D01*
X73558595Y-113753918D01*
X73536984Y-113742367D01*
X73513535Y-113735254D01*
X73489149Y-113732852D01*
X73177140Y-113732852D01*
X73161001Y-113731263D01*
X73151392Y-113728348D01*
X73142528Y-113723610D01*
X73134763Y-113717237D01*
X73128390Y-113709472D01*
X73123652Y-113700608D01*
X73120737Y-113690999D01*
X73119148Y-113674860D01*
X73119148Y-112782140D01*
X73120737Y-112766001D01*
X73123652Y-112756392D01*
X73128390Y-112747528D01*
X73134763Y-112739763D01*
X73142528Y-112733390D01*
X73151392Y-112728652D01*
X73161001Y-112725737D01*
X73177140Y-112724148D01*
X73489149Y-112724148D01*
X73513535Y-112721746D01*
X73536984Y-112714633D01*
X73558595Y-112703082D01*
X73577537Y-112687537D01*
X73593082Y-112668595D01*
X73604633Y-112646984D01*
X73611746Y-112623535D01*
X73614148Y-112599149D01*
X73614148Y-109582140D01*
X73615737Y-109566001D01*
X73618652Y-109556392D01*
X73623390Y-109547528D01*
X73629763Y-109539763D01*
X73637528Y-109533390D01*
X73646392Y-109528652D01*
X73656001Y-109525737D01*
X73672140Y-109524148D01*
X74409860Y-109524148D01*
X74425999Y-109525737D01*
X74425999Y-109525737D01*
G37*
G36*
X43691999Y-109525737D02*
G01*
X43701608Y-109528652D01*
X43710472Y-109533390D01*
X43718237Y-109539763D01*
X43724610Y-109547528D01*
X43729348Y-109556392D01*
X43732263Y-109566001D01*
X43733852Y-109582140D01*
X43733852Y-109894149D01*
X43736254Y-109918535D01*
X43743367Y-109941984D01*
X43754918Y-109963595D01*
X43770463Y-109982537D01*
X43789405Y-109998082D01*
X43811016Y-110009633D01*
X43834465Y-110016746D01*
X43858851Y-110019148D01*
X46565149Y-110019148D01*
X46589535Y-110016746D01*
X46612984Y-110009633D01*
X46634595Y-109998082D01*
X46653537Y-109982537D01*
X46669082Y-109963595D01*
X46680633Y-109941984D01*
X46687746Y-109918535D01*
X46690148Y-109894149D01*
X46690148Y-109582140D01*
X46691737Y-109566001D01*
X46694652Y-109556392D01*
X46699390Y-109547528D01*
X46705763Y-109539763D01*
X46713528Y-109533390D01*
X46722392Y-109528652D01*
X46732001Y-109525737D01*
X46748140Y-109524148D01*
X47485860Y-109524148D01*
X47501999Y-109525737D01*
X47511608Y-109528652D01*
X47520472Y-109533390D01*
X47528237Y-109539763D01*
X47534610Y-109547528D01*
X47539348Y-109556392D01*
X47542263Y-109566001D01*
X47543852Y-109582140D01*
X47543852Y-112599149D01*
X47546254Y-112623535D01*
X47553367Y-112646984D01*
X47564918Y-112668595D01*
X47580463Y-112687537D01*
X47599405Y-112703082D01*
X47621016Y-112714633D01*
X47644465Y-112721746D01*
X47668851Y-112724148D01*
X47980860Y-112724148D01*
X47996999Y-112725737D01*
X48006608Y-112728652D01*
X48015472Y-112733390D01*
X48023237Y-112739763D01*
X48029610Y-112747528D01*
X48034348Y-112756392D01*
X48037263Y-112766001D01*
X48038852Y-112782140D01*
X48038852Y-113719860D01*
X48037263Y-113735999D01*
X48034348Y-113745608D01*
X48029610Y-113754472D01*
X48023237Y-113762237D01*
X48015472Y-113768610D01*
X48006608Y-113773348D01*
X47996999Y-113776263D01*
X47980860Y-113777852D01*
X47668851Y-113777852D01*
X47644465Y-113780254D01*
X47621016Y-113787367D01*
X47599405Y-113798918D01*
X47580463Y-113814463D01*
X47564918Y-113833405D01*
X47553367Y-113855016D01*
X47546254Y-113878465D01*
X47543852Y-113902851D01*
X47543852Y-114099860D01*
X47542263Y-114115999D01*
X47539348Y-114125608D01*
X47534610Y-114134472D01*
X47528237Y-114142237D01*
X47520472Y-114148610D01*
X47511608Y-114153348D01*
X47501999Y-114156263D01*
X47485860Y-114157852D01*
X42938140Y-114157852D01*
X42922001Y-114156263D01*
X42912392Y-114153348D01*
X42903528Y-114148610D01*
X42895763Y-114142237D01*
X42889390Y-114134472D01*
X42884652Y-114125608D01*
X42881737Y-114115999D01*
X42880148Y-114099860D01*
X42880148Y-113857851D01*
X42877746Y-113833465D01*
X42870633Y-113810016D01*
X42859082Y-113788405D01*
X42843537Y-113769463D01*
X42824595Y-113753918D01*
X42802984Y-113742367D01*
X42779535Y-113735254D01*
X42755149Y-113732852D01*
X42443140Y-113732852D01*
X42427001Y-113731263D01*
X42417392Y-113728348D01*
X42408528Y-113723610D01*
X42400763Y-113717237D01*
X42394390Y-113709472D01*
X42389652Y-113700608D01*
X42386737Y-113690999D01*
X42385148Y-113674860D01*
X42385148Y-112782140D01*
X42386737Y-112766001D01*
X42389652Y-112756392D01*
X42394390Y-112747528D01*
X42400763Y-112739763D01*
X42408528Y-112733390D01*
X42417392Y-112728652D01*
X42427001Y-112725737D01*
X42443140Y-112724148D01*
X42755149Y-112724148D01*
X42779535Y-112721746D01*
X42802984Y-112714633D01*
X42824595Y-112703082D01*
X42843537Y-112687537D01*
X42859082Y-112668595D01*
X42870633Y-112646984D01*
X42877746Y-112623535D01*
X42880148Y-112599149D01*
X42880148Y-109582140D01*
X42881737Y-109566001D01*
X42884652Y-109556392D01*
X42889390Y-109547528D01*
X42895763Y-109539763D01*
X42903528Y-109533390D01*
X42912392Y-109528652D01*
X42922001Y-109525737D01*
X42938140Y-109524148D01*
X43675860Y-109524148D01*
X43691999Y-109525737D01*
X43691999Y-109525737D01*
G37*
G36*
X59185999Y-109525737D02*
G01*
X59195608Y-109528652D01*
X59204472Y-109533390D01*
X59212237Y-109539763D01*
X59218610Y-109547528D01*
X59223348Y-109556392D01*
X59226263Y-109566001D01*
X59227852Y-109582140D01*
X59227852Y-109894149D01*
X59230254Y-109918535D01*
X59237367Y-109941984D01*
X59248918Y-109963595D01*
X59264463Y-109982537D01*
X59283405Y-109998082D01*
X59305016Y-110009633D01*
X59328465Y-110016746D01*
X59352851Y-110019148D01*
X62059149Y-110019148D01*
X62083535Y-110016746D01*
X62106984Y-110009633D01*
X62128595Y-109998082D01*
X62147537Y-109982537D01*
X62163082Y-109963595D01*
X62174633Y-109941984D01*
X62181746Y-109918535D01*
X62184148Y-109894149D01*
X62184148Y-109582140D01*
X62185737Y-109566001D01*
X62188652Y-109556392D01*
X62193390Y-109547528D01*
X62199763Y-109539763D01*
X62207528Y-109533390D01*
X62216392Y-109528652D01*
X62226001Y-109525737D01*
X62242140Y-109524148D01*
X62979860Y-109524148D01*
X62995999Y-109525737D01*
X63005608Y-109528652D01*
X63014472Y-109533390D01*
X63022237Y-109539763D01*
X63028610Y-109547528D01*
X63033348Y-109556392D01*
X63036263Y-109566001D01*
X63037852Y-109582140D01*
X63037852Y-112599149D01*
X63040254Y-112623535D01*
X63047367Y-112646984D01*
X63058918Y-112668595D01*
X63074463Y-112687537D01*
X63093405Y-112703082D01*
X63115016Y-112714633D01*
X63138465Y-112721746D01*
X63162851Y-112724148D01*
X63474860Y-112724148D01*
X63490999Y-112725737D01*
X63500608Y-112728652D01*
X63509472Y-112733390D01*
X63517237Y-112739763D01*
X63523610Y-112747528D01*
X63528348Y-112756392D01*
X63531263Y-112766001D01*
X63532852Y-112782140D01*
X63532852Y-113719860D01*
X63531263Y-113735999D01*
X63528348Y-113745608D01*
X63523610Y-113754472D01*
X63517237Y-113762237D01*
X63509472Y-113768610D01*
X63500608Y-113773348D01*
X63490999Y-113776263D01*
X63474860Y-113777852D01*
X63162851Y-113777852D01*
X63138465Y-113780254D01*
X63115016Y-113787367D01*
X63093405Y-113798918D01*
X63074463Y-113814463D01*
X63058918Y-113833405D01*
X63047367Y-113855016D01*
X63040254Y-113878465D01*
X63037852Y-113902851D01*
X63037852Y-114099860D01*
X63036263Y-114115999D01*
X63033348Y-114125608D01*
X63028610Y-114134472D01*
X63022237Y-114142237D01*
X63014472Y-114148610D01*
X63005608Y-114153348D01*
X62995999Y-114156263D01*
X62979860Y-114157852D01*
X58432140Y-114157852D01*
X58416001Y-114156263D01*
X58406392Y-114153348D01*
X58397528Y-114148610D01*
X58389763Y-114142237D01*
X58383390Y-114134472D01*
X58378652Y-114125608D01*
X58375737Y-114115999D01*
X58374148Y-114099860D01*
X58374148Y-113857851D01*
X58371746Y-113833465D01*
X58364633Y-113810016D01*
X58353082Y-113788405D01*
X58337537Y-113769463D01*
X58318595Y-113753918D01*
X58296984Y-113742367D01*
X58273535Y-113735254D01*
X58249149Y-113732852D01*
X57937140Y-113732852D01*
X57921001Y-113731263D01*
X57911392Y-113728348D01*
X57902528Y-113723610D01*
X57894763Y-113717237D01*
X57888390Y-113709472D01*
X57883652Y-113700608D01*
X57880737Y-113690999D01*
X57879148Y-113674860D01*
X57879148Y-112782140D01*
X57880737Y-112766001D01*
X57883652Y-112756392D01*
X57888390Y-112747528D01*
X57894763Y-112739763D01*
X57902528Y-112733390D01*
X57911392Y-112728652D01*
X57921001Y-112725737D01*
X57937140Y-112724148D01*
X58249149Y-112724148D01*
X58273535Y-112721746D01*
X58296984Y-112714633D01*
X58318595Y-112703082D01*
X58337537Y-112687537D01*
X58353082Y-112668595D01*
X58364633Y-112646984D01*
X58371746Y-112623535D01*
X58374148Y-112599149D01*
X58374148Y-109582140D01*
X58375737Y-109566001D01*
X58378652Y-109556392D01*
X58383390Y-109547528D01*
X58389763Y-109539763D01*
X58397528Y-109533390D01*
X58406392Y-109528652D01*
X58416001Y-109525737D01*
X58432140Y-109524148D01*
X59169860Y-109524148D01*
X59185999Y-109525737D01*
X59185999Y-109525737D01*
G37*
G36*
X41228674Y-110902465D02*
G01*
X41266367Y-110913899D01*
X41301103Y-110932466D01*
X41331548Y-110957452D01*
X41356534Y-110987897D01*
X41375101Y-111022633D01*
X41386535Y-111060326D01*
X41391000Y-111105661D01*
X41391000Y-111942339D01*
X41386535Y-111987674D01*
X41375101Y-112025367D01*
X41356534Y-112060103D01*
X41331548Y-112090548D01*
X41301103Y-112115534D01*
X41266367Y-112134101D01*
X41228674Y-112145535D01*
X41183339Y-112150000D01*
X40096661Y-112150000D01*
X40051326Y-112145535D01*
X40013633Y-112134101D01*
X39978897Y-112115534D01*
X39948452Y-112090548D01*
X39923466Y-112060103D01*
X39904899Y-112025367D01*
X39893465Y-111987674D01*
X39889000Y-111942339D01*
X39889000Y-111105661D01*
X39893465Y-111060326D01*
X39904899Y-111022633D01*
X39923466Y-110987897D01*
X39948452Y-110957452D01*
X39978897Y-110932466D01*
X40013633Y-110913899D01*
X40051326Y-110902465D01*
X40096661Y-110898000D01*
X41183339Y-110898000D01*
X41228674Y-110902465D01*
X41228674Y-110902465D01*
G37*
G36*
X41228674Y-108852465D02*
G01*
X41266367Y-108863899D01*
X41301103Y-108882466D01*
X41331548Y-108907452D01*
X41356534Y-108937897D01*
X41375101Y-108972633D01*
X41386535Y-109010326D01*
X41391000Y-109055661D01*
X41391000Y-109892339D01*
X41386535Y-109937674D01*
X41375101Y-109975367D01*
X41356534Y-110010103D01*
X41331548Y-110040548D01*
X41301103Y-110065534D01*
X41266367Y-110084101D01*
X41228674Y-110095535D01*
X41183339Y-110100000D01*
X40096661Y-110100000D01*
X40051326Y-110095535D01*
X40013633Y-110084101D01*
X39978897Y-110065534D01*
X39948452Y-110040548D01*
X39923466Y-110010103D01*
X39904899Y-109975367D01*
X39893465Y-109937674D01*
X39889000Y-109892339D01*
X39889000Y-109055661D01*
X39893465Y-109010326D01*
X39904899Y-108972633D01*
X39923466Y-108937897D01*
X39948452Y-108907452D01*
X39978897Y-108882466D01*
X40013633Y-108863899D01*
X40051326Y-108852465D01*
X40096661Y-108848000D01*
X41183339Y-108848000D01*
X41228674Y-108852465D01*
X41228674Y-108852465D01*
G37*
G36*
X43643674Y-105171465D02*
G01*
X43681367Y-105182899D01*
X43716103Y-105201466D01*
X43746548Y-105226452D01*
X43771534Y-105256897D01*
X43790101Y-105291633D01*
X43801535Y-105329326D01*
X43806000Y-105374661D01*
X43806000Y-106461339D01*
X43801535Y-106506674D01*
X43790101Y-106544367D01*
X43771534Y-106579103D01*
X43746548Y-106609548D01*
X43716103Y-106634534D01*
X43681367Y-106653101D01*
X43643674Y-106664535D01*
X43598339Y-106669000D01*
X42761661Y-106669000D01*
X42716326Y-106664535D01*
X42678633Y-106653101D01*
X42643897Y-106634534D01*
X42613452Y-106609548D01*
X42588466Y-106579103D01*
X42569899Y-106544367D01*
X42558465Y-106506674D01*
X42554000Y-106461339D01*
X42554000Y-105374661D01*
X42558465Y-105329326D01*
X42569899Y-105291633D01*
X42588466Y-105256897D01*
X42613452Y-105226452D01*
X42643897Y-105201466D01*
X42678633Y-105182899D01*
X42716326Y-105171465D01*
X42761661Y-105167000D01*
X43598339Y-105167000D01*
X43643674Y-105171465D01*
X43643674Y-105171465D01*
G37*
G36*
X41593674Y-105171465D02*
G01*
X41631367Y-105182899D01*
X41666103Y-105201466D01*
X41696548Y-105226452D01*
X41721534Y-105256897D01*
X41740101Y-105291633D01*
X41751535Y-105329326D01*
X41756000Y-105374661D01*
X41756000Y-106461339D01*
X41751535Y-106506674D01*
X41740101Y-106544367D01*
X41721534Y-106579103D01*
X41696548Y-106609548D01*
X41666103Y-106634534D01*
X41631367Y-106653101D01*
X41593674Y-106664535D01*
X41548339Y-106669000D01*
X40711661Y-106669000D01*
X40666326Y-106664535D01*
X40628633Y-106653101D01*
X40593897Y-106634534D01*
X40563452Y-106609548D01*
X40538466Y-106579103D01*
X40519899Y-106544367D01*
X40508465Y-106506674D01*
X40504000Y-106461339D01*
X40504000Y-105374661D01*
X40508465Y-105329326D01*
X40519899Y-105291633D01*
X40538466Y-105256897D01*
X40563452Y-105226452D01*
X40593897Y-105201466D01*
X40628633Y-105182899D01*
X40666326Y-105171465D01*
X40711661Y-105167000D01*
X41548339Y-105167000D01*
X41593674Y-105171465D01*
X41593674Y-105171465D01*
G37*
G36*
X63141000Y-105675000D02*
G01*
X56789000Y-105675000D01*
X56789000Y-104573000D01*
X63141000Y-104573000D01*
X63141000Y-105675000D01*
X63141000Y-105675000D01*
G37*
G36*
X41602674Y-102631465D02*
G01*
X41640367Y-102642899D01*
X41675103Y-102661466D01*
X41705548Y-102686452D01*
X41730534Y-102716897D01*
X41749101Y-102751633D01*
X41760535Y-102789326D01*
X41765000Y-102834661D01*
X41765000Y-103921339D01*
X41760535Y-103966674D01*
X41749101Y-104004367D01*
X41730534Y-104039103D01*
X41705548Y-104069548D01*
X41675103Y-104094534D01*
X41640367Y-104113101D01*
X41602674Y-104124535D01*
X41557339Y-104129000D01*
X40720661Y-104129000D01*
X40675326Y-104124535D01*
X40637633Y-104113101D01*
X40602897Y-104094534D01*
X40572452Y-104069548D01*
X40547466Y-104039103D01*
X40528899Y-104004367D01*
X40517465Y-103966674D01*
X40513000Y-103921339D01*
X40513000Y-102834661D01*
X40517465Y-102789326D01*
X40528899Y-102751633D01*
X40547466Y-102716897D01*
X40572452Y-102686452D01*
X40602897Y-102661466D01*
X40637633Y-102642899D01*
X40675326Y-102631465D01*
X40720661Y-102627000D01*
X41557339Y-102627000D01*
X41602674Y-102631465D01*
X41602674Y-102631465D01*
G37*
G36*
X43652674Y-102631465D02*
G01*
X43690367Y-102642899D01*
X43725103Y-102661466D01*
X43755548Y-102686452D01*
X43780534Y-102716897D01*
X43799101Y-102751633D01*
X43810535Y-102789326D01*
X43815000Y-102834661D01*
X43815000Y-103921339D01*
X43810535Y-103966674D01*
X43799101Y-104004367D01*
X43780534Y-104039103D01*
X43755548Y-104069548D01*
X43725103Y-104094534D01*
X43690367Y-104113101D01*
X43652674Y-104124535D01*
X43607339Y-104129000D01*
X42770661Y-104129000D01*
X42725326Y-104124535D01*
X42687633Y-104113101D01*
X42652897Y-104094534D01*
X42622452Y-104069548D01*
X42597466Y-104039103D01*
X42578899Y-104004367D01*
X42567465Y-103966674D01*
X42563000Y-103921339D01*
X42563000Y-102834661D01*
X42567465Y-102789326D01*
X42578899Y-102751633D01*
X42597466Y-102716897D01*
X42622452Y-102686452D01*
X42652897Y-102661466D01*
X42687633Y-102642899D01*
X42725326Y-102631465D01*
X42770661Y-102627000D01*
X43607339Y-102627000D01*
X43652674Y-102631465D01*
X43652674Y-102631465D01*
G37*
G36*
X45920674Y-102250465D02*
G01*
X45958367Y-102261899D01*
X45993103Y-102280466D01*
X46023548Y-102305452D01*
X46048534Y-102335897D01*
X46067101Y-102370633D01*
X46078535Y-102408326D01*
X46083000Y-102453661D01*
X46083000Y-103540339D01*
X46078535Y-103585674D01*
X46067101Y-103623367D01*
X46048534Y-103658103D01*
X46023548Y-103688548D01*
X45993103Y-103713534D01*
X45958367Y-103732101D01*
X45920674Y-103743535D01*
X45875339Y-103748000D01*
X45038661Y-103748000D01*
X44993326Y-103743535D01*
X44955633Y-103732101D01*
X44920897Y-103713534D01*
X44890452Y-103688548D01*
X44865466Y-103658103D01*
X44846899Y-103623367D01*
X44835465Y-103585674D01*
X44831000Y-103540339D01*
X44831000Y-102453661D01*
X44835465Y-102408326D01*
X44846899Y-102370633D01*
X44865466Y-102335897D01*
X44890452Y-102305452D01*
X44920897Y-102280466D01*
X44955633Y-102261899D01*
X44993326Y-102250465D01*
X45038661Y-102246000D01*
X45875339Y-102246000D01*
X45920674Y-102250465D01*
X45920674Y-102250465D01*
G37*
G36*
X47970674Y-102250465D02*
G01*
X48008367Y-102261899D01*
X48043103Y-102280466D01*
X48073548Y-102305452D01*
X48098534Y-102335897D01*
X48117101Y-102370633D01*
X48128535Y-102408326D01*
X48133000Y-102453661D01*
X48133000Y-103540339D01*
X48128535Y-103585674D01*
X48117101Y-103623367D01*
X48098534Y-103658103D01*
X48073548Y-103688548D01*
X48043103Y-103713534D01*
X48008367Y-103732101D01*
X47970674Y-103743535D01*
X47925339Y-103748000D01*
X47088661Y-103748000D01*
X47043326Y-103743535D01*
X47005633Y-103732101D01*
X46970897Y-103713534D01*
X46940452Y-103688548D01*
X46915466Y-103658103D01*
X46896899Y-103623367D01*
X46885465Y-103585674D01*
X46881000Y-103540339D01*
X46881000Y-102453661D01*
X46885465Y-102408326D01*
X46896899Y-102370633D01*
X46915466Y-102335897D01*
X46940452Y-102305452D01*
X46970897Y-102280466D01*
X47005633Y-102261899D01*
X47043326Y-102250465D01*
X47088661Y-102246000D01*
X47925339Y-102246000D01*
X47970674Y-102250465D01*
X47970674Y-102250465D01*
G37*
G36*
X43652674Y-100218465D02*
G01*
X43690367Y-100229899D01*
X43725103Y-100248466D01*
X43755548Y-100273452D01*
X43780534Y-100303897D01*
X43799101Y-100338633D01*
X43810535Y-100376326D01*
X43815000Y-100421661D01*
X43815000Y-101508339D01*
X43810535Y-101553674D01*
X43799101Y-101591367D01*
X43780534Y-101626103D01*
X43755548Y-101656548D01*
X43725103Y-101681534D01*
X43690367Y-101700101D01*
X43652674Y-101711535D01*
X43607339Y-101716000D01*
X42770661Y-101716000D01*
X42725326Y-101711535D01*
X42687633Y-101700101D01*
X42652897Y-101681534D01*
X42622452Y-101656548D01*
X42597466Y-101626103D01*
X42578899Y-101591367D01*
X42567465Y-101553674D01*
X42563000Y-101508339D01*
X42563000Y-100421661D01*
X42567465Y-100376326D01*
X42578899Y-100338633D01*
X42597466Y-100303897D01*
X42622452Y-100273452D01*
X42652897Y-100248466D01*
X42687633Y-100229899D01*
X42725326Y-100218465D01*
X42770661Y-100214000D01*
X43607339Y-100214000D01*
X43652674Y-100218465D01*
X43652674Y-100218465D01*
G37*
G36*
X41602674Y-100218465D02*
G01*
X41640367Y-100229899D01*
X41675103Y-100248466D01*
X41705548Y-100273452D01*
X41730534Y-100303897D01*
X41749101Y-100338633D01*
X41760535Y-100376326D01*
X41765000Y-100421661D01*
X41765000Y-101508339D01*
X41760535Y-101553674D01*
X41749101Y-101591367D01*
X41730534Y-101626103D01*
X41705548Y-101656548D01*
X41675103Y-101681534D01*
X41640367Y-101700101D01*
X41602674Y-101711535D01*
X41557339Y-101716000D01*
X40720661Y-101716000D01*
X40675326Y-101711535D01*
X40637633Y-101700101D01*
X40602897Y-101681534D01*
X40572452Y-101656548D01*
X40547466Y-101626103D01*
X40528899Y-101591367D01*
X40517465Y-101553674D01*
X40513000Y-101508339D01*
X40513000Y-100421661D01*
X40517465Y-100376326D01*
X40528899Y-100338633D01*
X40547466Y-100303897D01*
X40572452Y-100273452D01*
X40602897Y-100248466D01*
X40637633Y-100229899D01*
X40675326Y-100218465D01*
X40720661Y-100214000D01*
X41557339Y-100214000D01*
X41602674Y-100218465D01*
X41602674Y-100218465D01*
G37*
G36*
X45793674Y-99837465D02*
G01*
X45831367Y-99848899D01*
X45866103Y-99867466D01*
X45896548Y-99892452D01*
X45921534Y-99922897D01*
X45940101Y-99957633D01*
X45951535Y-99995326D01*
X45956000Y-100040661D01*
X45956000Y-101127339D01*
X45951535Y-101172674D01*
X45940101Y-101210367D01*
X45921534Y-101245103D01*
X45896548Y-101275548D01*
X45866103Y-101300534D01*
X45831367Y-101319101D01*
X45793674Y-101330535D01*
X45748339Y-101335000D01*
X44911661Y-101335000D01*
X44866326Y-101330535D01*
X44828633Y-101319101D01*
X44793897Y-101300534D01*
X44763452Y-101275548D01*
X44738466Y-101245103D01*
X44719899Y-101210367D01*
X44708465Y-101172674D01*
X44704000Y-101127339D01*
X44704000Y-100040661D01*
X44708465Y-99995326D01*
X44719899Y-99957633D01*
X44738466Y-99922897D01*
X44763452Y-99892452D01*
X44793897Y-99867466D01*
X44828633Y-99848899D01*
X44866326Y-99837465D01*
X44911661Y-99833000D01*
X45748339Y-99833000D01*
X45793674Y-99837465D01*
X45793674Y-99837465D01*
G37*
G36*
X47843674Y-99837465D02*
G01*
X47881367Y-99848899D01*
X47916103Y-99867466D01*
X47946548Y-99892452D01*
X47971534Y-99922897D01*
X47990101Y-99957633D01*
X48001535Y-99995326D01*
X48006000Y-100040661D01*
X48006000Y-101127339D01*
X48001535Y-101172674D01*
X47990101Y-101210367D01*
X47971534Y-101245103D01*
X47946548Y-101275548D01*
X47916103Y-101300534D01*
X47881367Y-101319101D01*
X47843674Y-101330535D01*
X47798339Y-101335000D01*
X46961661Y-101335000D01*
X46916326Y-101330535D01*
X46878633Y-101319101D01*
X46843897Y-101300534D01*
X46813452Y-101275548D01*
X46788466Y-101245103D01*
X46769899Y-101210367D01*
X46758465Y-101172674D01*
X46754000Y-101127339D01*
X46754000Y-100040661D01*
X46758465Y-99995326D01*
X46769899Y-99957633D01*
X46788466Y-99922897D01*
X46813452Y-99892452D01*
X46843897Y-99867466D01*
X46878633Y-99848899D01*
X46916326Y-99837465D01*
X46961661Y-99833000D01*
X47798339Y-99833000D01*
X47843674Y-99837465D01*
X47843674Y-99837465D01*
G37*
G36*
X63141000Y-99875000D02*
G01*
X56789000Y-99875000D01*
X56789000Y-98773000D01*
X63141000Y-98773000D01*
X63141000Y-99875000D01*
X63141000Y-99875000D01*
G37*
G36*
X41602674Y-97678465D02*
G01*
X41640367Y-97689899D01*
X41675103Y-97708466D01*
X41705548Y-97733452D01*
X41730534Y-97763897D01*
X41749101Y-97798633D01*
X41760535Y-97836326D01*
X41765000Y-97881661D01*
X41765000Y-98968339D01*
X41760535Y-99013674D01*
X41749101Y-99051367D01*
X41730534Y-99086103D01*
X41705548Y-99116548D01*
X41675103Y-99141534D01*
X41640367Y-99160101D01*
X41602674Y-99171535D01*
X41557339Y-99176000D01*
X40720661Y-99176000D01*
X40675326Y-99171535D01*
X40637633Y-99160101D01*
X40602897Y-99141534D01*
X40572452Y-99116548D01*
X40547466Y-99086103D01*
X40528899Y-99051367D01*
X40517465Y-99013674D01*
X40513000Y-98968339D01*
X40513000Y-97881661D01*
X40517465Y-97836326D01*
X40528899Y-97798633D01*
X40547466Y-97763897D01*
X40572452Y-97733452D01*
X40602897Y-97708466D01*
X40637633Y-97689899D01*
X40675326Y-97678465D01*
X40720661Y-97674000D01*
X41557339Y-97674000D01*
X41602674Y-97678465D01*
X41602674Y-97678465D01*
G37*
G36*
X43652674Y-97678465D02*
G01*
X43690367Y-97689899D01*
X43725103Y-97708466D01*
X43755548Y-97733452D01*
X43780534Y-97763897D01*
X43799101Y-97798633D01*
X43810535Y-97836326D01*
X43815000Y-97881661D01*
X43815000Y-98968339D01*
X43810535Y-99013674D01*
X43799101Y-99051367D01*
X43780534Y-99086103D01*
X43755548Y-99116548D01*
X43725103Y-99141534D01*
X43690367Y-99160101D01*
X43652674Y-99171535D01*
X43607339Y-99176000D01*
X42770661Y-99176000D01*
X42725326Y-99171535D01*
X42687633Y-99160101D01*
X42652897Y-99141534D01*
X42622452Y-99116548D01*
X42597466Y-99086103D01*
X42578899Y-99051367D01*
X42567465Y-99013674D01*
X42563000Y-98968339D01*
X42563000Y-97881661D01*
X42567465Y-97836326D01*
X42578899Y-97798633D01*
X42597466Y-97763897D01*
X42622452Y-97733452D01*
X42652897Y-97708466D01*
X42687633Y-97689899D01*
X42725326Y-97678465D01*
X42770661Y-97674000D01*
X43607339Y-97674000D01*
X43652674Y-97678465D01*
X43652674Y-97678465D01*
G37*
G36*
X45802674Y-97424465D02*
G01*
X45840367Y-97435899D01*
X45875103Y-97454466D01*
X45905548Y-97479452D01*
X45930534Y-97509897D01*
X45949101Y-97544633D01*
X45960535Y-97582326D01*
X45965000Y-97627661D01*
X45965000Y-98714339D01*
X45960535Y-98759674D01*
X45949101Y-98797367D01*
X45930534Y-98832103D01*
X45905548Y-98862548D01*
X45875103Y-98887534D01*
X45840367Y-98906101D01*
X45802674Y-98917535D01*
X45757339Y-98922000D01*
X44920661Y-98922000D01*
X44875326Y-98917535D01*
X44837633Y-98906101D01*
X44802897Y-98887534D01*
X44772452Y-98862548D01*
X44747466Y-98832103D01*
X44728899Y-98797367D01*
X44717465Y-98759674D01*
X44713000Y-98714339D01*
X44713000Y-97627661D01*
X44717465Y-97582326D01*
X44728899Y-97544633D01*
X44747466Y-97509897D01*
X44772452Y-97479452D01*
X44802897Y-97454466D01*
X44837633Y-97435899D01*
X44875326Y-97424465D01*
X44920661Y-97420000D01*
X45757339Y-97420000D01*
X45802674Y-97424465D01*
X45802674Y-97424465D01*
G37*
G36*
X47852674Y-97424465D02*
G01*
X47890367Y-97435899D01*
X47925103Y-97454466D01*
X47955548Y-97479452D01*
X47980534Y-97509897D01*
X47999101Y-97544633D01*
X48010535Y-97582326D01*
X48015000Y-97627661D01*
X48015000Y-98714339D01*
X48010535Y-98759674D01*
X47999101Y-98797367D01*
X47980534Y-98832103D01*
X47955548Y-98862548D01*
X47925103Y-98887534D01*
X47890367Y-98906101D01*
X47852674Y-98917535D01*
X47807339Y-98922000D01*
X46970661Y-98922000D01*
X46925326Y-98917535D01*
X46887633Y-98906101D01*
X46852897Y-98887534D01*
X46822452Y-98862548D01*
X46797466Y-98832103D01*
X46778899Y-98797367D01*
X46767465Y-98759674D01*
X46763000Y-98714339D01*
X46763000Y-97627661D01*
X46767465Y-97582326D01*
X46778899Y-97544633D01*
X46797466Y-97509897D01*
X46822452Y-97479452D01*
X46852897Y-97454466D01*
X46887633Y-97435899D01*
X46925326Y-97424465D01*
X46970661Y-97420000D01*
X47807339Y-97420000D01*
X47852674Y-97424465D01*
X47852674Y-97424465D01*
G37*
G36*
X47852674Y-95138465D02*
G01*
X47890367Y-95149899D01*
X47925103Y-95168466D01*
X47955548Y-95193452D01*
X47980534Y-95223897D01*
X47999101Y-95258633D01*
X48010535Y-95296326D01*
X48015000Y-95341661D01*
X48015000Y-96428339D01*
X48010535Y-96473674D01*
X47999101Y-96511367D01*
X47980534Y-96546103D01*
X47955548Y-96576548D01*
X47925103Y-96601534D01*
X47890367Y-96620101D01*
X47852674Y-96631535D01*
X47807339Y-96636000D01*
X46970661Y-96636000D01*
X46925326Y-96631535D01*
X46887633Y-96620101D01*
X46852897Y-96601534D01*
X46822452Y-96576548D01*
X46797466Y-96546103D01*
X46778899Y-96511367D01*
X46767465Y-96473674D01*
X46763000Y-96428339D01*
X46763000Y-95341661D01*
X46767465Y-95296326D01*
X46778899Y-95258633D01*
X46797466Y-95223897D01*
X46822452Y-95193452D01*
X46852897Y-95168466D01*
X46887633Y-95149899D01*
X46925326Y-95138465D01*
X46970661Y-95134000D01*
X47807339Y-95134000D01*
X47852674Y-95138465D01*
X47852674Y-95138465D01*
G37*
G36*
X45802674Y-95138465D02*
G01*
X45840367Y-95149899D01*
X45875103Y-95168466D01*
X45905548Y-95193452D01*
X45930534Y-95223897D01*
X45949101Y-95258633D01*
X45960535Y-95296326D01*
X45965000Y-95341661D01*
X45965000Y-96428339D01*
X45960535Y-96473674D01*
X45949101Y-96511367D01*
X45930534Y-96546103D01*
X45905548Y-96576548D01*
X45875103Y-96601534D01*
X45840367Y-96620101D01*
X45802674Y-96631535D01*
X45757339Y-96636000D01*
X44920661Y-96636000D01*
X44875326Y-96631535D01*
X44837633Y-96620101D01*
X44802897Y-96601534D01*
X44772452Y-96576548D01*
X44747466Y-96546103D01*
X44728899Y-96511367D01*
X44717465Y-96473674D01*
X44713000Y-96428339D01*
X44713000Y-95341661D01*
X44717465Y-95296326D01*
X44728899Y-95258633D01*
X44747466Y-95223897D01*
X44772452Y-95193452D01*
X44802897Y-95168466D01*
X44837633Y-95149899D01*
X44875326Y-95138465D01*
X44920661Y-95134000D01*
X45757339Y-95134000D01*
X45802674Y-95138465D01*
X45802674Y-95138465D01*
G37*
G36*
X43661674Y-95138465D02*
G01*
X43699367Y-95149899D01*
X43734103Y-95168466D01*
X43764548Y-95193452D01*
X43789534Y-95223897D01*
X43808101Y-95258633D01*
X43819535Y-95296326D01*
X43824000Y-95341661D01*
X43824000Y-96428339D01*
X43819535Y-96473674D01*
X43808101Y-96511367D01*
X43789534Y-96546103D01*
X43764548Y-96576548D01*
X43734103Y-96601534D01*
X43699367Y-96620101D01*
X43661674Y-96631535D01*
X43616339Y-96636000D01*
X42779661Y-96636000D01*
X42734326Y-96631535D01*
X42696633Y-96620101D01*
X42661897Y-96601534D01*
X42631452Y-96576548D01*
X42606466Y-96546103D01*
X42587899Y-96511367D01*
X42576465Y-96473674D01*
X42572000Y-96428339D01*
X42572000Y-95341661D01*
X42576465Y-95296326D01*
X42587899Y-95258633D01*
X42606466Y-95223897D01*
X42631452Y-95193452D01*
X42661897Y-95168466D01*
X42696633Y-95149899D01*
X42734326Y-95138465D01*
X42779661Y-95134000D01*
X43616339Y-95134000D01*
X43661674Y-95138465D01*
X43661674Y-95138465D01*
G37*
G36*
X41611674Y-95138465D02*
G01*
X41649367Y-95149899D01*
X41684103Y-95168466D01*
X41714548Y-95193452D01*
X41739534Y-95223897D01*
X41758101Y-95258633D01*
X41769535Y-95296326D01*
X41774000Y-95341661D01*
X41774000Y-96428339D01*
X41769535Y-96473674D01*
X41758101Y-96511367D01*
X41739534Y-96546103D01*
X41714548Y-96576548D01*
X41684103Y-96601534D01*
X41649367Y-96620101D01*
X41611674Y-96631535D01*
X41566339Y-96636000D01*
X40729661Y-96636000D01*
X40684326Y-96631535D01*
X40646633Y-96620101D01*
X40611897Y-96601534D01*
X40581452Y-96576548D01*
X40556466Y-96546103D01*
X40537899Y-96511367D01*
X40526465Y-96473674D01*
X40522000Y-96428339D01*
X40522000Y-95341661D01*
X40526465Y-95296326D01*
X40537899Y-95258633D01*
X40556466Y-95223897D01*
X40581452Y-95193452D01*
X40611897Y-95168466D01*
X40646633Y-95149899D01*
X40684326Y-95138465D01*
X40729661Y-95134000D01*
X41566339Y-95134000D01*
X41611674Y-95138465D01*
X41611674Y-95138465D01*
G37*
G36*
X67449000Y-92214000D02*
G01*
X65647000Y-92214000D01*
X65647000Y-90412000D01*
X67449000Y-90412000D01*
X67449000Y-92214000D01*
X67449000Y-92214000D01*
G37*
G36*
X63766000Y-92214000D02*
G01*
X61964000Y-92214000D01*
X61964000Y-90412000D01*
X63766000Y-90412000D01*
X63766000Y-92214000D01*
X63766000Y-92214000D01*
G37*
G36*
X56400000Y-92214000D02*
G01*
X54598000Y-92214000D01*
X54598000Y-90412000D01*
X56400000Y-90412000D01*
X56400000Y-92214000D01*
X56400000Y-92214000D01*
G37*
G36*
X52717000Y-92214000D02*
G01*
X50915000Y-92214000D01*
X50915000Y-90412000D01*
X52717000Y-90412000D01*
X52717000Y-92214000D01*
X52717000Y-92214000D01*
G37*
G36*
X71132000Y-92214000D02*
G01*
X69330000Y-92214000D01*
X69330000Y-90412000D01*
X71132000Y-90412000D01*
X71132000Y-92214000D01*
X71132000Y-92214000D01*
G37*
G36*
X60083000Y-92214000D02*
G01*
X58281000Y-92214000D01*
X58281000Y-90412000D01*
X60083000Y-90412000D01*
X60083000Y-92214000D01*
X60083000Y-92214000D01*
G37*
G36*
X56400000Y-88658000D02*
G01*
X54598000Y-88658000D01*
X54598000Y-86856000D01*
X56400000Y-86856000D01*
X56400000Y-88658000D01*
X56400000Y-88658000D01*
G37*
G36*
X71132000Y-88658000D02*
G01*
X69330000Y-88658000D01*
X69330000Y-86856000D01*
X71132000Y-86856000D01*
X71132000Y-88658000D01*
X71132000Y-88658000D01*
G37*
G36*
X52717000Y-88658000D02*
G01*
X50915000Y-88658000D01*
X50915000Y-86856000D01*
X52717000Y-86856000D01*
X52717000Y-88658000D01*
X52717000Y-88658000D01*
G37*
G36*
X67449000Y-88531000D02*
G01*
X65647000Y-88531000D01*
X65647000Y-86729000D01*
X67449000Y-86729000D01*
X67449000Y-88531000D01*
X67449000Y-88531000D01*
G37*
G36*
X63766000Y-88531000D02*
G01*
X61964000Y-88531000D01*
X61964000Y-86729000D01*
X63766000Y-86729000D01*
X63766000Y-88531000D01*
X63766000Y-88531000D01*
G37*
M02*
