G04 #@! TF.GenerationSoftware,KiCad,Pcbnew,(5.1.4)-1*
G04 #@! TF.CreationDate,2019-11-24T23:21:18+05:30*
G04 #@! TF.ProjectId,half_bridge_fd6288_v3.0,68616c66-5f62-4726-9964-67655f666436,rev?*
G04 #@! TF.SameCoordinates,Original*
G04 #@! TF.FileFunction,Legend,Bot*
G04 #@! TF.FilePolarity,Positive*
%FSLAX46Y46*%
G04 Gerber Fmt 4.6, Leading zero omitted, Abs format (unit mm)*
G04 Created by KiCad (PCBNEW (5.1.4)-1) date 2019-11-24 23:21:18*
%MOMM*%
%LPD*%
G04 APERTURE LIST*
%ADD10C,0.120000*%
%ADD11C,0.150000*%
G04 APERTURE END LIST*
D10*
X50494000Y-111250252D02*
X50494000Y-110727748D01*
X49074000Y-111250252D02*
X49074000Y-110727748D01*
X52399000Y-99569748D02*
X52399000Y-100092252D01*
X50979000Y-99569748D02*
X50979000Y-100092252D01*
X54812000Y-100074252D02*
X54812000Y-99551748D01*
X53392000Y-100074252D02*
X53392000Y-99551748D01*
X53392000Y-95505748D02*
X53392000Y-96028252D01*
X54812000Y-95505748D02*
X54812000Y-96028252D01*
X65988000Y-112402252D02*
X65988000Y-111879748D01*
X64568000Y-112402252D02*
X64568000Y-111879748D01*
X62790000Y-99551748D02*
X62790000Y-100074252D01*
X64210000Y-99551748D02*
X64210000Y-100074252D01*
X60631000Y-100074252D02*
X60631000Y-99551748D01*
X62051000Y-100074252D02*
X62051000Y-99551748D01*
X60631000Y-95505748D02*
X60631000Y-96028252D01*
X62051000Y-95505748D02*
X62051000Y-96028252D01*
X70029000Y-99678748D02*
X70029000Y-100201252D01*
X71449000Y-99678748D02*
X71449000Y-100201252D01*
X67870000Y-100219252D02*
X67870000Y-99696748D01*
X69290000Y-100219252D02*
X69290000Y-99696748D01*
X69290000Y-95741748D02*
X69290000Y-96264252D01*
X67870000Y-95741748D02*
X67870000Y-96264252D01*
X81228000Y-111268252D02*
X81228000Y-110745748D01*
X79808000Y-111268252D02*
X79808000Y-110745748D01*
D11*
X45307238Y-117895619D02*
X45402476Y-117848000D01*
X45497714Y-117752761D01*
X45640571Y-117609904D01*
X45735809Y-117562285D01*
X45831047Y-117562285D01*
X45783428Y-117800380D02*
X45878666Y-117752761D01*
X45973904Y-117657523D01*
X46021523Y-117467047D01*
X46021523Y-117133714D01*
X45973904Y-116943238D01*
X45878666Y-116848000D01*
X45783428Y-116800380D01*
X45592952Y-116800380D01*
X45497714Y-116848000D01*
X45402476Y-116943238D01*
X45354857Y-117133714D01*
X45354857Y-117467047D01*
X45402476Y-117657523D01*
X45497714Y-117752761D01*
X45592952Y-117800380D01*
X45783428Y-117800380D01*
X44973904Y-116895619D02*
X44926285Y-116848000D01*
X44831047Y-116800380D01*
X44592952Y-116800380D01*
X44497714Y-116848000D01*
X44450095Y-116895619D01*
X44402476Y-116990857D01*
X44402476Y-117086095D01*
X44450095Y-117228952D01*
X45021523Y-117800380D01*
X44402476Y-117800380D01*
X60801238Y-117895619D02*
X60896476Y-117848000D01*
X60991714Y-117752761D01*
X61134571Y-117609904D01*
X61229809Y-117562285D01*
X61325047Y-117562285D01*
X61277428Y-117800380D02*
X61372666Y-117752761D01*
X61467904Y-117657523D01*
X61515523Y-117467047D01*
X61515523Y-117133714D01*
X61467904Y-116943238D01*
X61372666Y-116848000D01*
X61277428Y-116800380D01*
X61086952Y-116800380D01*
X60991714Y-116848000D01*
X60896476Y-116943238D01*
X60848857Y-117133714D01*
X60848857Y-117467047D01*
X60896476Y-117657523D01*
X60991714Y-117752761D01*
X61086952Y-117800380D01*
X61277428Y-117800380D01*
X59991714Y-117133714D02*
X59991714Y-117800380D01*
X60229809Y-116752761D02*
X60467904Y-117467047D01*
X59848857Y-117467047D01*
X76041238Y-117895619D02*
X76136476Y-117848000D01*
X76231714Y-117752761D01*
X76374571Y-117609904D01*
X76469809Y-117562285D01*
X76565047Y-117562285D01*
X76517428Y-117800380D02*
X76612666Y-117752761D01*
X76707904Y-117657523D01*
X76755523Y-117467047D01*
X76755523Y-117133714D01*
X76707904Y-116943238D01*
X76612666Y-116848000D01*
X76517428Y-116800380D01*
X76326952Y-116800380D01*
X76231714Y-116848000D01*
X76136476Y-116943238D01*
X76088857Y-117133714D01*
X76088857Y-117467047D01*
X76136476Y-117657523D01*
X76231714Y-117752761D01*
X76326952Y-117800380D01*
X76517428Y-117800380D01*
X75231714Y-116800380D02*
X75422190Y-116800380D01*
X75517428Y-116848000D01*
X75565047Y-116895619D01*
X75660285Y-117038476D01*
X75707904Y-117228952D01*
X75707904Y-117609904D01*
X75660285Y-117705142D01*
X75612666Y-117752761D01*
X75517428Y-117800380D01*
X75326952Y-117800380D01*
X75231714Y-117752761D01*
X75184095Y-117705142D01*
X75136476Y-117609904D01*
X75136476Y-117371809D01*
X75184095Y-117276571D01*
X75231714Y-117228952D01*
X75326952Y-117181333D01*
X75517428Y-117181333D01*
X75612666Y-117228952D01*
X75660285Y-117276571D01*
X75707904Y-117371809D01*
X51886380Y-110822333D02*
X51410190Y-110489000D01*
X51886380Y-110250904D02*
X50886380Y-110250904D01*
X50886380Y-110631857D01*
X50934000Y-110727095D01*
X50981619Y-110774714D01*
X51076857Y-110822333D01*
X51219714Y-110822333D01*
X51314952Y-110774714D01*
X51362571Y-110727095D01*
X51410190Y-110631857D01*
X51410190Y-110250904D01*
X50886380Y-111155666D02*
X50886380Y-111822333D01*
X51886380Y-111393761D01*
X50236380Y-99528333D02*
X49760190Y-99195000D01*
X50236380Y-98956904D02*
X49236380Y-98956904D01*
X49236380Y-99337857D01*
X49284000Y-99433095D01*
X49331619Y-99480714D01*
X49426857Y-99528333D01*
X49569714Y-99528333D01*
X49664952Y-99480714D01*
X49712571Y-99433095D01*
X49760190Y-99337857D01*
X49760190Y-98956904D01*
X50236380Y-100004523D02*
X50236380Y-100195000D01*
X50188761Y-100290238D01*
X50141142Y-100337857D01*
X49998285Y-100433095D01*
X49807809Y-100480714D01*
X49426857Y-100480714D01*
X49331619Y-100433095D01*
X49284000Y-100385476D01*
X49236380Y-100290238D01*
X49236380Y-100099761D01*
X49284000Y-100004523D01*
X49331619Y-99956904D01*
X49426857Y-99909285D01*
X49664952Y-99909285D01*
X49760190Y-99956904D01*
X49807809Y-100004523D01*
X49855428Y-100099761D01*
X49855428Y-100290238D01*
X49807809Y-100385476D01*
X49760190Y-100433095D01*
X49664952Y-100480714D01*
X54681380Y-102608142D02*
X54205190Y-102274809D01*
X54681380Y-102036714D02*
X53681380Y-102036714D01*
X53681380Y-102417666D01*
X53729000Y-102512904D01*
X53776619Y-102560523D01*
X53871857Y-102608142D01*
X54014714Y-102608142D01*
X54109952Y-102560523D01*
X54157571Y-102512904D01*
X54205190Y-102417666D01*
X54205190Y-102036714D01*
X54681380Y-103560523D02*
X54681380Y-102989095D01*
X54681380Y-103274809D02*
X53681380Y-103274809D01*
X53824238Y-103179571D01*
X53919476Y-103084333D01*
X53967095Y-102989095D01*
X53681380Y-104179571D02*
X53681380Y-104274809D01*
X53729000Y-104370047D01*
X53776619Y-104417666D01*
X53871857Y-104465285D01*
X54062333Y-104512904D01*
X54300428Y-104512904D01*
X54490904Y-104465285D01*
X54586142Y-104417666D01*
X54633761Y-104370047D01*
X54681380Y-104274809D01*
X54681380Y-104179571D01*
X54633761Y-104084333D01*
X54586142Y-104036714D01*
X54490904Y-103989095D01*
X54300428Y-103941476D01*
X54062333Y-103941476D01*
X53871857Y-103989095D01*
X53776619Y-104036714D01*
X53729000Y-104084333D01*
X53681380Y-104179571D01*
X52776380Y-95115142D02*
X52300190Y-94781809D01*
X52776380Y-94543714D02*
X51776380Y-94543714D01*
X51776380Y-94924666D01*
X51824000Y-95019904D01*
X51871619Y-95067523D01*
X51966857Y-95115142D01*
X52109714Y-95115142D01*
X52204952Y-95067523D01*
X52252571Y-95019904D01*
X52300190Y-94924666D01*
X52300190Y-94543714D01*
X52776380Y-96067523D02*
X52776380Y-95496095D01*
X52776380Y-95781809D02*
X51776380Y-95781809D01*
X51919238Y-95686571D01*
X52014476Y-95591333D01*
X52062095Y-95496095D01*
X52776380Y-97019904D02*
X52776380Y-96448476D01*
X52776380Y-96734190D02*
X51776380Y-96734190D01*
X51919238Y-96638952D01*
X52014476Y-96543714D01*
X52062095Y-96448476D01*
X67380380Y-111498142D02*
X66904190Y-111164809D01*
X67380380Y-110926714D02*
X66380380Y-110926714D01*
X66380380Y-111307666D01*
X66428000Y-111402904D01*
X66475619Y-111450523D01*
X66570857Y-111498142D01*
X66713714Y-111498142D01*
X66808952Y-111450523D01*
X66856571Y-111402904D01*
X66904190Y-111307666D01*
X66904190Y-110926714D01*
X67380380Y-112450523D02*
X67380380Y-111879095D01*
X67380380Y-112164809D02*
X66380380Y-112164809D01*
X66523238Y-112069571D01*
X66618476Y-111974333D01*
X66666095Y-111879095D01*
X66475619Y-112831476D02*
X66428000Y-112879095D01*
X66380380Y-112974333D01*
X66380380Y-113212428D01*
X66428000Y-113307666D01*
X66475619Y-113355285D01*
X66570857Y-113402904D01*
X66666095Y-113402904D01*
X66808952Y-113355285D01*
X67380380Y-112783857D01*
X67380380Y-113402904D01*
X63825380Y-102862142D02*
X63349190Y-102528809D01*
X63825380Y-102290714D02*
X62825380Y-102290714D01*
X62825380Y-102671666D01*
X62873000Y-102766904D01*
X62920619Y-102814523D01*
X63015857Y-102862142D01*
X63158714Y-102862142D01*
X63253952Y-102814523D01*
X63301571Y-102766904D01*
X63349190Y-102671666D01*
X63349190Y-102290714D01*
X63825380Y-103814523D02*
X63825380Y-103243095D01*
X63825380Y-103528809D02*
X62825380Y-103528809D01*
X62968238Y-103433571D01*
X63063476Y-103338333D01*
X63111095Y-103243095D01*
X63158714Y-104671666D02*
X63825380Y-104671666D01*
X62777761Y-104433571D02*
X63492047Y-104195476D01*
X63492047Y-104814523D01*
X59761380Y-99052142D02*
X59285190Y-98718809D01*
X59761380Y-98480714D02*
X58761380Y-98480714D01*
X58761380Y-98861666D01*
X58809000Y-98956904D01*
X58856619Y-99004523D01*
X58951857Y-99052142D01*
X59094714Y-99052142D01*
X59189952Y-99004523D01*
X59237571Y-98956904D01*
X59285190Y-98861666D01*
X59285190Y-98480714D01*
X59761380Y-100004523D02*
X59761380Y-99433095D01*
X59761380Y-99718809D02*
X58761380Y-99718809D01*
X58904238Y-99623571D01*
X58999476Y-99528333D01*
X59047095Y-99433095D01*
X58761380Y-100909285D02*
X58761380Y-100433095D01*
X59237571Y-100385476D01*
X59189952Y-100433095D01*
X59142333Y-100528333D01*
X59142333Y-100766428D01*
X59189952Y-100861666D01*
X59237571Y-100909285D01*
X59332809Y-100956904D01*
X59570904Y-100956904D01*
X59666142Y-100909285D01*
X59713761Y-100861666D01*
X59761380Y-100766428D01*
X59761380Y-100528333D01*
X59713761Y-100433095D01*
X59666142Y-100385476D01*
X59761380Y-95115142D02*
X59285190Y-94781809D01*
X59761380Y-94543714D02*
X58761380Y-94543714D01*
X58761380Y-94924666D01*
X58809000Y-95019904D01*
X58856619Y-95067523D01*
X58951857Y-95115142D01*
X59094714Y-95115142D01*
X59189952Y-95067523D01*
X59237571Y-95019904D01*
X59285190Y-94924666D01*
X59285190Y-94543714D01*
X59761380Y-96067523D02*
X59761380Y-95496095D01*
X59761380Y-95781809D02*
X58761380Y-95781809D01*
X58904238Y-95686571D01*
X58999476Y-95591333D01*
X59047095Y-95496095D01*
X58761380Y-96924666D02*
X58761380Y-96734190D01*
X58809000Y-96638952D01*
X58856619Y-96591333D01*
X58999476Y-96496095D01*
X59189952Y-96448476D01*
X59570904Y-96448476D01*
X59666142Y-96496095D01*
X59713761Y-96543714D01*
X59761380Y-96638952D01*
X59761380Y-96829428D01*
X59713761Y-96924666D01*
X59666142Y-96972285D01*
X59570904Y-97019904D01*
X59332809Y-97019904D01*
X59237571Y-96972285D01*
X59189952Y-96924666D01*
X59142333Y-96829428D01*
X59142333Y-96638952D01*
X59189952Y-96543714D01*
X59237571Y-96496095D01*
X59332809Y-96448476D01*
X73477380Y-99297142D02*
X73001190Y-98963809D01*
X73477380Y-98725714D02*
X72477380Y-98725714D01*
X72477380Y-99106666D01*
X72525000Y-99201904D01*
X72572619Y-99249523D01*
X72667857Y-99297142D01*
X72810714Y-99297142D01*
X72905952Y-99249523D01*
X72953571Y-99201904D01*
X73001190Y-99106666D01*
X73001190Y-98725714D01*
X73477380Y-100249523D02*
X73477380Y-99678095D01*
X73477380Y-99963809D02*
X72477380Y-99963809D01*
X72620238Y-99868571D01*
X72715476Y-99773333D01*
X72763095Y-99678095D01*
X72477380Y-100582857D02*
X72477380Y-101249523D01*
X73477380Y-100820952D01*
X67127380Y-99052142D02*
X66651190Y-98718809D01*
X67127380Y-98480714D02*
X66127380Y-98480714D01*
X66127380Y-98861666D01*
X66175000Y-98956904D01*
X66222619Y-99004523D01*
X66317857Y-99052142D01*
X66460714Y-99052142D01*
X66555952Y-99004523D01*
X66603571Y-98956904D01*
X66651190Y-98861666D01*
X66651190Y-98480714D01*
X67127380Y-100004523D02*
X67127380Y-99433095D01*
X67127380Y-99718809D02*
X66127380Y-99718809D01*
X66270238Y-99623571D01*
X66365476Y-99528333D01*
X66413095Y-99433095D01*
X66555952Y-100575952D02*
X66508333Y-100480714D01*
X66460714Y-100433095D01*
X66365476Y-100385476D01*
X66317857Y-100385476D01*
X66222619Y-100433095D01*
X66175000Y-100480714D01*
X66127380Y-100575952D01*
X66127380Y-100766428D01*
X66175000Y-100861666D01*
X66222619Y-100909285D01*
X66317857Y-100956904D01*
X66365476Y-100956904D01*
X66460714Y-100909285D01*
X66508333Y-100861666D01*
X66555952Y-100766428D01*
X66555952Y-100575952D01*
X66603571Y-100480714D01*
X66651190Y-100433095D01*
X66746428Y-100385476D01*
X66936904Y-100385476D01*
X67032142Y-100433095D01*
X67079761Y-100480714D01*
X67127380Y-100575952D01*
X67127380Y-100766428D01*
X67079761Y-100861666D01*
X67032142Y-100909285D01*
X66936904Y-100956904D01*
X66746428Y-100956904D01*
X66651190Y-100909285D01*
X66603571Y-100861666D01*
X66555952Y-100766428D01*
X67127380Y-95496142D02*
X66651190Y-95162809D01*
X67127380Y-94924714D02*
X66127380Y-94924714D01*
X66127380Y-95305666D01*
X66175000Y-95400904D01*
X66222619Y-95448523D01*
X66317857Y-95496142D01*
X66460714Y-95496142D01*
X66555952Y-95448523D01*
X66603571Y-95400904D01*
X66651190Y-95305666D01*
X66651190Y-94924714D01*
X67127380Y-96448523D02*
X67127380Y-95877095D01*
X67127380Y-96162809D02*
X66127380Y-96162809D01*
X66270238Y-96067571D01*
X66365476Y-95972333D01*
X66413095Y-95877095D01*
X67127380Y-96924714D02*
X67127380Y-97115190D01*
X67079761Y-97210428D01*
X67032142Y-97258047D01*
X66889285Y-97353285D01*
X66698809Y-97400904D01*
X66317857Y-97400904D01*
X66222619Y-97353285D01*
X66175000Y-97305666D01*
X66127380Y-97210428D01*
X66127380Y-97019952D01*
X66175000Y-96924714D01*
X66222619Y-96877095D01*
X66317857Y-96829476D01*
X66555952Y-96829476D01*
X66651190Y-96877095D01*
X66698809Y-96924714D01*
X66746428Y-97019952D01*
X66746428Y-97210428D01*
X66698809Y-97305666D01*
X66651190Y-97353285D01*
X66555952Y-97400904D01*
X82620380Y-110364142D02*
X82144190Y-110030809D01*
X82620380Y-109792714D02*
X81620380Y-109792714D01*
X81620380Y-110173666D01*
X81668000Y-110268904D01*
X81715619Y-110316523D01*
X81810857Y-110364142D01*
X81953714Y-110364142D01*
X82048952Y-110316523D01*
X82096571Y-110268904D01*
X82144190Y-110173666D01*
X82144190Y-109792714D01*
X81715619Y-110745095D02*
X81668000Y-110792714D01*
X81620380Y-110887952D01*
X81620380Y-111126047D01*
X81668000Y-111221285D01*
X81715619Y-111268904D01*
X81810857Y-111316523D01*
X81906095Y-111316523D01*
X82048952Y-111268904D01*
X82620380Y-110697476D01*
X82620380Y-111316523D01*
X81620380Y-111935571D02*
X81620380Y-112030809D01*
X81668000Y-112126047D01*
X81715619Y-112173666D01*
X81810857Y-112221285D01*
X82001333Y-112268904D01*
X82239428Y-112268904D01*
X82429904Y-112221285D01*
X82525142Y-112173666D01*
X82572761Y-112126047D01*
X82620380Y-112030809D01*
X82620380Y-111935571D01*
X82572761Y-111840333D01*
X82525142Y-111792714D01*
X82429904Y-111745095D01*
X82239428Y-111697476D01*
X82001333Y-111697476D01*
X81810857Y-111745095D01*
X81715619Y-111792714D01*
X81668000Y-111840333D01*
X81620380Y-111935571D01*
M02*
