G04 #@! TF.GenerationSoftware,KiCad,Pcbnew,(5.1.4)-1*
G04 #@! TF.CreationDate,2019-11-24T23:21:18+05:30*
G04 #@! TF.ProjectId,half_bridge_fd6288_v3.0,68616c66-5f62-4726-9964-67655f666436,rev?*
G04 #@! TF.SameCoordinates,Original*
G04 #@! TF.FileFunction,Legend,Top*
G04 #@! TF.FilePolarity,Positive*
%FSLAX46Y46*%
G04 Gerber Fmt 4.6, Leading zero omitted, Abs format (unit mm)*
G04 Created by KiCad (PCBNEW (5.1.4)-1) date 2019-11-24 23:21:18*
%MOMM*%
%LPD*%
G04 APERTURE LIST*
%ADD10C,0.120000*%
%ADD11C,0.150000*%
G04 APERTURE END LIST*
D10*
X42425252Y-100255000D02*
X41902748Y-100255000D01*
X42425252Y-101675000D02*
X41902748Y-101675000D01*
X42434252Y-96595000D02*
X41911748Y-96595000D01*
X42434252Y-95175000D02*
X41911748Y-95175000D01*
X42416252Y-105208000D02*
X41893748Y-105208000D01*
X42416252Y-106628000D02*
X41893748Y-106628000D01*
X46625252Y-96595000D02*
X46102748Y-96595000D01*
X46625252Y-95175000D02*
X46102748Y-95175000D01*
X42425252Y-102668000D02*
X41902748Y-102668000D01*
X42425252Y-104088000D02*
X41902748Y-104088000D01*
X42425252Y-99135000D02*
X41902748Y-99135000D01*
X42425252Y-97715000D02*
X41902748Y-97715000D01*
X46625252Y-98881000D02*
X46102748Y-98881000D01*
X46625252Y-97461000D02*
X46102748Y-97461000D01*
X46616252Y-99874000D02*
X46093748Y-99874000D01*
X46616252Y-101294000D02*
X46093748Y-101294000D01*
X46743252Y-103707000D02*
X46220748Y-103707000D01*
X46743252Y-102287000D02*
X46220748Y-102287000D01*
X41350000Y-114824252D02*
X41350000Y-114301748D01*
X39930000Y-114824252D02*
X39930000Y-114301748D01*
X56844000Y-116333748D02*
X56844000Y-116856252D01*
X55424000Y-116333748D02*
X55424000Y-116856252D01*
X70664000Y-116324748D02*
X70664000Y-116847252D01*
X72084000Y-116324748D02*
X72084000Y-116847252D01*
X50494000Y-116838252D02*
X50494000Y-116315748D01*
X49074000Y-116838252D02*
X49074000Y-116315748D01*
X65988000Y-116847252D02*
X65988000Y-116324748D01*
X64568000Y-116847252D02*
X64568000Y-116324748D01*
X79808000Y-114301748D02*
X79808000Y-114824252D01*
X81228000Y-114301748D02*
X81228000Y-114824252D01*
X61535000Y-89983000D02*
X62865000Y-89983000D01*
X61535000Y-91313000D02*
X61535000Y-89983000D01*
X61535000Y-92583000D02*
X64195000Y-92583000D01*
X64195000Y-92583000D02*
X64195000Y-92643000D01*
X61535000Y-92583000D02*
X61535000Y-92643000D01*
X61535000Y-92643000D02*
X64195000Y-92643000D01*
X65218000Y-92643000D02*
X67878000Y-92643000D01*
X65218000Y-92583000D02*
X65218000Y-92643000D01*
X67878000Y-92583000D02*
X67878000Y-92643000D01*
X65218000Y-92583000D02*
X67878000Y-92583000D01*
X65218000Y-91313000D02*
X65218000Y-89983000D01*
X65218000Y-89983000D02*
X66548000Y-89983000D01*
X68901000Y-89983000D02*
X70231000Y-89983000D01*
X68901000Y-91313000D02*
X68901000Y-89983000D01*
X68901000Y-92583000D02*
X71561000Y-92583000D01*
X71561000Y-92583000D02*
X71561000Y-92643000D01*
X68901000Y-92583000D02*
X68901000Y-92643000D01*
X68901000Y-92643000D02*
X71561000Y-92643000D01*
X50486000Y-92643000D02*
X53146000Y-92643000D01*
X50486000Y-92583000D02*
X50486000Y-92643000D01*
X53146000Y-92583000D02*
X53146000Y-92643000D01*
X50486000Y-92583000D02*
X53146000Y-92583000D01*
X50486000Y-91313000D02*
X50486000Y-89983000D01*
X50486000Y-89983000D02*
X51816000Y-89983000D01*
X54169000Y-89983000D02*
X55499000Y-89983000D01*
X54169000Y-91313000D02*
X54169000Y-89983000D01*
X54169000Y-92583000D02*
X56829000Y-92583000D01*
X56829000Y-92583000D02*
X56829000Y-92643000D01*
X54169000Y-92583000D02*
X54169000Y-92643000D01*
X54169000Y-92643000D02*
X56829000Y-92643000D01*
X57852000Y-92643000D02*
X60512000Y-92643000D01*
X57852000Y-92583000D02*
X57852000Y-92643000D01*
X60512000Y-92583000D02*
X60512000Y-92643000D01*
X57852000Y-92583000D02*
X60512000Y-92583000D01*
X57852000Y-91313000D02*
X57852000Y-89983000D01*
X57852000Y-89983000D02*
X59182000Y-89983000D01*
X50486000Y-86427000D02*
X51816000Y-86427000D01*
X50486000Y-87757000D02*
X50486000Y-86427000D01*
X50486000Y-89027000D02*
X53146000Y-89027000D01*
X53146000Y-89027000D02*
X53146000Y-89087000D01*
X50486000Y-89027000D02*
X50486000Y-89087000D01*
X50486000Y-89087000D02*
X53146000Y-89087000D01*
X61535000Y-88960000D02*
X64195000Y-88960000D01*
X61535000Y-88900000D02*
X61535000Y-88960000D01*
X64195000Y-88900000D02*
X64195000Y-88960000D01*
X61535000Y-88900000D02*
X64195000Y-88900000D01*
X61535000Y-87630000D02*
X61535000Y-86300000D01*
X61535000Y-86300000D02*
X62865000Y-86300000D01*
X68901000Y-86427000D02*
X70231000Y-86427000D01*
X68901000Y-87757000D02*
X68901000Y-86427000D01*
X68901000Y-89027000D02*
X71561000Y-89027000D01*
X71561000Y-89027000D02*
X71561000Y-89087000D01*
X68901000Y-89027000D02*
X68901000Y-89087000D01*
X68901000Y-89087000D02*
X71561000Y-89087000D01*
X65218000Y-88960000D02*
X67878000Y-88960000D01*
X65218000Y-88900000D02*
X65218000Y-88960000D01*
X67878000Y-88900000D02*
X67878000Y-88960000D01*
X65218000Y-88900000D02*
X67878000Y-88900000D01*
X65218000Y-87630000D02*
X65218000Y-86300000D01*
X65218000Y-86300000D02*
X66548000Y-86300000D01*
X54169000Y-89087000D02*
X56829000Y-89087000D01*
X54169000Y-89027000D02*
X54169000Y-89087000D01*
X56829000Y-89027000D02*
X56829000Y-89087000D01*
X54169000Y-89027000D02*
X56829000Y-89027000D01*
X54169000Y-87757000D02*
X54169000Y-86427000D01*
X54169000Y-86427000D02*
X55499000Y-86427000D01*
D11*
X63415000Y-104549000D02*
X63315000Y-104549000D01*
X56590000Y-104549000D02*
X56615000Y-104549000D01*
X56590000Y-99899000D02*
X56615000Y-99899000D01*
X63415000Y-98824000D02*
X63415000Y-104549000D01*
X56590000Y-99899000D02*
X56590000Y-104549000D01*
D10*
X39680000Y-109499000D02*
X39680000Y-112359000D01*
X39680000Y-112359000D02*
X41600000Y-112359000D01*
X41600000Y-112359000D02*
X41600000Y-109499000D01*
X52888000Y-115595000D02*
X52888000Y-118455000D01*
X52888000Y-118455000D02*
X54808000Y-118455000D01*
X54808000Y-118455000D02*
X54808000Y-115595000D01*
X70048000Y-118455000D02*
X70048000Y-115595000D01*
X68128000Y-118455000D02*
X70048000Y-118455000D01*
X68128000Y-115595000D02*
X68128000Y-118455000D01*
D11*
X41997333Y-102972142D02*
X41949714Y-103019761D01*
X41806857Y-103067380D01*
X41711619Y-103067380D01*
X41568761Y-103019761D01*
X41473523Y-102924523D01*
X41425904Y-102829285D01*
X41378285Y-102638809D01*
X41378285Y-102495952D01*
X41425904Y-102305476D01*
X41473523Y-102210238D01*
X41568761Y-102115000D01*
X41711619Y-102067380D01*
X41806857Y-102067380D01*
X41949714Y-102115000D01*
X41997333Y-102162619D01*
X42949714Y-103067380D02*
X42378285Y-103067380D01*
X42664000Y-103067380D02*
X42664000Y-102067380D01*
X42568761Y-102210238D01*
X42473523Y-102305476D01*
X42378285Y-102353095D01*
X42006333Y-97892142D02*
X41958714Y-97939761D01*
X41815857Y-97987380D01*
X41720619Y-97987380D01*
X41577761Y-97939761D01*
X41482523Y-97844523D01*
X41434904Y-97749285D01*
X41387285Y-97558809D01*
X41387285Y-97415952D01*
X41434904Y-97225476D01*
X41482523Y-97130238D01*
X41577761Y-97035000D01*
X41720619Y-96987380D01*
X41815857Y-96987380D01*
X41958714Y-97035000D01*
X42006333Y-97082619D01*
X42387285Y-97082619D02*
X42434904Y-97035000D01*
X42530142Y-96987380D01*
X42768238Y-96987380D01*
X42863476Y-97035000D01*
X42911095Y-97082619D01*
X42958714Y-97177857D01*
X42958714Y-97273095D01*
X42911095Y-97415952D01*
X42339666Y-97987380D01*
X42958714Y-97987380D01*
X41988333Y-107925142D02*
X41940714Y-107972761D01*
X41797857Y-108020380D01*
X41702619Y-108020380D01*
X41559761Y-107972761D01*
X41464523Y-107877523D01*
X41416904Y-107782285D01*
X41369285Y-107591809D01*
X41369285Y-107448952D01*
X41416904Y-107258476D01*
X41464523Y-107163238D01*
X41559761Y-107068000D01*
X41702619Y-107020380D01*
X41797857Y-107020380D01*
X41940714Y-107068000D01*
X41988333Y-107115619D01*
X42321666Y-107020380D02*
X42940714Y-107020380D01*
X42607380Y-107401333D01*
X42750238Y-107401333D01*
X42845476Y-107448952D01*
X42893095Y-107496571D01*
X42940714Y-107591809D01*
X42940714Y-107829904D01*
X42893095Y-107925142D01*
X42845476Y-107972761D01*
X42750238Y-108020380D01*
X42464523Y-108020380D01*
X42369285Y-107972761D01*
X42321666Y-107925142D01*
X46197333Y-97892142D02*
X46149714Y-97939761D01*
X46006857Y-97987380D01*
X45911619Y-97987380D01*
X45768761Y-97939761D01*
X45673523Y-97844523D01*
X45625904Y-97749285D01*
X45578285Y-97558809D01*
X45578285Y-97415952D01*
X45625904Y-97225476D01*
X45673523Y-97130238D01*
X45768761Y-97035000D01*
X45911619Y-96987380D01*
X46006857Y-96987380D01*
X46149714Y-97035000D01*
X46197333Y-97082619D01*
X47054476Y-97320714D02*
X47054476Y-97987380D01*
X46816380Y-96939761D02*
X46578285Y-97654047D01*
X47197333Y-97654047D01*
X41997333Y-105385142D02*
X41949714Y-105432761D01*
X41806857Y-105480380D01*
X41711619Y-105480380D01*
X41568761Y-105432761D01*
X41473523Y-105337523D01*
X41425904Y-105242285D01*
X41378285Y-105051809D01*
X41378285Y-104908952D01*
X41425904Y-104718476D01*
X41473523Y-104623238D01*
X41568761Y-104528000D01*
X41711619Y-104480380D01*
X41806857Y-104480380D01*
X41949714Y-104528000D01*
X41997333Y-104575619D01*
X42902095Y-104480380D02*
X42425904Y-104480380D01*
X42378285Y-104956571D01*
X42425904Y-104908952D01*
X42521142Y-104861333D01*
X42759238Y-104861333D01*
X42854476Y-104908952D01*
X42902095Y-104956571D01*
X42949714Y-105051809D01*
X42949714Y-105289904D01*
X42902095Y-105385142D01*
X42854476Y-105432761D01*
X42759238Y-105480380D01*
X42521142Y-105480380D01*
X42425904Y-105432761D01*
X42378285Y-105385142D01*
X41997333Y-100432142D02*
X41949714Y-100479761D01*
X41806857Y-100527380D01*
X41711619Y-100527380D01*
X41568761Y-100479761D01*
X41473523Y-100384523D01*
X41425904Y-100289285D01*
X41378285Y-100098809D01*
X41378285Y-99955952D01*
X41425904Y-99765476D01*
X41473523Y-99670238D01*
X41568761Y-99575000D01*
X41711619Y-99527380D01*
X41806857Y-99527380D01*
X41949714Y-99575000D01*
X41997333Y-99622619D01*
X42854476Y-99527380D02*
X42664000Y-99527380D01*
X42568761Y-99575000D01*
X42521142Y-99622619D01*
X42425904Y-99765476D01*
X42378285Y-99955952D01*
X42378285Y-100336904D01*
X42425904Y-100432142D01*
X42473523Y-100479761D01*
X42568761Y-100527380D01*
X42759238Y-100527380D01*
X42854476Y-100479761D01*
X42902095Y-100432142D01*
X42949714Y-100336904D01*
X42949714Y-100098809D01*
X42902095Y-100003571D01*
X42854476Y-99955952D01*
X42759238Y-99908333D01*
X42568761Y-99908333D01*
X42473523Y-99955952D01*
X42425904Y-100003571D01*
X42378285Y-100098809D01*
X46197333Y-100178142D02*
X46149714Y-100225761D01*
X46006857Y-100273380D01*
X45911619Y-100273380D01*
X45768761Y-100225761D01*
X45673523Y-100130523D01*
X45625904Y-100035285D01*
X45578285Y-99844809D01*
X45578285Y-99701952D01*
X45625904Y-99511476D01*
X45673523Y-99416238D01*
X45768761Y-99321000D01*
X45911619Y-99273380D01*
X46006857Y-99273380D01*
X46149714Y-99321000D01*
X46197333Y-99368619D01*
X46530666Y-99273380D02*
X47197333Y-99273380D01*
X46768761Y-100273380D01*
X46188333Y-102591142D02*
X46140714Y-102638761D01*
X45997857Y-102686380D01*
X45902619Y-102686380D01*
X45759761Y-102638761D01*
X45664523Y-102543523D01*
X45616904Y-102448285D01*
X45569285Y-102257809D01*
X45569285Y-102114952D01*
X45616904Y-101924476D01*
X45664523Y-101829238D01*
X45759761Y-101734000D01*
X45902619Y-101686380D01*
X45997857Y-101686380D01*
X46140714Y-101734000D01*
X46188333Y-101781619D01*
X46759761Y-102114952D02*
X46664523Y-102067333D01*
X46616904Y-102019714D01*
X46569285Y-101924476D01*
X46569285Y-101876857D01*
X46616904Y-101781619D01*
X46664523Y-101734000D01*
X46759761Y-101686380D01*
X46950238Y-101686380D01*
X47045476Y-101734000D01*
X47093095Y-101781619D01*
X47140714Y-101876857D01*
X47140714Y-101924476D01*
X47093095Y-102019714D01*
X47045476Y-102067333D01*
X46950238Y-102114952D01*
X46759761Y-102114952D01*
X46664523Y-102162571D01*
X46616904Y-102210190D01*
X46569285Y-102305428D01*
X46569285Y-102495904D01*
X46616904Y-102591142D01*
X46664523Y-102638761D01*
X46759761Y-102686380D01*
X46950238Y-102686380D01*
X47045476Y-102638761D01*
X47093095Y-102591142D01*
X47140714Y-102495904D01*
X47140714Y-102305428D01*
X47093095Y-102210190D01*
X47045476Y-102162571D01*
X46950238Y-102114952D01*
X46315333Y-105004142D02*
X46267714Y-105051761D01*
X46124857Y-105099380D01*
X46029619Y-105099380D01*
X45886761Y-105051761D01*
X45791523Y-104956523D01*
X45743904Y-104861285D01*
X45696285Y-104670809D01*
X45696285Y-104527952D01*
X45743904Y-104337476D01*
X45791523Y-104242238D01*
X45886761Y-104147000D01*
X46029619Y-104099380D01*
X46124857Y-104099380D01*
X46267714Y-104147000D01*
X46315333Y-104194619D01*
X46791523Y-105099380D02*
X46982000Y-105099380D01*
X47077238Y-105051761D01*
X47124857Y-105004142D01*
X47220095Y-104861285D01*
X47267714Y-104670809D01*
X47267714Y-104289857D01*
X47220095Y-104194619D01*
X47172476Y-104147000D01*
X47077238Y-104099380D01*
X46886761Y-104099380D01*
X46791523Y-104147000D01*
X46743904Y-104194619D01*
X46696285Y-104289857D01*
X46696285Y-104527952D01*
X46743904Y-104623190D01*
X46791523Y-104670809D01*
X46886761Y-104718428D01*
X47077238Y-104718428D01*
X47172476Y-104670809D01*
X47220095Y-104623190D01*
X47267714Y-104527952D01*
X39347142Y-115205857D02*
X39394761Y-115253476D01*
X39442380Y-115396333D01*
X39442380Y-115491571D01*
X39394761Y-115634428D01*
X39299523Y-115729666D01*
X39204285Y-115777285D01*
X39013809Y-115824904D01*
X38870952Y-115824904D01*
X38680476Y-115777285D01*
X38585238Y-115729666D01*
X38490000Y-115634428D01*
X38442380Y-115491571D01*
X38442380Y-115396333D01*
X38490000Y-115253476D01*
X38537619Y-115205857D01*
X39442380Y-114253476D02*
X39442380Y-114824904D01*
X39442380Y-114539190D02*
X38442380Y-114539190D01*
X38585238Y-114634428D01*
X38680476Y-114729666D01*
X38728095Y-114824904D01*
X38442380Y-113634428D02*
X38442380Y-113539190D01*
X38490000Y-113443952D01*
X38537619Y-113396333D01*
X38632857Y-113348714D01*
X38823333Y-113301095D01*
X39061428Y-113301095D01*
X39251904Y-113348714D01*
X39347142Y-113396333D01*
X39394761Y-113443952D01*
X39442380Y-113539190D01*
X39442380Y-113634428D01*
X39394761Y-113729666D01*
X39347142Y-113777285D01*
X39251904Y-113824904D01*
X39061428Y-113872523D01*
X38823333Y-113872523D01*
X38632857Y-113824904D01*
X38537619Y-113777285D01*
X38490000Y-113729666D01*
X38442380Y-113634428D01*
X58141142Y-117237857D02*
X58188761Y-117285476D01*
X58236380Y-117428333D01*
X58236380Y-117523571D01*
X58188761Y-117666428D01*
X58093523Y-117761666D01*
X57998285Y-117809285D01*
X57807809Y-117856904D01*
X57664952Y-117856904D01*
X57474476Y-117809285D01*
X57379238Y-117761666D01*
X57284000Y-117666428D01*
X57236380Y-117523571D01*
X57236380Y-117428333D01*
X57284000Y-117285476D01*
X57331619Y-117237857D01*
X58236380Y-116285476D02*
X58236380Y-116856904D01*
X58236380Y-116571190D02*
X57236380Y-116571190D01*
X57379238Y-116666428D01*
X57474476Y-116761666D01*
X57522095Y-116856904D01*
X58236380Y-115333095D02*
X58236380Y-115904523D01*
X58236380Y-115618809D02*
X57236380Y-115618809D01*
X57379238Y-115714047D01*
X57474476Y-115809285D01*
X57522095Y-115904523D01*
X73381142Y-117228857D02*
X73428761Y-117276476D01*
X73476380Y-117419333D01*
X73476380Y-117514571D01*
X73428761Y-117657428D01*
X73333523Y-117752666D01*
X73238285Y-117800285D01*
X73047809Y-117847904D01*
X72904952Y-117847904D01*
X72714476Y-117800285D01*
X72619238Y-117752666D01*
X72524000Y-117657428D01*
X72476380Y-117514571D01*
X72476380Y-117419333D01*
X72524000Y-117276476D01*
X72571619Y-117228857D01*
X73476380Y-116276476D02*
X73476380Y-116847904D01*
X73476380Y-116562190D02*
X72476380Y-116562190D01*
X72619238Y-116657428D01*
X72714476Y-116752666D01*
X72762095Y-116847904D01*
X72571619Y-115895523D02*
X72524000Y-115847904D01*
X72476380Y-115752666D01*
X72476380Y-115514571D01*
X72524000Y-115419333D01*
X72571619Y-115371714D01*
X72666857Y-115324095D01*
X72762095Y-115324095D01*
X72904952Y-115371714D01*
X73476380Y-115943142D01*
X73476380Y-115324095D01*
X45116761Y-108751619D02*
X45021523Y-108704000D01*
X44926285Y-108608761D01*
X44783428Y-108465904D01*
X44688190Y-108418285D01*
X44592952Y-108418285D01*
X44640571Y-108656380D02*
X44545333Y-108608761D01*
X44450095Y-108513523D01*
X44402476Y-108323047D01*
X44402476Y-107989714D01*
X44450095Y-107799238D01*
X44545333Y-107704000D01*
X44640571Y-107656380D01*
X44831047Y-107656380D01*
X44926285Y-107704000D01*
X45021523Y-107799238D01*
X45069142Y-107989714D01*
X45069142Y-108323047D01*
X45021523Y-108513523D01*
X44926285Y-108608761D01*
X44831047Y-108656380D01*
X44640571Y-108656380D01*
X46021523Y-108656380D02*
X45450095Y-108656380D01*
X45735809Y-108656380D02*
X45735809Y-107656380D01*
X45640571Y-107799238D01*
X45545333Y-107894476D01*
X45450095Y-107942095D01*
X60610761Y-108751619D02*
X60515523Y-108704000D01*
X60420285Y-108608761D01*
X60277428Y-108465904D01*
X60182190Y-108418285D01*
X60086952Y-108418285D01*
X60134571Y-108656380D02*
X60039333Y-108608761D01*
X59944095Y-108513523D01*
X59896476Y-108323047D01*
X59896476Y-107989714D01*
X59944095Y-107799238D01*
X60039333Y-107704000D01*
X60134571Y-107656380D01*
X60325047Y-107656380D01*
X60420285Y-107704000D01*
X60515523Y-107799238D01*
X60563142Y-107989714D01*
X60563142Y-108323047D01*
X60515523Y-108513523D01*
X60420285Y-108608761D01*
X60325047Y-108656380D01*
X60134571Y-108656380D01*
X60896476Y-107656380D02*
X61515523Y-107656380D01*
X61182190Y-108037333D01*
X61325047Y-108037333D01*
X61420285Y-108084952D01*
X61467904Y-108132571D01*
X61515523Y-108227809D01*
X61515523Y-108465904D01*
X61467904Y-108561142D01*
X61420285Y-108608761D01*
X61325047Y-108656380D01*
X61039333Y-108656380D01*
X60944095Y-108608761D01*
X60896476Y-108561142D01*
X75850761Y-108751619D02*
X75755523Y-108704000D01*
X75660285Y-108608761D01*
X75517428Y-108465904D01*
X75422190Y-108418285D01*
X75326952Y-108418285D01*
X75374571Y-108656380D02*
X75279333Y-108608761D01*
X75184095Y-108513523D01*
X75136476Y-108323047D01*
X75136476Y-107989714D01*
X75184095Y-107799238D01*
X75279333Y-107704000D01*
X75374571Y-107656380D01*
X75565047Y-107656380D01*
X75660285Y-107704000D01*
X75755523Y-107799238D01*
X75803142Y-107989714D01*
X75803142Y-108323047D01*
X75755523Y-108513523D01*
X75660285Y-108608761D01*
X75565047Y-108656380D01*
X75374571Y-108656380D01*
X76707904Y-107656380D02*
X76231714Y-107656380D01*
X76184095Y-108132571D01*
X76231714Y-108084952D01*
X76326952Y-108037333D01*
X76565047Y-108037333D01*
X76660285Y-108084952D01*
X76707904Y-108132571D01*
X76755523Y-108227809D01*
X76755523Y-108465904D01*
X76707904Y-108561142D01*
X76660285Y-108608761D01*
X76565047Y-108656380D01*
X76326952Y-108656380D01*
X76231714Y-108608761D01*
X76184095Y-108561142D01*
X48586380Y-116743666D02*
X48110190Y-117077000D01*
X48586380Y-117315095D02*
X47586380Y-117315095D01*
X47586380Y-116934142D01*
X47634000Y-116838904D01*
X47681619Y-116791285D01*
X47776857Y-116743666D01*
X47919714Y-116743666D01*
X48014952Y-116791285D01*
X48062571Y-116838904D01*
X48110190Y-116934142D01*
X48110190Y-117315095D01*
X48014952Y-116172238D02*
X47967333Y-116267476D01*
X47919714Y-116315095D01*
X47824476Y-116362714D01*
X47776857Y-116362714D01*
X47681619Y-116315095D01*
X47634000Y-116267476D01*
X47586380Y-116172238D01*
X47586380Y-115981761D01*
X47634000Y-115886523D01*
X47681619Y-115838904D01*
X47776857Y-115791285D01*
X47824476Y-115791285D01*
X47919714Y-115838904D01*
X47967333Y-115886523D01*
X48014952Y-115981761D01*
X48014952Y-116172238D01*
X48062571Y-116267476D01*
X48110190Y-116315095D01*
X48205428Y-116362714D01*
X48395904Y-116362714D01*
X48491142Y-116315095D01*
X48538761Y-116267476D01*
X48586380Y-116172238D01*
X48586380Y-115981761D01*
X48538761Y-115886523D01*
X48491142Y-115838904D01*
X48395904Y-115791285D01*
X48205428Y-115791285D01*
X48110190Y-115838904D01*
X48062571Y-115886523D01*
X48014952Y-115981761D01*
X64080380Y-117228857D02*
X63604190Y-117562190D01*
X64080380Y-117800285D02*
X63080380Y-117800285D01*
X63080380Y-117419333D01*
X63128000Y-117324095D01*
X63175619Y-117276476D01*
X63270857Y-117228857D01*
X63413714Y-117228857D01*
X63508952Y-117276476D01*
X63556571Y-117324095D01*
X63604190Y-117419333D01*
X63604190Y-117800285D01*
X64080380Y-116276476D02*
X64080380Y-116847904D01*
X64080380Y-116562190D02*
X63080380Y-116562190D01*
X63223238Y-116657428D01*
X63318476Y-116752666D01*
X63366095Y-116847904D01*
X63080380Y-115943142D02*
X63080380Y-115324095D01*
X63461333Y-115657428D01*
X63461333Y-115514571D01*
X63508952Y-115419333D01*
X63556571Y-115371714D01*
X63651809Y-115324095D01*
X63889904Y-115324095D01*
X63985142Y-115371714D01*
X64032761Y-115419333D01*
X64080380Y-115514571D01*
X64080380Y-115800285D01*
X64032761Y-115895523D01*
X63985142Y-115943142D01*
X82620380Y-115205857D02*
X82144190Y-115539190D01*
X82620380Y-115777285D02*
X81620380Y-115777285D01*
X81620380Y-115396333D01*
X81668000Y-115301095D01*
X81715619Y-115253476D01*
X81810857Y-115205857D01*
X81953714Y-115205857D01*
X82048952Y-115253476D01*
X82096571Y-115301095D01*
X82144190Y-115396333D01*
X82144190Y-115777285D01*
X81715619Y-114824904D02*
X81668000Y-114777285D01*
X81620380Y-114682047D01*
X81620380Y-114443952D01*
X81668000Y-114348714D01*
X81715619Y-114301095D01*
X81810857Y-114253476D01*
X81906095Y-114253476D01*
X82048952Y-114301095D01*
X82620380Y-114872523D01*
X82620380Y-114253476D01*
X82620380Y-113301095D02*
X82620380Y-113872523D01*
X82620380Y-113586809D02*
X81620380Y-113586809D01*
X81763238Y-113682047D01*
X81858476Y-113777285D01*
X81906095Y-113872523D01*
X61603095Y-88435380D02*
X62174523Y-88435380D01*
X61888809Y-89435380D02*
X61888809Y-88435380D01*
X62507857Y-89435380D02*
X62507857Y-88435380D01*
X62888809Y-88435380D01*
X62984047Y-88483000D01*
X63031666Y-88530619D01*
X63079285Y-88625857D01*
X63079285Y-88768714D01*
X63031666Y-88863952D01*
X62984047Y-88911571D01*
X62888809Y-88959190D01*
X62507857Y-88959190D01*
X64031666Y-89435380D02*
X63460238Y-89435380D01*
X63745952Y-89435380D02*
X63745952Y-88435380D01*
X63650714Y-88578238D01*
X63555476Y-88673476D01*
X63460238Y-88721095D01*
X65286095Y-88435380D02*
X65857523Y-88435380D01*
X65571809Y-89435380D02*
X65571809Y-88435380D01*
X66190857Y-89435380D02*
X66190857Y-88435380D01*
X66571809Y-88435380D01*
X66667047Y-88483000D01*
X66714666Y-88530619D01*
X66762285Y-88625857D01*
X66762285Y-88768714D01*
X66714666Y-88863952D01*
X66667047Y-88911571D01*
X66571809Y-88959190D01*
X66190857Y-88959190D01*
X67143238Y-88530619D02*
X67190857Y-88483000D01*
X67286095Y-88435380D01*
X67524190Y-88435380D01*
X67619428Y-88483000D01*
X67667047Y-88530619D01*
X67714666Y-88625857D01*
X67714666Y-88721095D01*
X67667047Y-88863952D01*
X67095619Y-89435380D01*
X67714666Y-89435380D01*
X68969095Y-88435380D02*
X69540523Y-88435380D01*
X69254809Y-89435380D02*
X69254809Y-88435380D01*
X69873857Y-89435380D02*
X69873857Y-88435380D01*
X70254809Y-88435380D01*
X70350047Y-88483000D01*
X70397666Y-88530619D01*
X70445285Y-88625857D01*
X70445285Y-88768714D01*
X70397666Y-88863952D01*
X70350047Y-88911571D01*
X70254809Y-88959190D01*
X69873857Y-88959190D01*
X70778619Y-88435380D02*
X71397666Y-88435380D01*
X71064333Y-88816333D01*
X71207190Y-88816333D01*
X71302428Y-88863952D01*
X71350047Y-88911571D01*
X71397666Y-89006809D01*
X71397666Y-89244904D01*
X71350047Y-89340142D01*
X71302428Y-89387761D01*
X71207190Y-89435380D01*
X70921476Y-89435380D01*
X70826238Y-89387761D01*
X70778619Y-89340142D01*
X50554095Y-88435380D02*
X51125523Y-88435380D01*
X50839809Y-89435380D02*
X50839809Y-88435380D01*
X51458857Y-89435380D02*
X51458857Y-88435380D01*
X51839809Y-88435380D01*
X51935047Y-88483000D01*
X51982666Y-88530619D01*
X52030285Y-88625857D01*
X52030285Y-88768714D01*
X51982666Y-88863952D01*
X51935047Y-88911571D01*
X51839809Y-88959190D01*
X51458857Y-88959190D01*
X52887428Y-88768714D02*
X52887428Y-89435380D01*
X52649333Y-88387761D02*
X52411238Y-89102047D01*
X53030285Y-89102047D01*
X54237095Y-88435380D02*
X54808523Y-88435380D01*
X54522809Y-89435380D02*
X54522809Y-88435380D01*
X55141857Y-89435380D02*
X55141857Y-88435380D01*
X55522809Y-88435380D01*
X55618047Y-88483000D01*
X55665666Y-88530619D01*
X55713285Y-88625857D01*
X55713285Y-88768714D01*
X55665666Y-88863952D01*
X55618047Y-88911571D01*
X55522809Y-88959190D01*
X55141857Y-88959190D01*
X56618047Y-88435380D02*
X56141857Y-88435380D01*
X56094238Y-88911571D01*
X56141857Y-88863952D01*
X56237095Y-88816333D01*
X56475190Y-88816333D01*
X56570428Y-88863952D01*
X56618047Y-88911571D01*
X56665666Y-89006809D01*
X56665666Y-89244904D01*
X56618047Y-89340142D01*
X56570428Y-89387761D01*
X56475190Y-89435380D01*
X56237095Y-89435380D01*
X56141857Y-89387761D01*
X56094238Y-89340142D01*
X57920095Y-88435380D02*
X58491523Y-88435380D01*
X58205809Y-89435380D02*
X58205809Y-88435380D01*
X58824857Y-89435380D02*
X58824857Y-88435380D01*
X59205809Y-88435380D01*
X59301047Y-88483000D01*
X59348666Y-88530619D01*
X59396285Y-88625857D01*
X59396285Y-88768714D01*
X59348666Y-88863952D01*
X59301047Y-88911571D01*
X59205809Y-88959190D01*
X58824857Y-88959190D01*
X60253428Y-88435380D02*
X60062952Y-88435380D01*
X59967714Y-88483000D01*
X59920095Y-88530619D01*
X59824857Y-88673476D01*
X59777238Y-88863952D01*
X59777238Y-89244904D01*
X59824857Y-89340142D01*
X59872476Y-89387761D01*
X59967714Y-89435380D01*
X60158190Y-89435380D01*
X60253428Y-89387761D01*
X60301047Y-89340142D01*
X60348666Y-89244904D01*
X60348666Y-89006809D01*
X60301047Y-88911571D01*
X60253428Y-88863952D01*
X60158190Y-88816333D01*
X59967714Y-88816333D01*
X59872476Y-88863952D01*
X59824857Y-88911571D01*
X59777238Y-89006809D01*
X50554095Y-84879380D02*
X51125523Y-84879380D01*
X50839809Y-85879380D02*
X50839809Y-84879380D01*
X51458857Y-85879380D02*
X51458857Y-84879380D01*
X51839809Y-84879380D01*
X51935047Y-84927000D01*
X51982666Y-84974619D01*
X52030285Y-85069857D01*
X52030285Y-85212714D01*
X51982666Y-85307952D01*
X51935047Y-85355571D01*
X51839809Y-85403190D01*
X51458857Y-85403190D01*
X52363619Y-84879380D02*
X53030285Y-84879380D01*
X52601714Y-85879380D01*
X61603095Y-84752380D02*
X62174523Y-84752380D01*
X61888809Y-85752380D02*
X61888809Y-84752380D01*
X62507857Y-85752380D02*
X62507857Y-84752380D01*
X62888809Y-84752380D01*
X62984047Y-84800000D01*
X63031666Y-84847619D01*
X63079285Y-84942857D01*
X63079285Y-85085714D01*
X63031666Y-85180952D01*
X62984047Y-85228571D01*
X62888809Y-85276190D01*
X62507857Y-85276190D01*
X63650714Y-85180952D02*
X63555476Y-85133333D01*
X63507857Y-85085714D01*
X63460238Y-84990476D01*
X63460238Y-84942857D01*
X63507857Y-84847619D01*
X63555476Y-84800000D01*
X63650714Y-84752380D01*
X63841190Y-84752380D01*
X63936428Y-84800000D01*
X63984047Y-84847619D01*
X64031666Y-84942857D01*
X64031666Y-84990476D01*
X63984047Y-85085714D01*
X63936428Y-85133333D01*
X63841190Y-85180952D01*
X63650714Y-85180952D01*
X63555476Y-85228571D01*
X63507857Y-85276190D01*
X63460238Y-85371428D01*
X63460238Y-85561904D01*
X63507857Y-85657142D01*
X63555476Y-85704761D01*
X63650714Y-85752380D01*
X63841190Y-85752380D01*
X63936428Y-85704761D01*
X63984047Y-85657142D01*
X64031666Y-85561904D01*
X64031666Y-85371428D01*
X63984047Y-85276190D01*
X63936428Y-85228571D01*
X63841190Y-85180952D01*
X68969095Y-84879380D02*
X69540523Y-84879380D01*
X69254809Y-85879380D02*
X69254809Y-84879380D01*
X69873857Y-85879380D02*
X69873857Y-84879380D01*
X70254809Y-84879380D01*
X70350047Y-84927000D01*
X70397666Y-84974619D01*
X70445285Y-85069857D01*
X70445285Y-85212714D01*
X70397666Y-85307952D01*
X70350047Y-85355571D01*
X70254809Y-85403190D01*
X69873857Y-85403190D01*
X70921476Y-85879380D02*
X71111952Y-85879380D01*
X71207190Y-85831761D01*
X71254809Y-85784142D01*
X71350047Y-85641285D01*
X71397666Y-85450809D01*
X71397666Y-85069857D01*
X71350047Y-84974619D01*
X71302428Y-84927000D01*
X71207190Y-84879380D01*
X71016714Y-84879380D01*
X70921476Y-84927000D01*
X70873857Y-84974619D01*
X70826238Y-85069857D01*
X70826238Y-85307952D01*
X70873857Y-85403190D01*
X70921476Y-85450809D01*
X71016714Y-85498428D01*
X71207190Y-85498428D01*
X71302428Y-85450809D01*
X71350047Y-85403190D01*
X71397666Y-85307952D01*
X64809904Y-84752380D02*
X65381333Y-84752380D01*
X65095619Y-85752380D02*
X65095619Y-84752380D01*
X65714666Y-85752380D02*
X65714666Y-84752380D01*
X66095619Y-84752380D01*
X66190857Y-84800000D01*
X66238476Y-84847619D01*
X66286095Y-84942857D01*
X66286095Y-85085714D01*
X66238476Y-85180952D01*
X66190857Y-85228571D01*
X66095619Y-85276190D01*
X65714666Y-85276190D01*
X67238476Y-85752380D02*
X66667047Y-85752380D01*
X66952761Y-85752380D02*
X66952761Y-84752380D01*
X66857523Y-84895238D01*
X66762285Y-84990476D01*
X66667047Y-85038095D01*
X67857523Y-84752380D02*
X67952761Y-84752380D01*
X68048000Y-84800000D01*
X68095619Y-84847619D01*
X68143238Y-84942857D01*
X68190857Y-85133333D01*
X68190857Y-85371428D01*
X68143238Y-85561904D01*
X68095619Y-85657142D01*
X68048000Y-85704761D01*
X67952761Y-85752380D01*
X67857523Y-85752380D01*
X67762285Y-85704761D01*
X67714666Y-85657142D01*
X67667047Y-85561904D01*
X67619428Y-85371428D01*
X67619428Y-85133333D01*
X67667047Y-84942857D01*
X67714666Y-84847619D01*
X67762285Y-84800000D01*
X67857523Y-84752380D01*
X53760904Y-84879380D02*
X54332333Y-84879380D01*
X54046619Y-85879380D02*
X54046619Y-84879380D01*
X54665666Y-85879380D02*
X54665666Y-84879380D01*
X55046619Y-84879380D01*
X55141857Y-84927000D01*
X55189476Y-84974619D01*
X55237095Y-85069857D01*
X55237095Y-85212714D01*
X55189476Y-85307952D01*
X55141857Y-85355571D01*
X55046619Y-85403190D01*
X54665666Y-85403190D01*
X56189476Y-85879380D02*
X55618047Y-85879380D01*
X55903761Y-85879380D02*
X55903761Y-84879380D01*
X55808523Y-85022238D01*
X55713285Y-85117476D01*
X55618047Y-85165095D01*
X57141857Y-85879380D02*
X56570428Y-85879380D01*
X56856142Y-85879380D02*
X56856142Y-84879380D01*
X56760904Y-85022238D01*
X56665666Y-85117476D01*
X56570428Y-85165095D01*
X63717380Y-102985904D02*
X64526904Y-102985904D01*
X64622142Y-102938285D01*
X64669761Y-102890666D01*
X64717380Y-102795428D01*
X64717380Y-102604952D01*
X64669761Y-102509714D01*
X64622142Y-102462095D01*
X64526904Y-102414476D01*
X63717380Y-102414476D01*
X64717380Y-101414476D02*
X64717380Y-101985904D01*
X64717380Y-101700190D02*
X63717380Y-101700190D01*
X63860238Y-101795428D01*
X63955476Y-101890666D01*
X64003095Y-101985904D01*
X38442380Y-111260904D02*
X39251904Y-111260904D01*
X39347142Y-111213285D01*
X39394761Y-111165666D01*
X39442380Y-111070428D01*
X39442380Y-110879952D01*
X39394761Y-110784714D01*
X39347142Y-110737095D01*
X39251904Y-110689476D01*
X38442380Y-110689476D01*
X38537619Y-110260904D02*
X38490000Y-110213285D01*
X38442380Y-110118047D01*
X38442380Y-109879952D01*
X38490000Y-109784714D01*
X38537619Y-109737095D01*
X38632857Y-109689476D01*
X38728095Y-109689476D01*
X38870952Y-109737095D01*
X39442380Y-110308523D01*
X39442380Y-109689476D01*
X51650380Y-117356904D02*
X52459904Y-117356904D01*
X52555142Y-117309285D01*
X52602761Y-117261666D01*
X52650380Y-117166428D01*
X52650380Y-116975952D01*
X52602761Y-116880714D01*
X52555142Y-116833095D01*
X52459904Y-116785476D01*
X51650380Y-116785476D01*
X51650380Y-116404523D02*
X51650380Y-115785476D01*
X52031333Y-116118809D01*
X52031333Y-115975952D01*
X52078952Y-115880714D01*
X52126571Y-115833095D01*
X52221809Y-115785476D01*
X52459904Y-115785476D01*
X52555142Y-115833095D01*
X52602761Y-115880714D01*
X52650380Y-115975952D01*
X52650380Y-116261666D01*
X52602761Y-116356904D01*
X52555142Y-116404523D01*
X66890380Y-117356904D02*
X67699904Y-117356904D01*
X67795142Y-117309285D01*
X67842761Y-117261666D01*
X67890380Y-117166428D01*
X67890380Y-116975952D01*
X67842761Y-116880714D01*
X67795142Y-116833095D01*
X67699904Y-116785476D01*
X66890380Y-116785476D01*
X67223714Y-115880714D02*
X67890380Y-115880714D01*
X66842761Y-116118809D02*
X67557047Y-116356904D01*
X67557047Y-115737857D01*
M02*
